<svg width="48" height="48" viewBox="0 0 48 48" fill="none" xmlns="http://www.w3.org/2000/svg">
<g clip-path="url(#clip0_28_5)">
<g clip-path="url(#clip1_28_5)">
<path d="M40.6238 10.1931L27.3124 10.7596C26.7079 10.7853 26.1388 11.0492 25.7288 11.4956L8.86628 29.8572C8.01019 30.7894 8.07785 32.2311 9.00348 33.0812L22.8814 45.8261C23.8136 46.6821 25.2553 46.6145 26.1053 45.6888L42.9679 27.3272C43.3778 26.8808 43.5924 26.2913 43.5667 25.6869L43.0002 12.3755C42.9466 11.1161 41.8831 10.1395 40.6238 10.1931Z" fill="#F2F2F4"/>
<path d="M16.043 46.2231L2.16513 33.4783C0.871871 32.2906 0.792683 30.2817 1.97433 28.995L18.8429 10.6268C19.4156 10.0031 20.2011 9.63536 21.0449 9.59946L34.3563 9.03295C36.0564 8.96059 37.5925 10.3713 37.6649 12.0715L38.2314 25.3828C38.2673 26.2266 37.9676 27.0405 37.3949 27.6642L20.5323 46.0258C19.3512 47.3251 17.3363 47.4108 16.043 46.2231ZM35.4318 11.1824C35.1561 10.9292 34.8036 10.7991 34.4258 10.8152L21.1144 11.3817C20.7366 11.3978 20.3965 11.5574 20.1433 11.8331L3.28071 30.1947C2.76224 30.7593 2.79975 31.6408 3.36432 32.1593L17.2422 44.9042C17.8068 45.4226 18.6883 45.3851 19.2068 44.8205L36.0754 26.4524C36.3286 26.1766 36.4587 25.8242 36.4426 25.4464L35.8832 12.1536C35.8671 11.7758 35.7075 11.4356 35.4318 11.1824Z" fill="black"/>
<path d="M14.5951 22.7237L13.9568 26.6998L16.2538 24.1986C16.4045 24.0345 16.5459 23.9465 16.6965 23.9275C16.841 23.915 16.9751 23.9534 17.0933 24.062C17.218 24.1765 17.2737 24.3003 17.2676 24.452C17.2674 24.5971 17.1857 24.7519 17.035 24.916L13.9965 28.2247C13.6589 28.5923 13.3391 28.6375 13.0305 28.3541C12.9518 28.2818 12.8982 28.2083 12.8572 28.1344C12.8162 28.0604 12.7933 27.9668 12.783 27.8726C12.7726 27.7784 12.7744 27.6711 12.7887 27.5633C12.8031 27.4554 12.8174 27.3476 12.8317 27.2397L13.4852 23.3261L11.2244 25.7878C11.0797 25.9454 10.9258 26.034 10.7812 26.0464C10.6307 26.0654 10.496 26.0144 10.3778 25.9059C10.2597 25.7974 10.1974 25.6675 10.2035 25.5159C10.2097 25.3642 10.2788 25.2099 10.4235 25.0523L13.4018 21.8093C13.5284 21.6715 13.6379 21.5785 13.7431 21.5299C13.8609 21.4807 13.9863 21.4627 14.1199 21.4886C14.2534 21.5145 14.3694 21.5726 14.4614 21.657C14.5401 21.7294 14.5937 21.8028 14.6221 21.8773C14.6505 21.9518 14.6729 22.0328 14.6761 22.1084C14.6793 22.1839 14.671 22.2852 14.6501 22.387C14.6358 22.4949 14.6154 22.6093 14.5951 22.7237ZM20.5145 28.5592L18.5976 26.7988L17.651 27.8294L19.417 29.4512C19.5482 29.5718 19.6226 29.6885 19.6274 29.8018C19.6388 29.9212 19.5993 30.0301 19.5149 30.122C19.4245 30.2205 19.3253 30.2625 19.2059 30.2739C19.086 30.2727 18.964 30.2211 18.8261 30.0945L17.0602 28.4728L15.963 29.6676L17.9455 31.4883C18.0768 31.6088 18.1517 31.7381 18.1631 31.8575C18.1745 31.9769 18.1355 32.0984 18.039 32.2034C17.9486 32.3019 17.8434 32.3505 17.7109 32.3499C17.5784 32.3492 17.4559 32.285 17.3246 32.1644L15.0138 30.0423C14.83 29.8735 14.7283 29.7075 14.7279 29.5498C14.7275 29.3921 14.8021 29.2186 14.9709 29.0348L17.8707 25.8772C17.9853 25.7524 18.0954 25.6721 18.2006 25.6234C18.3123 25.5808 18.4131 25.5765 18.528 25.6095C18.6369 25.649 18.7535 25.7197 18.8717 25.8283L21.1168 27.8901C21.2547 28.0167 21.323 28.14 21.3344 28.2593C21.3458 28.3787 21.3062 28.4876 21.2158 28.5861C21.1254 28.6846 21.0202 28.7332 20.9003 28.732C20.7749 28.75 20.6523 28.6858 20.5145 28.5592ZM21.9845 35.2338L23.6168 32.0859L20.6124 33.9737C20.3851 34.1159 20.2125 34.2115 20.1079 34.2728C19.9967 34.328 19.8778 34.352 19.7388 34.3453C19.5997 34.3386 19.4645 34.2749 19.3332 34.1543C19.2282 34.0579 19.161 33.9598 19.1249 33.8541C19.0954 33.7544 19.0846 33.6477 19.1115 33.5393C19.1384 33.4309 19.1774 33.3094 19.2416 33.1868C19.3058 33.0642 19.3639 32.9482 19.4226 32.8447L21.3186 29.3703C21.4299 29.17 21.5182 29.0211 21.5966 28.9358C21.6991 28.8242 21.8229 28.7684 21.9614 28.7625C22.1065 28.7627 22.2346 28.8077 22.3462 28.9102C22.5037 29.0549 22.554 29.1978 22.5226 29.3506C22.4913 29.5033 22.398 29.6839 22.2626 29.9104L20.5592 32.8721L23.2864 31.1411C23.4951 31.0061 23.6551 30.9109 23.7789 30.8552C23.9027 30.7995 24.0341 30.775 24.1732 30.7817C24.3188 30.7944 24.4605 30.8641 24.5984 30.9907C24.7428 31.1233 24.8243 31.2586 24.8367 31.4032C24.8492 31.5477 24.8354 31.6682 24.7899 31.7836C24.7443 31.8991 24.6631 32.0666 24.5408 32.3052L23.0544 35.1756L25.8606 33.2268C26.0074 33.1196 26.1241 33.0453 26.2167 32.9972C26.3093 32.9491 26.4089 32.9196 26.5223 32.9148C26.6356 32.91 26.7451 32.9621 26.8567 33.0646C26.9683 33.167 27.024 33.2908 27.0365 33.4354C27.0489 33.58 27.0039 33.708 26.9014 33.8196C26.8291 33.8984 26.6948 34.0051 26.4921 34.1335L23.1913 36.3179C22.9705 36.466 22.8045 36.5677 22.6873 36.6295C22.5701 36.6913 22.4512 36.7152 22.3127 36.7211C22.1742 36.727 22.0385 36.6508 21.9006 36.5242C21.7693 36.4036 21.6944 36.2743 21.6759 36.1363C21.6574 35.9983 21.6712 35.8779 21.7107 35.769C21.7755 35.659 21.8627 35.485 21.9845 35.2338ZM29.2253 19.3507C28.7657 18.9287 28.4985 18.4291 28.4733 17.8372C28.4411 17.0816 28.8363 15.9924 30.9046 15.0843C31.3565 14.8821 31.8825 15.0868 32.0786 15.5453C32.2808 15.9972 32.0761 16.5232 31.6176 16.7193C30.5649 17.1805 30.2431 17.6231 30.249 17.7616C30.2715 18.2906 32.668 19.4628 37.0128 19.2779C38.9396 19.1959 40.7232 18.8614 42.0377 18.326C43.3649 17.7901 43.6276 17.2932 43.6233 17.1925C43.6019 16.6887 41.2623 15.5203 37.0292 15.6626C36.5381 15.6835 36.124 15.2911 36.1096 14.806C36.0887 14.3149 36.4811 13.9007 36.9663 13.8864C40.9535 13.7483 45.3027 14.7049 45.399 17.1169C45.504 19.5852 41.1626 20.8865 37.0823 21.0602C33.9843 21.192 30.6761 20.6831 29.2253 19.3507Z" fill="black"/>
</g>
</g>
<defs>
<clipPath id="clip0_28_5">
<rect width="48" height="48" fill="white"/>
</clipPath>
<clipPath id="clip1_28_5">
<rect width="42.7826" height="42.7826" fill="white" transform="translate(21.9854 -5.80099) rotate(42.5631)"/>
</clipPath>
</defs>
</svg>
