<svg width="48" height="48" viewBox="0 0 48 48" fill="none" xmlns="http://www.w3.org/2000/svg">
<g clip-path="url(#clip0_2069_600)">
<g clip-path="url(#clip1_2069_600)">
<path d="M24.1037 17.3041L14.493 12.8893L7.10895 30.4533L16.2405 34.4807L24.1037 17.3041Z" fill="#66C97C"/>
<path d="M14.9518 37.6731L5.61291 33.7209C5.36454 34.3001 4.7203 35.8268 4.1303 37.2999C3.39279 39.1413 3.49113 41.364 6.81363 43.0943C9.47162 44.4785 11.9764 43.3239 12.7371 42.2902L14.9518 37.6731Z" fill="#F2F2F4"/>
<path d="M24.2942 4.70126L23.9322 16.83L15.2499 12.6217L24.2942 4.70126Z" fill="#F2F2F4"/>
<path d="M3.33704 36.8812L14.1139 12.718C14.1223 12.6993 14.1335 12.6842 14.1428 12.6682C14.1503 12.6514 14.1589 12.6374 14.1701 12.6222C14.1932 12.5856 14.221 12.5533 14.2499 12.5237C14.2543 12.5189 14.2568 12.5133 14.2638 12.5075L14.2717 12.4998C14.2717 12.4998 14.2717 12.4998 14.2725 12.498L23.9854 3.09304C24.1855 2.90054 24.4817 2.84927 24.7359 2.96262C24.99 3.07597 25.1498 3.3306 25.1384 3.60728L24.6327 17.1187C24.6327 17.1187 24.6327 17.1187 24.6319 17.1205L24.6315 17.1315C24.6315 17.1315 24.6283 17.1435 24.6288 17.1527C24.626 17.1939 24.6206 17.2362 24.6087 17.2779C24.6031 17.2955 24.5983 17.3113 24.5927 17.3289C24.5852 17.3457 24.5825 17.3668 24.575 17.3836L13.7981 41.5469C12.7059 43.9959 9.82082 45.0996 7.36532 44.0045L5.80681 43.3094C3.35318 42.215 2.24396 39.3321 3.33704 36.8812ZM21.673 7.22283L15.9281 12.7847L23.3114 16.0776L23.6109 8.08712L21.673 7.22283ZM15.8205 33.6719L23.0553 17.4505L21.7958 16.8887L14.561 33.1101L15.8205 33.6719ZM17.5789 15.0058L10.3441 31.2272L13.321 32.5549L20.5558 16.3335L17.5789 15.0058ZM15.0786 13.8906L7.8438 30.112L9.10332 30.6737L16.3381 14.4524L15.0786 13.8906ZM6.45125 33.2343L14.4288 36.7923L15.2682 34.9103L7.29061 31.3523L6.45125 33.2343ZM4.57787 37.4346C3.79009 39.201 4.5895 41.2816 6.35917 42.0709L7.91769 42.766C9.68736 43.5553 11.7695 42.7598 12.5573 40.9935L13.8783 38.0316L5.89888 34.4728L4.57787 37.4346Z" fill="black"/>
</g>
<path d="M40.7365 20.4904L31.1257 16.0756L23.7417 33.6396L32.8733 37.667L40.7365 20.4904Z" fill="#66C97C"/>
<g clip-path="url(#clip2_2069_600)">
<path d="M32.7744 12.549L42.1133 16.5012C42.3616 15.9219 43.0059 14.3952 43.5959 12.9221C44.3334 11.0808 44.235 8.85813 40.9125 7.1278C38.2545 5.74354 35.7498 6.89817 34.9891 7.93191L32.7744 12.549Z" fill="#F2F2F4"/>
<path d="M23.4319 45.5208L23.794 33.3921L32.4763 37.6004L23.4319 45.5208Z" fill="#F2F2F4"/>
<path d="M44.3891 13.3408L33.6122 37.5041C33.6039 37.5228 33.5927 37.5379 33.5833 37.5539C33.5758 37.5706 33.5673 37.5847 33.5561 37.5998C33.533 37.6365 33.5052 37.6688 33.4763 37.6984C33.4719 37.7032 33.4694 37.7088 33.4624 37.7146L33.4545 37.7222C33.4545 37.7222 33.4545 37.7222 33.4536 37.7241L23.7408 47.129C23.5407 47.3215 23.2445 47.3728 22.9903 47.2595C22.7362 47.1461 22.5764 46.8915 22.5878 46.6148L23.0934 33.1034C23.0934 33.1034 23.0934 33.1034 23.0943 33.1016L23.0947 33.0906C23.0947 33.0906 23.0978 33.0785 23.0974 33.0694C23.1001 33.0281 23.1056 32.9858 23.1174 32.9442C23.123 32.9265 23.1278 32.9108 23.1334 32.8932C23.1409 32.8764 23.1436 32.8552 23.1511 32.8384L33.928 8.67517C35.0203 6.2262 37.9053 5.12246 40.3608 6.21762L41.9194 6.91272C44.373 8.00705 45.4822 10.89 44.3891 13.3408ZM26.0532 42.9993L31.7981 37.4374L24.4148 34.1445L24.1153 42.135L26.0532 42.9993ZM31.9056 16.5502L24.6708 32.7716L25.9304 33.3333L33.1652 17.112L31.9056 16.5502ZM30.1472 35.2163L37.382 18.9949L34.4052 17.6672L27.1704 33.8886L30.1472 35.2163ZM32.6476 36.3315L39.8824 20.1101L38.6229 19.5483L31.3881 35.7697L32.6476 36.3315ZM41.2749 16.9878L33.2974 13.4298L32.458 15.3117L40.4356 18.8698L41.2749 16.9878ZM43.1483 12.7874C43.9361 11.0211 43.1367 8.94048 41.367 8.1512L39.8085 7.45609C38.0388 6.66681 35.9566 7.46226 35.1689 9.22858L33.8479 12.1905L41.8273 15.7493L43.1483 12.7874Z" fill="black"/>
</g>
</g>
<defs>
<clipPath id="clip0_2069_600">
<rect width="48" height="48" fill="white"/>
</clipPath>
<clipPath id="clip1_2069_600">
<rect width="11.4523" height="44.5583" fill="white" transform="translate(19.5053 0.629784) rotate(24.037)"/>
</clipPath>
<clipPath id="clip2_2069_600">
<rect width="11.4523" height="44.5583" fill="white" transform="translate(28.2209 49.5923) rotate(-155.963)"/>
</clipPath>
</defs>
</svg>
