<svg width="48" height="48" viewBox="0 0 48 48" fill="none" xmlns="http://www.w3.org/2000/svg">
<g clip-path="url(#clip0_28_42)">
<ellipse cx="19.1154" cy="28.6612" rx="13.2367" ry="13.9579" fill="white"/>
<path d="M32.9913 21.4834C32.6303 20.803 31.7971 20.553 31.1166 20.9002C30.4362 21.2612 30.1862 22.0944 30.5334 22.7749C31.4777 24.5524 31.9498 26.4965 31.9498 28.5378C31.9498 35.4256 26.3397 41.0357 19.4519 41.0357C12.5642 41.0357 6.96788 35.4394 6.96788 28.5517C6.96788 21.664 12.5781 16.0538 19.4658 16.0538C21.5071 16.0538 23.4513 16.5259 25.2287 17.4702C25.9092 17.8313 26.7424 17.5674 27.1034 16.887C27.4645 16.2065 27.2006 15.3733 26.5202 15.0123C24.3678 13.8736 21.9237 13.2626 19.4519 13.2626C11.0228 13.2626 4.17668 20.1087 4.17668 28.5378C4.17668 36.967 11.0228 43.8131 19.4519 43.8131C27.8811 43.8131 34.7272 36.967 34.7272 28.5378C34.7272 26.0799 34.13 23.6358 32.9774 21.4695L32.9913 21.4834Z" fill="black" stroke="#BAF0C6" stroke-width="1.08383"/>
<path d="M25.6656 26.911C25.8065 27.4235 25.8834 27.9745 25.8834 28.5382C25.8834 32.0745 23.0134 34.9445 19.4772 34.9445C15.9409 34.9445 13.0709 32.0745 13.0709 28.5382C13.0709 25.002 15.9409 22.132 19.4772 22.132C20.0537 22.132 20.6047 22.2088 21.1043 22.3498C21.7834 22.542 22.4881 22.1448 22.6931 21.4657C22.8853 20.7866 22.4881 20.082 21.809 19.877C21.0659 19.6591 20.2843 19.5566 19.4772 19.5566C14.5315 19.5566 10.5084 23.5798 10.5084 28.5254C10.5084 33.471 14.5315 37.4941 19.4772 37.4941C24.4228 37.4941 28.4459 33.471 28.4459 28.5254C28.4459 27.7182 28.3434 26.9238 28.1256 26.1935C27.9334 25.5145 27.2287 25.1173 26.5368 25.3095C25.8578 25.5016 25.4606 26.2191 25.6528 26.8982L25.6656 26.911Z" fill="black" stroke="white"/>
<path d="M43.7953 12.2663C43.6928 11.8435 43.3853 11.4848 42.9753 11.3438L38.3243 9.69101L36.6715 5.04007C36.5306 4.63007 36.1718 4.30976 35.749 4.22007C35.3134 4.11757 34.865 4.25851 34.5575 4.56601L30.3165 8.80695C29.2787 9.84476 28.92 11.4207 29.4068 12.8044L30.4447 15.7385L18.5675 27.6157C18.0678 28.1154 18.0678 28.9226 18.5675 29.4223C18.8237 29.6785 19.144 29.7938 19.4772 29.7938C19.8103 29.7938 20.1306 29.6657 20.3868 29.4223L32.264 17.5451L35.1981 18.5829C35.6209 18.7366 36.0437 18.8007 36.4793 18.8007C37.4787 18.8007 38.4781 18.4035 39.2084 17.6732L43.4493 13.4323C43.7568 13.1248 43.885 12.6763 43.7953 12.2407V12.2663Z" fill="#66C97C"/>
<path d="M19.4772 28.5254L39.1022 9.12555" stroke="black" stroke-linecap="round"/>
</g>
<defs>
<clipPath id="clip0_28_42">
<rect width="48" height="48" fill="white"/>
</clipPath>
</defs>
</svg>
