<svg width="48" height="48" viewBox="0 0 48 48" fill="none" xmlns="http://www.w3.org/2000/svg">
<g clip-path="url(#clip0_28_12)">
<path d="M3.06 31.1184V10.2084L9.25 7.99838V17.6384L12.63 14.7884L15.56 17.1584V7.83838L24.28 9.68838V36.3684L13.47 33.8284L3.71 36.3684L3.06 31.1184Z" fill="#F2F2F4"/>
<path d="M24 9.70839V36.7684L29.64 34.2984L38.42 34.6184L44.42 36.2284V9.70839L35.26 7.40839L27.12 8.34839L24 9.70839Z" fill="#66C97C"/>
<path d="M44.37 8.85838C42.46 8.12838 40.59 7.56838 38.81 7.19838C36.97 6.80838 35.18 6.60838 33.47 6.58838C31.71 6.56838 30 6.74838 28.38 7.12838C26.85 7.47838 25.36 8.02838 23.94 8.73838C21.07 7.67838 18.31 6.98838 15.73 6.72838C15.48 6.69838 15.23 6.78838 15.05 6.94838C14.86 7.11838 14.76 7.35838 14.76 7.60838V15.7484L13.17 14.2484C12.84 13.9384 12.33 13.9284 11.99 14.2184L10.08 15.8684V7.85838C10.08 7.59838 9.95999 7.34838 9.75999 7.17838C9.55999 7.00838 9.28999 6.93838 9.02999 6.98838C7.11999 7.35838 5.26999 8.00838 3.54999 8.91838C3.25999 9.06838 3.07999 9.36838 3.07999 9.69838V28.2584H4.84999V10.2384C5.95999 9.69838 7.12999 9.26838 8.31999 8.95838V17.7884C8.31999 18.1384 8.51999 18.4484 8.83999 18.5884C9.14999 18.7284 9.51999 18.6784 9.78999 18.4584L12.56 16.0684L15.06 18.4284C15.32 18.6684 15.69 18.7384 16.02 18.5984C16.35 18.4584 16.55 18.1384 16.55 17.7884V8.59838C18.64 8.89838 20.85 9.46838 23.14 10.2984V35.1184C21.65 34.5984 20.19 34.1884 18.78 33.8884C16.94 33.4984 15.15 33.2984 13.44 33.2784C11.68 33.2584 9.96999 33.4384 8.34999 33.8184C7.14999 34.0984 5.97999 34.4884 4.84999 34.9784V31.1184H3.07999V36.3884C3.07999 36.6984 3.23999 36.9884 3.50999 37.1484C3.76999 37.3084 4.09999 37.3184 4.37999 37.1784C7.08999 35.7584 10.02 35.0484 13.2 35.0484C16.38 35.0484 19.91 35.7684 23.71 37.2184C23.71 37.2184 23.73 37.2184 23.74 37.2184C23.83 37.2484 23.92 37.2684 24.02 37.2684C24.02 37.2684 24.02 37.2684 24.03 37.2684C24.05 37.2684 24.07 37.2684 24.09 37.2684C24.15 37.2684 24.21 37.2584 24.27 37.2384C24.3 37.2384 24.33 37.2184 24.36 37.2084C24.39 37.1984 24.42 37.1884 24.45 37.1784C27.16 35.7584 30.09 35.0484 33.27 35.0484C36.45 35.0484 39.98 35.7684 43.78 37.2184C43.88 37.2584 43.99 37.2784 44.09 37.2784C44.27 37.2784 44.44 37.2284 44.59 37.1184C44.83 36.9484 44.97 36.6784 44.97 36.3884V9.68838C44.97 9.31838 44.74 8.98838 44.4 8.85838H44.37ZM43.17 35.1284C41.68 34.6084 40.22 34.1984 38.81 33.8984C36.97 33.5084 35.18 33.3084 33.47 33.2884C33.39 33.2884 33.31 33.2884 33.23 33.2884C31.56 33.2884 29.92 33.4684 28.38 33.8284C27.18 34.1084 26.01 34.4984 24.88 34.9884V10.2384C27.46 8.97838 30.23 8.34838 33.23 8.34838C36.23 8.34838 39.59 8.99838 43.17 10.3084V35.1284ZM32.83 38.1084C31.4 38.1184 29.89 38.2984 28.34 38.6184C26.95 38.9184 25.48 39.3384 23.99 39.8984C22.5 39.3484 21.04 38.9184 19.64 38.6184C18.1 38.2884 16.59 38.1184 15.15 38.1084C13.67 38.0884 12.23 38.2484 10.86 38.5584C9.45999 38.8784 8.09999 39.3884 6.81999 40.0584L7.63999 41.6284C12.15 39.2684 17.39 39.2784 23.66 41.6684C23.76 41.7084 23.87 41.7284 23.98 41.7284C24.09 41.7284 24.19 41.7084 24.29 41.6684C30.56 39.2784 35.8 39.2684 40.31 41.6284L41.13 40.0584C39.85 39.3884 38.49 38.8884 37.09 38.5584C35.72 38.2384 34.28 38.0884 32.8 38.1084H32.83Z" fill="black"/>
</g>
<defs>
<clipPath id="clip0_28_12">
<rect width="48" height="48" fill="white"/>
</clipPath>
</defs>
</svg>
