<svg width="48" height="48" viewBox="0 0 48 48" fill="none" xmlns="http://www.w3.org/2000/svg">
<g clip-path="url(#clip0_45_5)">
<circle cx="30.4418" cy="19.3419" r="3.65824" fill="#66C97C"/>
<circle cx="30.4418" cy="31.7538" r="3.65824" fill="#66C97C"/>
<circle cx="18.2912" cy="19.3419" r="3.65824" fill="#66C97C"/>
<circle cx="18.2912" cy="31.7538" r="3.65824" fill="#66C97C"/>
<path d="M42.8634 41.8099C41.7089 41.8101 40.7728 40.8745 40.7726 39.7199L40.7689 22.9965M40.7692 24.0417C40.7713 33.855 32.8179 41.8121 23.0047 41.8142C13.1916 41.8164 5.23471 33.8628 5.23257 24.0495C5.23042 14.2362 13.1838 6.27915 22.997 6.277C32.8101 6.27486 40.767 14.2284 40.7692 24.0417ZM19.8639 17.775C19.8643 19.5067 18.4608 20.911 16.729 20.9114C14.9973 20.9117 13.5931 19.5081 13.5927 17.7764C13.5924 16.0446 14.9959 14.6405 16.7276 14.6401C18.4594 14.6397 19.8635 16.0433 19.8639 17.775ZM19.8666 30.3176C19.867 32.0493 18.4635 33.4535 16.7318 33.4539C15 33.4543 13.5959 32.0507 13.5955 30.319C13.5951 28.5872 14.9986 27.183 16.7304 27.1826C18.4621 27.1822 19.8663 28.5859 19.8666 30.3176ZM32.4062 17.7723C32.4066 19.504 31.003 20.9082 29.2713 20.9086C27.5397 20.909 26.1354 19.5054 26.1351 17.7737C26.1347 16.0419 27.5383 14.6377 29.27 14.6373C31.0016 14.637 32.4059 16.0405 32.4062 17.7723ZM32.409 30.3148C32.4094 32.0465 31.0058 33.4508 29.2741 33.4512C27.5424 33.4515 26.1382 32.0479 26.1378 30.3162C26.1374 28.5845 27.541 27.1803 29.2727 27.1799C31.0044 27.1795 32.4086 28.5831 32.409 30.3148Z" stroke="black" stroke-width="2.09043" stroke-linecap="round" stroke-linejoin="round"/>
</g>
<defs>
<clipPath id="clip0_45_5">
<rect width="48" height="48" fill="white"/>
</clipPath>
</defs>
</svg>
