<svg width="48" height="48" viewBox="0 0 48 48" fill="none" xmlns="http://www.w3.org/2000/svg">
<g clip-path="url(#clip0_28_18)">
<circle cx="23.8858" cy="24.1584" r="18.8858" fill="#F2F2F4"/>
<path d="M22.8858 43.0441C12.4554 43.0441 4 34.5887 4 24.1584C4 13.7281 12.4554 5.27261 22.8858 5.27261" stroke="black" stroke-width="1.5" stroke-linecap="round"/>
<path d="M4 24.1584C4 13.7281 12.4554 5.27261 22.8858 5.27261C33.3161 5.27261 41.7715 13.7281 41.7715 24.1584" stroke="black" stroke-width="1.5" stroke-linecap="round"/>
<path d="M36.9145 36.4989C30.0901 44.3868 18.1634 45.249 10.2755 38.4246C2.38756 31.6002 1.52539 19.6735 8.34978 11.7856" stroke="black" stroke-width="1.5" stroke-linecap="round"/>
<path d="M16.4538 21.2218V29.4298L22.879 33.1569L29.3102 29.4268V21.2218L22.879 23.9498L16.4538 21.2218Z" fill="#66C97C"/>
<path d="M16.4538 21.2218V23.0764L22.2179 25.5172C22.4281 25.6061 22.6539 25.6519 22.882 25.6519C23.1101 25.6519 23.3359 25.6061 23.5461 25.5172L29.3102 23.0734V21.2188L22.879 23.9498L16.4538 21.2218Z" fill="#66C97C"/>
<path d="M22.5401 14.4623L12.8966 19.139C12.7603 19.2055 12.646 19.3097 12.5673 19.4393C12.4886 19.5689 12.4487 19.7183 12.4525 19.8699C12.4562 20.0214 12.5034 20.1687 12.5885 20.2942C12.6735 20.4198 12.7928 20.5182 12.9322 20.5779L15.6626 21.7389V29.4232C15.6626 29.5613 15.6988 29.6971 15.7675 29.8169C15.8362 29.9367 15.9351 30.0365 16.0544 30.1062L22.4863 33.8379C22.6068 33.9077 22.7435 33.9444 22.8828 33.9444C23.022 33.9444 23.1588 33.9077 23.2793 33.8379L29.7112 30.1062C29.8312 30.0369 29.9308 29.9374 30.0003 29.8176C30.0697 29.6977 30.1065 29.5617 30.1069 29.4232V21.7374L31.7349 21.0464V24.1932C31.7349 24.2973 31.7554 24.4004 31.7953 24.4965C31.8351 24.5926 31.8936 24.6799 31.9672 24.7535C32.0409 24.827 32.1283 24.8852 32.2245 24.9249C32.3207 24.9646 32.4238 24.9849 32.5279 24.9847C32.9655 24.9855 33.3193 24.6317 33.3193 24.1932V19.8529C33.3193 19.4611 33.1199 19.2799 32.8753 19.139L23.2294 14.4623C22.9825 14.338 22.7751 14.3468 22.5409 14.4623H22.5401ZM22.882 16.0547L30.6063 19.803L22.882 23.0836L15.1577 19.803L22.882 16.0547ZM21.5959 18.7678C21.3858 18.7678 21.1843 18.8513 21.0357 18.9999C20.8872 19.1484 20.8037 19.3499 20.8037 19.5601C20.8037 19.7702 20.8872 19.9717 21.0357 20.1203C21.1843 20.2688 21.3858 20.3523 21.5959 20.3523H24.168C24.3782 20.3523 24.5797 20.2688 24.7282 20.1203C24.8768 19.9717 24.9603 19.7702 24.9603 19.5601C24.9603 19.3499 24.8768 19.1484 24.7282 18.9999C24.5797 18.8513 24.3782 18.7678 24.168 18.7678H21.5959ZM17.2431 22.4125L22.089 24.4687V28.0144C22.0888 28.1186 22.1091 28.2218 22.1489 28.3181C22.1887 28.4144 22.2471 28.5019 22.3208 28.5756C22.3945 28.6493 22.482 28.7077 22.5783 28.7475C22.6746 28.7873 22.7778 28.8076 22.882 28.8074C22.9861 28.8076 23.0893 28.7873 23.1855 28.7476C23.2818 28.7078 23.3692 28.6495 23.4429 28.5759C23.5166 28.5023 23.575 28.4149 23.6148 28.3187C23.6546 28.2225 23.6751 28.1193 23.675 28.0152V24.4703C25.2871 23.7833 26.9056 23.0979 28.5209 22.4125V28.9673L22.882 32.2392L17.2431 28.9673V22.4125Z" fill="black"/>
</g>
<defs>
<clipPath id="clip0_28_18">
<rect width="48" height="48" fill="white"/>
</clipPath>
</defs>
</svg>
