<svg width="48" height="48" viewBox="0 0 48 48" fill="none" xmlns="http://www.w3.org/2000/svg">
<g clip-path="url(#clip0_28_24)">
<path d="M13.0933 14.9825C13.3927 14.0612 14.6961 14.0612 14.9954 14.9825L15.7379 17.2675C15.8717 17.6796 16.2557 17.9585 16.6889 17.9585H19.0915C20.0603 17.9585 20.463 19.1981 19.6793 19.7675L17.7356 21.1798C17.3851 21.4344 17.2384 21.8858 17.3723 22.2978L18.1147 24.5828C18.4141 25.5041 17.3596 26.2702 16.5759 25.7008L14.6321 24.2886C14.2817 24.034 13.8071 24.034 13.4566 24.2886L11.5128 25.7008C10.7291 26.2702 9.67463 25.5041 9.97398 24.5828L10.7164 22.2978C10.8503 21.8858 10.7036 21.4344 10.3532 21.1798L8.40941 19.7675C7.6257 19.1981 8.02847 17.9585 8.99719 17.9585H11.3998C11.833 17.9585 12.217 17.6796 12.3509 17.2675L13.0933 14.9825Z" fill="#66C97C"/>
<path d="M33.3114 14.9825C33.6107 14.0612 34.9141 14.0612 35.2135 14.9825L35.9559 17.2675C36.0898 17.6796 36.4738 17.9585 36.907 17.9585H39.3096C40.2783 17.9585 40.6811 19.1981 39.8974 19.7675L37.9536 21.1798C37.6031 21.4344 37.4565 21.8858 37.5904 22.2978L38.3328 24.5828C38.6322 25.5041 37.5777 26.2702 36.794 25.7008L34.8502 24.2886C34.4997 24.034 34.0251 24.034 33.6746 24.2886L31.7309 25.7008C30.9472 26.2702 29.8927 25.5041 30.192 24.5828L30.9345 22.2978C31.0684 21.8858 30.9217 21.4344 30.5712 21.1798L28.6275 19.7675C27.8438 19.1981 28.2465 17.9585 29.2153 17.9585H31.6179C32.0511 17.9585 32.435 17.6796 32.5689 17.2675L33.3114 14.9825Z" fill="#66C97C"/>
<path d="M24 45.4418C23.4125 45.4418 22.8864 45.1379 22.5928 44.6293L17.902 36.5043H6.12509C2.98892 36.5043 0.437592 33.9525 0.437592 30.8168V8.87927C0.437592 5.74351 2.98892 3.19177 6.12509 3.19177H41.8751C45.0109 3.19177 47.5626 5.74351 47.5626 8.87927V20.9096C47.5626 21.3587 47.1992 21.7221 46.7501 21.7221C46.301 21.7221 45.9376 21.3587 45.9376 20.9096V8.87927C45.9376 6.63937 44.115 4.81677 41.8751 4.81677H6.12501C3.88511 4.81677 2.06251 6.63937 2.06251 8.87927V30.8168C2.06251 33.0567 3.88511 34.8793 6.12501 34.8793H18.3708C18.6612 34.8793 18.9294 35.034 19.0746 35.2855L24 43.8168L28.925 35.2855C29.0702 35.034 29.3384 34.8793 29.6288 34.8793H41.875C44.1149 34.8793 45.9375 33.0567 45.9375 30.8168V28.3626C45.9375 27.9135 46.3009 27.5501 46.75 27.5501C47.1991 27.5501 47.5625 27.9135 47.5625 28.3626V30.8168C47.5625 33.9525 45.0108 36.5043 41.875 36.5043H30.0977L25.4076 44.6293C25.1132 45.1379 24.5875 45.4418 24 45.4418Z" fill="black"/>
<path d="M46.75 25.9624C46.3009 25.9624 45.9375 25.599 45.9375 25.1499V23.7542C45.9375 23.3051 46.3009 22.9417 46.75 22.9417C47.1991 22.9417 47.5625 23.3051 47.5625 23.7542V25.1499C47.5625 25.599 47.1991 25.9624 46.75 25.9624Z" fill="black"/>
<path d="M17.8205 27.6413C17.6079 27.6413 17.3941 27.5898 17.1965 27.4866L13.6267 25.6094L10.0577 27.4859C9.60185 27.7247 9.06065 27.6851 8.6457 27.3835C8.23035 27.082 8.02601 26.5797 8.11254 26.0727L8.79415 22.0983L5.90676 19.2839C5.53903 18.9252 5.40927 18.3992 5.56795 17.9104C5.72623 17.4224 6.14085 17.0726 6.64906 16.998L11.0631 16.3569C11.5042 16.2871 11.9192 16.5996 11.9839 17.044C12.0481 17.4875 11.7407 17.9001 11.2963 17.9644L7.45401 18.523L10.2347 21.2334C10.426 21.4199 10.5132 21.6888 10.4684 21.9523L9.8118 25.7792L13.2487 23.9725C13.4851 23.8471 13.7684 23.8471 14.0049 23.9725L17.4417 25.7792L16.7852 21.9523C16.7403 21.6889 16.8276 21.4199 17.0188 21.2334L19.7995 18.523L15.9572 17.9644C15.6922 17.9263 15.4637 17.7596 15.3451 17.52L13.6269 14.0383L13.3781 14.5429C13.1798 14.946 12.6925 15.1119 12.2898 14.9119C11.8872 14.7136 11.7222 14.2263 11.9205 13.824L12.4247 12.8021C12.6525 12.3411 13.1131 12.0555 13.6268 12.0555C14.1406 12.0555 14.6012 12.3412 14.8285 12.8021L16.6134 16.4179L20.6033 16.9979C21.113 17.0725 21.5276 17.4224 21.6859 17.9112C21.8442 18.3992 21.7145 18.9252 21.3463 19.2839L18.4593 22.0983L19.1409 26.0727C19.2274 26.5797 19.0231 27.082 18.6078 27.3835C18.3729 27.5542 18.0975 27.6413 17.8205 27.6413ZM38.5671 27.6413C38.3544 27.6413 38.1402 27.5898 37.9426 27.4866L34.3728 25.6094L30.8046 27.4859C30.3476 27.7255 29.8065 27.6859 29.3914 27.3827C28.9757 27.0804 28.7725 26.5782 28.8598 26.0719L29.5414 22.0991L26.6532 19.284C26.2859 18.9253 26.1557 18.3992 26.3136 17.9112C26.4723 17.4224 26.8865 17.0726 27.3958 16.998L31.3869 16.418L33.1714 12.8022C33.3992 12.3412 33.8594 12.0556 34.3727 12.0556C34.8869 12.0556 35.3471 12.3412 35.5748 12.8022L37.3593 16.418L41.3496 16.998C41.8597 17.0726 42.2739 17.4225 42.4326 17.9112C42.5905 18.3992 42.4604 18.9252 42.093 19.284L39.2048 22.0991L39.8864 26.0727C39.9737 26.5782 39.7705 27.0804 39.3548 27.3827C39.1199 27.5541 38.844 27.6413 38.5671 27.6413ZM34.3729 23.8787C34.503 23.8787 34.6323 23.9097 34.7513 23.9723L38.1878 25.779L37.5316 21.9521C37.4864 21.6887 37.5737 21.4197 37.7649 21.2332L40.546 18.5228L36.7033 17.9642C36.4382 17.9261 36.2098 17.7595 36.0915 17.5199L34.3737 14.0381L32.6551 17.5199C32.5369 17.7595 32.3083 17.9261 32.0433 17.9642L28.2006 18.5228L30.9817 21.2332C31.173 21.4197 31.2603 21.6886 31.215 21.9521L30.5588 25.779L33.9945 23.9723C34.1135 23.9097 34.2428 23.8787 34.3729 23.8787Z" fill="black"/>
</g>
<defs>
<clipPath id="clip0_28_24">
<rect width="48" height="48" fill="white"/>
</clipPath>
</defs>
</svg>
