<svg width="48" height="48" viewBox="0 0 48 48" fill="none" xmlns="http://www.w3.org/2000/svg">
<g clip-path="url(#clip0_28_48)">
<path d="M24 44.1563C20.0135 44.1563 16.1165 42.9741 12.8018 40.7593C9.48712 38.5445 6.90364 35.3965 5.37806 31.7135C3.85248 28.0304 3.45332 23.9776 4.23106 20.0677C5.00879 16.1578 6.92849 12.5663 9.74739 9.74739C12.5663 6.92849 16.1578 5.00879 20.0677 4.23106C23.9776 3.45332 28.0304 3.85248 31.7135 5.37806C35.3965 6.90364 38.5445 9.48712 40.7593 12.8018C42.9741 16.1165 44.1563 20.0135 44.1563 24C44.1503 29.3439 42.0248 34.4673 38.2461 38.2461C34.4673 42.0248 29.3439 44.1503 24 44.1563ZM24 6.65626C20.5697 6.65626 17.2165 7.67345 14.3643 9.57921C11.5122 11.485 9.28918 14.1937 7.97647 17.3628C6.66377 20.532 6.3203 24.0192 6.98951 27.3836C7.65873 30.748 9.31056 33.8383 11.7361 36.2639C14.1617 38.6895 17.2521 40.3413 20.6164 41.0105C23.9808 41.6797 27.468 41.3363 30.6372 40.0235C33.8063 38.7108 36.5151 36.4878 38.4208 33.6357C40.3266 30.7835 41.3438 27.4303 41.3438 24C41.3388 19.4017 39.5099 14.9931 36.2584 11.7416C33.0069 8.4901 28.5983 6.66122 24 6.65626Z" fill="black" stroke="#BAF0C6" stroke-width="0.75"/>
<circle cx="24.0938" cy="23.9062" r="17.7812" fill="white"/>
<path d="M13.6313 31.8C13.5788 31.8037 13.5262 31.8037 13.4738 31.8C13.2635 31.7762 13.0612 31.7053 12.8821 31.5927C12.7029 31.4801 12.5514 31.3286 12.4388 31.1494C11.1026 29.0047 10.3981 26.5268 10.4063 24C10.4102 20.3959 11.8437 16.9406 14.3922 14.3922C16.9406 11.8437 20.3959 10.4102 24 10.4063C26.5242 10.4001 28.9992 11.1045 31.1419 12.4388C31.3206 12.5514 31.4718 12.7029 31.584 12.8819C31.6963 13.0609 31.7668 13.2628 31.7904 13.4728C31.814 13.6828 31.79 13.8954 31.7203 14.0948C31.6506 14.2943 31.5368 14.4755 31.3875 14.625L14.625 31.3875C14.4948 31.5185 14.3399 31.6223 14.1694 31.6931C13.9988 31.7639 13.8159 31.8003 13.6313 31.8ZM24 13.2188C22.2361 13.2201 20.4995 13.654 18.9423 14.4823C17.385 15.3107 16.0547 16.5083 15.0678 17.9703C14.0809 19.4322 13.4675 21.1139 13.2815 22.8679C13.0954 24.6219 13.3424 26.3948 14.0006 28.0313L28.0369 13.995C26.7538 13.4786 25.3831 13.215 24 13.2188ZM24 37.5938C21.4764 37.6001 19.0019 36.8958 16.86 35.5613C16.6808 35.449 16.5293 35.2978 16.4166 35.1188C16.304 34.9399 16.2331 34.7379 16.2093 34.5278C16.1855 34.3177 16.2094 34.1049 16.2793 33.9053C16.3491 33.7058 16.463 33.5245 16.6125 33.375L33.375 16.6125C33.5245 16.463 33.7058 16.3491 33.9053 16.2793C34.1049 16.2094 34.3177 16.1855 34.5278 16.2093C34.7379 16.2331 34.9399 16.304 35.1188 16.4166C35.2978 16.5293 35.449 16.6808 35.5613 16.86C36.8962 19.0017 37.6006 21.4763 37.5938 24C37.5898 27.6041 36.1563 31.0594 33.6079 33.6079C31.0594 36.1563 27.6041 37.5898 24 37.5938ZM19.9631 33.9994C21.9255 34.7895 24.0769 34.9853 26.1496 34.5624C28.2224 34.1395 30.1251 33.1165 31.6211 31.6207C33.117 30.125 34.1402 28.2224 34.5634 26.1497C34.9866 24.077 34.7911 21.9256 34.0013 19.9631L19.9631 33.9994Z" fill="#66C97C"/>
</g>
<defs>
<clipPath id="clip0_28_48">
<rect width="48" height="48" fill="white"/>
</clipPath>
</defs>
</svg>
