<svg width="48" height="48" viewBox="0 0 48 48" fill="none" xmlns="http://www.w3.org/2000/svg">
<g clip-path="url(#clip0_28_30)">
<path d="M26.64 5.69999L33.2 44.59L42.66 43.14L40.01 20.7L39.22 16.24L35.38 2.89999L27.01 4.24999L26.64 5.69999Z" fill="#F2F2F4"/>
<path d="M14.85 4.25H5.37V44.8H14.85V4.25Z" fill="#F2F2F4"/>
<path d="M25.34 4.25H15.86V44.8H25.34V4.25Z" fill="#F2F2F4"/>
<path d="M14.86 9.17999H5.16V39.45H14.86V9.17999Z" fill="#66C97C"/>
<path d="M13.77 2.90001H6.82C5.42 2.90001 4.28 4.04001 4.28 5.44001V43.2C4.28 44.6 5.42 45.74 6.82 45.74H13.77C15.17 45.74 16.31 44.6 16.31 43.2V5.43001C16.31 4.03001 15.17 2.89001 13.77 2.89001V2.90001ZM6.82 4.66001H13.77C14.19 4.66001 14.54 5.01001 14.54 5.43001V8.39001H6.05V5.43001C6.05 5.01001 6.4 4.66001 6.82 4.66001ZM14.54 10.16V38.46H6.05V10.16H14.54ZM13.77 43.97H6.82C6.4 43.97 6.05 43.62 6.05 43.2V40.24H14.54V43.2C14.54 43.62 14.19 43.97 13.77 43.97Z" fill="black"/>
<path d="M22.83 11H18.76V37.84H22.83V11Z" fill="#66C97C"/>
<path d="M24.03 2.90001H17.08C15.68 2.90001 14.54 4.04001 14.54 5.44001V43.2C14.54 44.6 15.68 45.74 17.08 45.74H24.03C25.43 45.74 26.57 44.6 26.57 43.2V5.43001C26.57 4.03001 25.43 2.89001 24.03 2.89001V2.90001ZM24.8 43.2C24.8 43.62 24.45 43.97 24.03 43.97H17.08C16.66 43.97 16.31 43.62 16.31 43.2V5.43001C16.31 5.01001 16.66 4.66001 17.08 4.66001H24.03C24.45 4.66001 24.8 5.01001 24.8 5.43001V43.19V43.2Z" fill="black"/>
<path d="M21.78 9.99002H19.42C18.46 9.99002 17.68 10.77 17.68 11.73V36.91C17.68 37.37 17.86 37.81 18.19 38.14C18.52 38.47 18.95 38.65 19.42 38.65H21.78C22.74 38.65 23.52 37.87 23.52 36.91V11.73C23.52 10.77 22.74 9.99002 21.78 9.99002ZM21.75 36.88H19.45V11.76H21.75V36.88Z" fill="black"/>
<path d="M26.57 9.50001L36.63 7.17001L37.19 11L27.01 13.04L26.57 9.50001Z" fill="#66C97C"/>
<path d="M31.57 36.58L41.53 35.21L42.35 38.47L31.88 40.8L31.57 36.58Z" fill="#66C97C"/>
<path d="M43.68 41.55L40 20.7L38.26 21.01L40.63 34.45L32.27 35.92L28.32 13.5L36.68 12.03L37.48 16.54L39.22 16.23L37.13 4.35001C36.89 2.97001 35.57 2.05001 34.19 2.29001L27.34 3.50001C26.67 3.62001 26.09 3.99001 25.7 4.54001C25.31 5.09001 25.16 5.77001 25.28 6.44001L31.84 43.63C31.96 44.3 32.33 44.88 32.88 45.27C33.31 45.57 33.81 45.73 34.33 45.73C34.48 45.73 34.63 45.72 34.78 45.69L41.63 44.48C43.01 44.24 43.93 42.92 43.69 41.54L43.68 41.55ZM40.94 36.19L41.25 37.95L32.89 39.42L32.58 37.66L40.94 36.19ZM28.01 11.76L27.7 10L36.06 8.53001L36.37 10.29L28.01 11.76ZM27.15 5.57001C27.27 5.40001 27.44 5.29001 27.65 5.25001L34.5 4.04001C34.92 3.97001 35.32 4.25001 35.39 4.66001L35.76 6.77001L27.4 8.24001L27.03 6.13001C26.99 5.93001 27.03 5.72001 27.16 5.55001L27.15 5.57001ZM41.32 42.75L34.47 43.96C34.27 44 34.06 43.96 33.89 43.83C33.72 43.71 33.61 43.54 33.57 43.33L33.19 41.17L41.55 39.7L41.93 41.86C42 42.28 41.72 42.68 41.31 42.75H41.32Z" fill="black"/>
</g>
<defs>
<clipPath id="clip0_28_30">
<rect width="48" height="48" fill="white"/>
</clipPath>
</defs>
</svg>
