<svg width="48" height="48" viewBox="0 0 48 48" fill="none" xmlns="http://www.w3.org/2000/svg">
<g clip-path="url(#clip0_45_14)">
<g clip-path="url(#clip1_45_14)">
<path d="M7.6655 46.0854C7.45604 46.0854 7.24659 46.023 7.03713 45.8358C6.67057 45.5239 6.51348 45.0248 6.61821 44.5257L8.92226 34.1069C5.30909 30.5508 3.31923 25.9341 3.31923 21.0054C3.37159 10.4618 12.7449 1.91467 24.2651 1.91467C35.7854 1.91467 45.1587 10.5242 45.1587 21.0678C45.1587 31.6114 35.7854 40.2209 24.2651 40.2209C21.804 40.2209 19.3952 39.8466 17.0912 39.0355L8.29388 45.8982C8.08442 46.023 7.87496 46.0854 7.6655 46.0854ZM24.2651 4.41019C13.8969 4.41019 5.46618 11.8968 5.46618 21.0678C5.46618 25.435 7.35131 29.5526 10.8074 32.672C11.1216 32.9839 11.2787 33.483 11.1739 33.9821L9.39354 42.0302L16.3057 36.6648C16.5675 36.4776 16.8817 36.4153 17.1959 36.54C19.4476 37.3511 21.804 37.7878 24.2651 37.7878C34.6333 37.7878 43.0641 30.3012 43.0641 21.1302C43.0641 11.9591 34.6333 4.41019 24.2651 4.41019Z" fill="black"/>
<path d="M32.25 12.8365L24.75 15.5625L15.5 12.8365L15.5 27.375L24.75 31.5289L32.25 27.375L32.25 12.8365Z" fill="#66C97C"/>
<path fill-rule="evenodd" clip-rule="evenodd" d="M31.9193 13.9302L28.2485 15.2457C27.7273 15.4331 27.1574 15.1444 26.9769 14.6032C26.7974 14.061 27.0744 13.4702 27.5965 13.2827L32.5787 11.497C32.8826 11.3888 33.2181 11.4381 33.4811 11.6304C33.743 11.8228 33.9012 12.1347 33.9046 12.468L34.0521 27.0057C34.0563 27.4159 33.8271 27.7902 33.4678 27.9613L24.5105 32.2134C24.2537 32.3356 23.9577 32.3389 23.6985 32.2223L14.6569 28.1672C14.2942 28.0039 14.0574 27.6347 14.0533 27.2246L13.9057 12.6869C13.9023 12.3536 14.0541 12.0383 14.3121 11.8402C14.5711 11.6422 14.9056 11.5855 15.2116 11.6871L24.2428 14.7038C24.6532 14.8405 24.9322 15.2352 24.9367 15.6817L25.0526 27.1042C25.0585 27.6774 24.6152 28.1475 24.0632 28.1535C23.5113 28.1596 23.0586 27.6993 23.0528 27.1261L22.9444 16.4523L15.9202 14.1053L16.0463 26.5277L24.0833 30.1327L32.0454 26.3526L31.9193 13.9302Z" fill="black"/>
</g>
</g>
<defs>
<clipPath id="clip0_45_14">
<rect width="48" height="48" fill="white"/>
</clipPath>
<clipPath id="clip1_45_14">
<rect width="48" height="54" fill="white" transform="translate(0 -3)"/>
</clipPath>
</defs>
</svg>
