<?xml version="1.0" encoding="UTF-8"?>
<svg xmlns="http://www.w3.org/2000/svg" version="1.1" viewBox="0 0 273 129">
  <defs>
    <style>
      .cls-1 {
        fill: none;
      }

      .cls-1, .cls-2 {
        stroke: #6f6ac5;
        stroke-linejoin: round;
      }

      .cls-3 {
        fill: #332e87;
      }

      .cls-2 {
        fill: #6f6ac5;
      }
    </style>
  </defs>
  <!-- Generator: Adobe Illustrator 28.6.0, SVG Export Plug-In . SVG Version: 1.2.0 Build 709)  -->
  <g>
    <g id="Layer_1">
      <g id="Layer_1-2" data-name="Layer_1">
        <g>
          <path class="cls-2" d="M104.3,79.6c-4.9-.4-17.7-.4-17.9,9.8-2.3-3.6-5.6-4.2-8.4-3.8-4,.6-7.7,3.7-9.9,6-2.3,1.4-3.4,2.9-3.4,2.9,7.9,3,12.5,5.8,15.9,11,2.1-2.2,4.9-3.9,8-4.6.3,0,.5,0,.8-.2,1-.2,2-.3,3.1-.3,1.9,0,3.7.3,5.4,1,1.4-8,5.3-15.4,10.1-22.2-1.2,0-2.3.3-3.6.4h0Z"/>
          <circle class="cls-1" cx="87.9" cy="93.6" r="30"/>
        </g>
        <circle class="cls-1" cx="87.9" cy="93.7" r="34"/>
        <path class="cls-3" d="M73.1,10.1c.5.9.8,1.8.9,2.8.2,1.8,0,3.7-1.2,5.6-1.2,2.3-2.9,3.9-5.3,5-.4.1-.9.4-1.7.5-.2.1-.8.3-1.7.5-.9.3-1.7.5-2.4.6-3,.4-5.5.6-7.4.5-2.3,0-4.6-.2-6.8-.5-.6,0-1-.2-1.6-.2s-1,0-1.6-.2c0,.4-.3,1-.6,1.7l-1.6,4.2-.6,1.6-1.5,4.1c-.4,1-1,2.5-1.6,4.6-.2.4-.5,1.1-.9,2.2-.4,1.1-.7,2-.9,2.8,0,.7-.5,1.8-.9,3.1-.4,1.1-.7,2.2-1,3.2s-.5,1.7-.7,2.2c0,.2-.2.6-.3,1-.2.4-.3.8-.4,1.3l-.6,2.7c-.2,1.2-.6,2.6-1,4.2-.3,1-.6,2.6-.8,4.8,0,.7-.2,1.5-.3,2.4-.2,2.3-.2,4.2,0,5.7-.1,0-.3.3-.4.4-.1,0-.3.3-.4.4-2.3-.4-4-1.6-5.3-3.3-.7-1-1.1-2-1.5-3v-.5c-.2-.4-.2-.7-.2-1v-3.5c0-.3,0-.7.2-1.1.6-3.3,1.5-7.3,2.8-11.9l1-3.3,1.7-4.6,2.1-6.3c.7-1.7,1.2-3,1.6-3.9l.8-2,.9-2.6c.5-1.2.8-2,.9-2.1l2-4.6-.8-.3-8.1-1.5c-.4,0-1-.2-1.8-.4-.8-.1-1.5-.2-2-.2h-3.3c-1,0-1.8,0-2.5.2-1,.1-1.7.4-2.3.7-.7.3-1.9,1.2-3.6,2.4-1,.8-1.8,1.6-2.5,2.7s-1.3,2.3-2,3.8c-.6,1.6-1,3-1,4.1s0,1-.2,1.7c-.2,1.2-.2,2,0,2.6.3,1.3.6,2.2.9,2.9.2.7.6,1.3,1.3,1.9,1.1,1,2.4,1.4,3.8,1,1.7-.5,3-1.4,3.8-2.8,1.7-2.7,2.6-5.2,2.7-7.5,0-1.2,0-2.2-.3-3.1,0-.4-.3-.7-.8-1.1-.3-.2-.5-.3-.9-.5s-.7-.3-.8-.4c0-.6.2-1.1.8-1.4s1.6-.7,2.5-.8c1.1-.2,2.1,0,3,.4.8.4,1.5,1,2,1.8.7,1.1,1,2,1.2,2.9,0,.7,0,1.5-.2,2.3l-.6,2.2c-1.2,4-3.5,6.8-7,8.5l-1.2.7c-.2,0-.7.2-1.3.5-.6.2-1.1.4-1.6.5l-1.4.3c-1.2.2-2.7.2-4.4,0-1.7-.2-3.1-.8-4.5-2.1-1.2-1.1-2-2.3-2.7-3.7,0,0-.2-.6-.5-1.7-.2-.7-.4-1.5-.7-2.6,0-.7-.2-1.1,0-1.5.2-2.9,1-5.6,2.3-7.9.2-.3.6-1,1.2-2.1.6-1,1.2-1.9,1.9-2.6,1.9-1.8,3.6-3,5.4-3.8s3.1-1.3,4.1-1.6c1.9-.5,3.1-.8,3.5-.9h2.4c1.4-.2,3.4-.2,5.9-.2s4.5.2,8.1.5c.2,0,.6,0,1.1.2l3.4.5,1.8-3.2c.4.2,1.1.3,2,.7.9.3,1.6.6,2.3,1.2.6.5,1,1.2,1.4,2h4.4c1.3,0,2.6,0,3.9-.2l2.4-.3,2.4-.4c.8-.2,1.9-.5,3.3-1,1-.4,2.2-1.1,3.5-2.5,1.2-1.2,1.8-2.5,2-3.9v-2.7c2,.1,3.5,1,4.4,2.5l.3-.3h0ZM41.9,18.9h.2c0,.1,0-.2,0-.2,0,0,0,0,0,0l-.2.3h0ZM43.2,18.8h0ZM70.9,16.4c0-.4-.2-.7-.3-.7l-.8-.4,1.1,1.1h0ZM44.2,19.2h-.2v.3h.3c0-.1-.2-.3-.2-.3h.1ZM68.5,16.3v.7l1.2-.4c-.7-.2-1.1-.3-1.2-.3ZM41.5,20.2s.2,0,.4.1v-.2l-.3-.2v.2h-.1ZM42.9,20.3h.6s0-.2,0-.4l-.7.3h0ZM66.8,17.6c.2.1.4.2.5.2,0,0,0,0,.2-.3-.2,0-.5,0-.7.2h0ZM43.3,20.8h0v-.2h0c0,.1,0,0,0,0v.2ZM43.8,20.6h0ZM68.3,17.6l-.3-.3s-.2,0,0,0l.3.4.2-.3v.2ZM69.7,17.3h-.2.2ZM44.9,21.2c0-.2,0-.2.3-.3h-.2c0-.1-.3.2-.3.2l.2.2h0ZM66.1,18.1s.2.1.2.2l.3-.4-.4.2h0ZM69.1,17.6h.2c0-.1-.2-.1-.2-.1h0ZM42.4,21.3h-.2v.7l.8.3-.7-1h.1ZM41.4,21.9q.2,0,.3-.1h0c0-.1-.2.2-.2.2h0ZM69.3,18.8c.4,0,.6-.2.6-.5s.2-.5.2-.6h-.3c-.3,0-.4.2-.6.4,0,.2,0,.4,0,.8h.1ZM46.5,21.3s0,0,.4-.2l-.2-.2-.3.3h0ZM67.1,19.4c.2-.1.4-.2.5-.5v-.8s-.3.3-1.1,1.2h-.5s-.2,0-.4-.3c0-.2-.3-.2-.5,0,0,0,.3.7.8,1.6l.5-.5h1.3c0,.1-.6-.6-.6-.6h0ZM66,18.7v-.4h0v.4h0ZM64.3,19.3s.2.1.2.2h0c0-.2-.2-.2-.2-.2l-.4-.5-.2.5h.6ZM41.3,21.9q-.2,0-.3.1h0c0,.1.2-.1.2-.1h0ZM48.9,20.9v.4-.2c0,0,0-.2,0-.2h0ZM42.4,22h0ZM50.5,21v.2l.3.2v-.2l-.3-.2ZM41.4,22.3c-.2.1-.5.1-.8.2l.2,1.2.4-.3c0,.2,0,.3,0,.4h0l-.3-.4.2-1h0ZM69,18.6v.2h0v-.2h0ZM47.8,21.7h0v.2h0c0,.1,0-.1,0-.1v-.2h0ZM52.6,21.2h-.3.3ZM63,19.7c0,.2,0,.2.3.2s.4-.1.7-.3h-1ZM47.4,22.5c0-.4,0-.5-.2-.6h-.5l.6.5h.1ZM54.5,21.3l-.4-.3v.3c0,0,.3.2.3.2v-.2h.1ZM54.9,21.4h.5v-.5l-.5.5ZM6.8,27.5s.2,0,.2-.1h-.4c0,.1.2.1.2.1ZM57.8,21.5c.2-.3.3-.5.3-.7,0,0-.2-.2-.5-.2,0,.1,0,.4.2.9ZM49.7,21.8h0v-.2h0v.2ZM50.4,21.9s0-.1,0-.3h-.2c0,.1.2.4.2.4h0ZM52.9,21.3h0c0,.1,0-.1,0-.1h0ZM59.2,20.4c.4.4.8.6.9.6,0,0,0-.2.5-.5-.6,0-1.1,0-1.3-.1h-.1ZM58.9,21.5c0-.3,0-.6.2-1-.3.2-.4.4-.5.5,0,.2,0,.3.2.5h0ZM63.6,19.8c0,0-.3.2-.4.3,0,0-.2.1-.4.3,0,0,0,.2,0,.5h.6v-1h.2ZM65.2,20.2c-.3-.3-.6-.5-.8-.5v.6l-.4.2.3.6h-.2v.2h.3v-.2h-.2v-.8h1ZM6.1,27.5h0v.2h0v-.2ZM42.3,23.2v-.2c0,0-.3-.3-.3-.3,0,0,0,.2,0,.2l.3.3h.1ZM52.8,21.3h0v.2h0v-.2h0ZM56.9,21.4s0,0,.3-.1l-.3-.6h0l.2.7h-.1ZM39.9,24c.3-.1.6-.2,1-.2,0-.3,0-.5-.2-.8-.4.4-.7.7-.8,1ZM53.7,21.4s0,0-.2.1v.5h.4l-.2-.6ZM56.2,21.5v-.2h-.4v.2h.4ZM60.1,21.7c0-.2,0-.3,0-.4l-.4-.5v.7s.3.2.3.2ZM61.4,20.6s0,0-.2.1l.3.4v-.5h0ZM52.6,21.8h0ZM62.3,20.8h.4-.4ZM56.3,22.4s-.3-.2-.4-.3c-.2,0-.3-.2-.5-.3,0,.5.3.7.8.7h.1ZM55.3,22h-.2s0,0,0,0h.2c0,.1,0-.1,0-.1h0ZM61.2,21.2h-.2.2ZM61.8,21c0,.2.3.6.6.9l.4-.8h-1ZM5.8,29.2s.3-.1.5-.2.3-.2.3-.4h-.4q-.2,0-.4.3s0,.2-.2.5h0l.2-.2ZM58.7,21.6h0v.2h0v-.2h0ZM41,24.6l-.2-.5-.4.2c-.2.1-.3.2-.4.3v.2h1c0-.1,0-.2,0-.2ZM41.5,24.7h.4s0-.2,0-.2h-.3c0,.1,0,.2,0,.2ZM42.3,24.6h.2c0-.1-.2-.1-.2-.1h0ZM40.9,25.4v.2h.3c0,.1,0-.1,0-.1h-.3ZM6,30.7c0-.2,0-.4,0-.5h-.2l-.2.4h.4ZM39.4,26h-.2.2ZM40.4,26h-.2c0,.2,0,.1,0,.1h.2ZM5.7,31.4h0v.2l.3.2v-.2h-.2c0-.1-.1-.2-.1-.2ZM39.9,26.8h0c0,.1,0,0,0,0h0ZM39.8,27.4h0v-.2.2ZM4.4,32.4v.5h.2v-.6h-.2ZM41.5,27.6s0-.1,0-.2h0v.3h0ZM24.2,29.9c-.5.2-.6.5-.1.8l.5-.3-.4-.5ZM5.5,34.1c0-.2.3-.3.4-.4,0,0,.2-.2.3-.3-.3-.2-.4-.4-.5-.5h-.3c0,0,0,1.2,0,1.2ZM4.7,33.5h0v-.2h0v.2ZM40,28.7l-.8.7.7.2.4-.8h-.3ZM38.9,29.1v-.2h-.4v.2h.4ZM24.4,31.6v-.5c-.1,0-.5.6-.5.6h.5ZM24.1,32.6l-.5.6h.3c.2,0,.3-.2.3-.5h.2s.2,0,.4,0v-1l-.3-.3v.7c-.3-.2-.5-.3-.6-.4l-.6.4.8.3h0ZM39.3,29.9v.2h.4v-.2h-.4c0,.1,0,0,0,0ZM38.1,30.3h0c0-.1,0,0,0,0v.4l.4-.3h-.3ZM4.9,35.3v-.6l-.8.2v.2h.7c0,0,.1.2.1.2ZM39.5,30.5h.3-.3ZM5.4,35.9h-.2.2ZM37.9,31.7h0l.2.3h0l-.2-.4h0ZM38.7,32.9s0-.2.4-.3c0,0,.2-.3.3-.4v-.5c-.4.4-.6.9-.6,1.2h-.1ZM23.6,34.5h0ZM36.6,33.8h-.2.2ZM37.6,34.1h.2v-.4.4h-.2ZM23.9,35.6h0q0,0,0,0h-.2.2ZM39.2,33.5h-.2.3,0ZM23.5,35.6c0,.3,0,.6-.2.9h1.1c0,0-.9-.9-.9-.9ZM5.4,38.3h0ZM37.6,34.2h-.2c0,0,0,0,0,0h.1ZM5.9,39.4v-.6l-.4.2s.2.2.4.4ZM38.8,35.1v-.6h-.6c.3.3.5.5.5.6h0ZM36.5,35.5h.6v-.2h-.6c0,0,0,.1,0,.1h0ZM35.9,36.6c0,.3,0,.5.2.7h.2v-.8c0,0-.3,0-.3,0h0ZM37.7,36.8c-.2,0-.5.3-.8.6,0,0-.2.2-.4.2h0c0,0,.2,0,.4,0,0,0,.2,0,.3,0,0,0,.2,0,.4,0v-.9h0ZM35.5,38h.2-.2ZM37.1,38.3h0v.2h.2v-.2h-.2ZM34.8,38.7l-.3.8s.3.4.8,1.1l.2-.6-.8-1.3h0ZM36.1,40h-.2.2ZM34.1,40.8h.2-.2ZM34.7,41.2h0c0-.1,0-.2,0,0h.2c0,0-.2,0-.2,0ZM36,41.4v.2c0,.2.2.5.4.8l.3-.5-.7-.5ZM33.6,41.8s0,.3.2.6c0,0,.2,0,.2,0v-.5h-.5,0ZM34.8,42.2h.2-.2ZM34.4,43.4c0,.2.2.3.5.3l-.6-.7v.4h0ZM34.2,43.5c-.2.2-.4.3-.5.5,0,0-.3.2-.4.3h.4c.2,0,.4-.3.4-.7h0ZM35.9,43.8s0-.2,0-.2h-.5v.4h.5v-.2ZM35.2,45.8c0,0,.2-.3,0-.6v-.7c-.4-.2-.7-.2-1-.2,0,0,0,0-.2,0l-.3.3c.2,0,.5.2.8.4v.7c0,.2,0,.3.4.3v-.2h.2ZM33.1,46c-.5-.6-.7-.9-.7-.8v.8c0,0,.7,0,.7,0ZM33.3,45.4v.4c0,.2,0,.3.2.4,0,0,.2.3.3.4v-.5c0-.3-.2-.6-.5-.8h0ZM32.2,47.1c.3,0,.4-.3.4-.4,0,0,0-.3-.4-.6v.9h0ZM33,47s0,0,.2,0l-.3-.4s-.2,0,0,0l.2.4h0ZM34.8,46.3h0v-.2h0s0,0,0,.2h0,0ZM33.8,47.2l.3.3.2-.3-.5-.2v.2ZM32.5,47.3h-.2.2ZM33.2,48.3s0,0-.3,0h-.3c-.2,0-.3.2-.3.4l1.1.4v-.9h-.2ZM33.9,48.9h0ZM31.9,50.1h0v.4h.3s-.3-.4-.3-.4ZM32.9,50.3h-.2c0,0,0,0,0,0h.2ZM31.1,50.8v-.2h-.2c0,0,.2,0,.2,0h0ZM33.1,50.7h0-.2.1ZM32,50.9c-.3.2-.5.3-.7.4h.6c0,0,0-.4,0-.4h.1ZM32.7,51h0v.2h0v-.2ZM30.8,52.7s.2,0,.4,0v-.2c-.2,0-.3,0-.4,0v.2ZM32.8,53.4c.2,0,.4-.3.4-.7h-.6v-.4c-.4.3-.3.5,0,.4v.8h-.3c-.2.2-.4.4-.4.6h.2c.4,0,.6-.3.5-.7,0,0,.2,0,.2,0ZM31.9,53.4h0q0,0,0,0h0ZM31.4,53.8v-.2h-.5v.2h.5ZM30.4,54.5h0ZM31.2,54.6h-.3c0,0,0,.1,0,.1h.3ZM31.9,54.5h0ZM31.9,55.7h.5v-.7l-.4.7h-.1ZM30.3,55.9c.3.2.6.3.7.4q.2,0,.3-.3s-.2-.2-.2-.4c-.4-.2-.7,0-.8.3ZM29.4,56.7c.3.2.3.3.3.3.2-.3.3-.4.3-.4v-.2l-.7.3h.1ZM30.6,56.9h0c0,0,0,0,0,0h-.2.2ZM31.5,57.2c.3,0,.4-.2.5-.2,0,0,0,0-.1-.2l-.4.3v.2h0ZM31.5,57.5h.2-.3,0ZM28.6,58.3h0v.2-.2ZM30.4,59.4c.2-.3.2-.5.2-.8s-.1-.4-.3-.6c-.3.3-.4.6-.4.7,0,0,.2.4.5.7ZM30.7,58.1v.2h.4v-.2h-.4ZM29.5,59.7h0v-.2h0v.2ZM30.6,60.3l-.3.3h.2c0,0,.3-.2.3-.2h-.2ZM31.1,60.2v.5h.1v-.4h-.1ZM28.7,61.2c-.4.3-.3.5,0,.8.1,0,.2-.3.2-.4,0,0,0-.2-.1-.4h-.1ZM30.3,61.4s0,0,0,0h-.2.2ZM29.3,63.4s.1-.2.2-.2c.5,0,.6-.5.3-1l-.4.8s0,.2-.1.2,0,0,0,0v.2ZM28,62.9s0,0,0,0h.2-.2ZM30.3,64.2h-.2c0,0-.3.3-.3.3h.2l.3-.3ZM29.2,65.5c0-.2.1-.4.2-.6v-.5h-.2c0,0-.6.6-.6.6l.5.5h.1ZM28.2,65h0s0,0,0-.2h0v.2h0ZM28.8,65.8h-.2v.4l.2-.3h0ZM30,66.1c-.1,0-.2,0-.4,0,0,0-.2,0-.1,0v.6l.4-.7h.1ZM28.9,67.9l.7-.4v-.2l-.9-.2s.2.8.2.8ZM30.2,69.6c-.2,0-.3,0-.6,0-.2,0-.5.2-.9.6h1.3v-.6h.2Z"/>
        <path class="cls-3" d="M76.2,43c.2,0,.4,0,.8,0,.4,0,.7,0,1,.3.2,0,.4.3.5.6v.7l-1.9,3.5s0,.2-.3.3c0,0-.2.3-.3.3,0,.5-.3,1-.7,1.5-.4.5-.7,1-.9,1.2l-1.3,1.9c-.5.8-1.1,1.7-1.7,2.6l-1.2,1.6c-.2.3-.6.8-1.2,1.6s-1.1,1.5-1.7,2l-1.4,1.4c-.7.8-1.3,1.4-1.9,1.9-1.1.8-2.3,1.4-3.4,1.5-1.1,0-2.1-.3-2.9-1-1.1-1-2.2-2.3-2.9-3.9-.3-.7-.6-1.2-.6-1.9,0-.8,0-2,.4-3.5.2-.9.3-1.5.5-1.9,0-.2,0-.4.2-.6,0-.2,0-.3.2-.4,0-.2.2-.5.3-.9.2-.4.3-.7.3-1.1.2-1,.4-1.9.9-2.9s.6-1.6.7-1.9c.2-.4.5-1,.8-1.9l.7-2c.4-1.1.7-2.1,1.1-3l.9-2.2c0-.2,0-.3.2-.5v-.2c-.4,0-.9.2-1.7.3l-2.8.3c-.5,0-1.1.2-2,.4-.2.4-.3.9-.6,1.5-.2.7-.5,1.4-.9,2.1-1.1,2.6-2,4.4-2.6,5.6-.2.5-.7,1.3-1.2,2.3l-.9,1.5c-.4.6-1,1.1-1.9,1.4h-.2c-.2,0-.5,0-1.1-.4,0,0,0-.3,0-.5,0-.4,0-.8.4-1.3.3-.3.5-.8.8-1.3.2-.5.4-.8.4-1l1.7-3.5c.4-.9.7-1.5.8-1.7.4-.7.8-1.7,1.2-2.9l.7-1.7c-.2,0-.5-.2-1-.4-.4,0-.7-.2-1-.4-.9-.7-1.4-1.7-1.6-3-.2-1.8,0-3.8,1-5.9.4-1,.8-1.8,1.2-2.4.3-.6.7-1,1.3-1.5s1.1-.7,1.5-.7h3.2c.7,0,1.4.3,1.9.9s.7,1.3.7,2c-.2,1.7-.7,3.6-1.4,5.7,0,.4-.4.8-.7,1.4,0,0,.2.2.2.4.7-.3,1.9-.5,3.3-.7,1.4-.2,2.6-.3,3.3-.4,1,0,2.3.3,3.9,1.3,1,.6,1.6,1.4,1.7,2.6-1,2.3-1.8,4.4-2.4,6.1-.2.5-.5,1.5-1.1,3.1l-.6,1.7-.6,1.9v.2c-.2.3-.4.7-.5,1.2-.2.5-.2.8-.3,1,0,.7-.2,1.3-.5,1.9-.4.7-.6,1.6-.7,2.6,0,.9,0,1.5-.2,1.7,0,.4-.2,1.1,0,2,.2,0,.4,0,.7,0,.2,0,.6-.2,1.1-.5,0,0,.6-.5,1.2-.9.6-.5,1.2-1,1.5-1.6,0,0,0-.2.3-.4.8-.7,1.6-1.5,2.2-2.2.6-.8,1.5-1.9,2.4-3.3.3-.4.4-.8.6-.9.4-.3.7-.7,1-1.1.3-.4.5-.8.6-.9.5-.6,1-1.6,1.8-3,0,0,.3-.3.9-1.1l.2-.5-.2-.2ZM52.7,24.7v.2h.4v-.2l-.4-.2v.2ZM54.5,26.1l.2-.7-.3-.2-.2.7.3.2ZM51.6,26.2h.2s0-.2,0-.4h0v.4c0,0,0,0,0,0ZM55.4,25.4s-.3.4-.6.9l.9-.4-.2-.6h-.1ZM53.6,26.8s-.2-.1-.3-.2c0,0-.2,0-.3-.1l.2,1.1.4-.8h0ZM55.9,26.1h.2c0,.1,0,0,0,0h-.2ZM54.8,26.8c0-.2-.2-.4-.5-.4,0,.2,0,.3,0,.4,0,.1.2.2.4.2v-.2ZM52.6,27.6c-.2-.3-.4-.4-.4-.4,0,0-.2.2-.4.4h.8ZM55,27.3h0v.2h0c0,.1,0-.2,0-.2ZM56,27.2h.2-.2ZM50.9,28.5c.2-.3.3-.3.3-.3h-.2c0-.1-.3.3-.3.3h.2ZM53.5,28.2v-.5h-.5s.2.1.5.4h0ZM52.1,28.1s0,.2-.4.5h.5v-.5h0ZM54.7,28.3s0,0,0,0h0s0,0,0,0h0ZM53.7,28.6h-.2c0,.1,0,0,0,0h.2ZM55,28.7h-.2v.3h.3v-.3h0ZM52.6,30.1c.5,0,1-.4,1.2-.9l-1.2.6-.5-.5v.8h.5ZM51.2,29.6h-.3c0,.1.3.1.3.1h0ZM51,30.4h0ZM50.1,30.6h0ZM52.5,30.9s-.2-.1-.6-.2v.2l.5.3v-.2h0ZM53.3,30.6h0q0,0,0,0h0v.2-.2ZM51.3,30.7h0v.2h0v-.2ZM54.1,30.3h0ZM55.2,30.3s0,0,.3-.1h-.4v.2h.1ZM51.3,31.7v-.7l-.5.5.5.2ZM53.6,30.9h-.2l-.3.8.8.5-.4-1.3h.1ZM50.5,31.7h0v.2s0,.2.2.4.2.4.3.6l.2-.5-.7-.7ZM52.2,31.7c0,.2.3.2.5,0h-.9c0-.1,0,.1,0,.1h.4ZM54.4,31.7v.6h.2v-.6s-.2,0-.2,0ZM52.3,32.7l.3-.3-.2-.2-.3.4.3.2h0ZM51.6,32.3h0c0,0,0,0,0,0h0ZM54.1,32.6h0c0,0-.4,0-.4,0v.3h.4v-.2ZM50.2,33h0c0,0,.2,0,.2,0h-.3,0ZM51.1,32.8v.4h.2v-.4h-.2ZM51.5,33.6h0v-.2h0v.2h0,0ZM53.2,33.2h0ZM53.9,33.1h-.2c0,0,.2,0,.2,0ZM65.3,34.6s0-.2.2-.3c0,0,0,0-.2,0,0,0,0,.4,0,.4ZM65.4,35.4h-.2.2ZM64.7,36.1v-.4h-.5l.5.4ZM64.3,36.5h0q0,0,0,0h0ZM65.6,36.9c0-.2,0-.5,0-.5,0,0-.2,0-.4.2,0,0,.2,0,.3.2,0,0,.2,0,.3.2h-.1ZM64.2,38.5s.2-.3.6-.8l-.4-.4h-.4s.2,1.2.2,1.2ZM62.9,38.5v-.2h-.3c0,0,.3,0,.3,0h0ZM64.9,38.3h0ZM64.4,39.1c.2,0,.3,0,.4,0h0l-.3-.4v.2h0ZM62.5,40.1h.2l.2-.7h-.3v.6c0,0-.1.1-.1.1ZM65.1,39.8s-.3,0-.5,0v.2h.5v-.3ZM62.9,40.6l-.2-.3h0v.5l.3-.2h0ZM64.5,41h-.8c.3.2.3.3.4.3,0,0,0,0,.4-.3ZM62.4,41.8h0ZM63.3,42.8s0,0,.2,0h0l-.5-.5v.4c0,0,.2.4.2.4v-.2ZM61.8,42.9v-.4h0v.4h0ZM64.3,43h0c0,0,0,0,0,0h0ZM61.8,44.3v-.9c0,0-.6.5-.6.5l.6.4ZM61.2,45.4c-.2,0-.4-.2-.5,0,0,0,0,.2,0,.5.2-.3.3-.4.3-.4h.1ZM61.1,46.1h0ZM63.1,46s0,0,0-.2h0v.3h0ZM60.9,46.9c-.2,0-.4.2-.6.5l.8.2.6.2h.2c0,0,0,0,0,0h-.2l-.3-.7c.2,0,.3-.3,0-.5v.5h-.5v-.2ZM62.4,47.5s0,0,0-.2l-.2.3h.3ZM61.5,48v.2q0,0,.1,0v-.3h-.1ZM61.2,48.7h-.7c-.2,0-.3,0-.3.4l1-.4h0ZM62.1,48.5h0v.3h.2v-.3h-.2ZM58.9,49.5h0ZM60.9,49.3v.5h.4c-.3-.2-.4-.3-.4-.4h0ZM58.9,51.1c.3,0,.3-.2,0-.5v.5ZM59,51.9v-.8c0,0-.8.5-.8.5l.8.3ZM60.1,51.3s0,0-.2,0l.7,1.7c.2-.4.4-.7.4-.8l-.7-.5-.2-.5ZM58.9,52.2v.2h0v-.2ZM60.7,53.3h-.2v.4h.2l.2-.4h-.2ZM57.7,53.7h-.2.2ZM58.8,53.7h0ZM57.9,54.3h0ZM60.6,54.1h0ZM59.8,54.9s0,0,0-.3h0v.4h.2,0ZM60.3,55.7h0ZM58.7,56.2c.2,0,.3,0,.4,0h-.3v.2h-.1ZM58.8,56.7h0v-.2h0v.2ZM58.4,56.7h0ZM60.3,57.2s-.2,0-.2-.2v.3h.2ZM57.4,57.6h0ZM59.3,57.5s-.2,0-.4,0v.2h.4v-.2h0ZM60.2,58.1h-.2c0,0-.2.3-.2.3h.2c0,0,.3-.3.3-.3h0ZM58.6,58.2l-.4.3s0,.2,0,.2l.4-.3v-.2h0ZM59.4,59.4h-.3.3ZM61.7,60.5c0-.5-.3-.7-.2-.7-.4-.2-.7-.2-1-.3l.4,1h.8ZM59.7,60.6h-.2s0,0,0,0h.3,0ZM60.4,61.1c.6,0,.8,0,.6-.5h-.5l-.2.5h.1ZM63.7,60.8h0ZM62.8,61.9q-.2,0-.4,0s-.2,0-.2,0v.2l.6.2v-.2h0,0Z"/>
        <path class="cls-3" d="M103.2,39.6c1.2,0,1.9.5,2,1.3,0,.4,0,.9-.3,1.4l-1.3,2.1-.9,1.4c-1.3,2.1-1.8,3-1.8,2.9-.5.8-1.2,1.8-2,2.8-.2.2-.5.6-1,1.4-.2.3-.5.7-.7,1-.5.6-1.2,1.4-2.2,2.5-1,1-1.8,1.7-2.5,2.3-2.3,1.9-4.6,3.3-6.9,4.2-.2,0-.5,0-1,.2-.6,0-1.1,0-1.4,0-1.5,0-3-.5-4.7-1.5-1.5-1-2.7-1.9-3.3-2.8-.6-.8-.9-1.4-1-2.1,0-.5-.2-1.1-.3-2,0-.8,0-1.6,0-2.2,0-.6.2-1.3.4-2,.3-1.4.5-2.2.7-2.6,0-.3.3-1.1.7-2.3.4-1.1.9-2.1,1.4-3.1,0-.2.3-.3.3-.5s0-.3.2-.4c.7-1.9,1.7-3.6,3-5.4l.9-1.3c0-.2.3-.3.5-.6,0-.2.3-.4.5-.7.9-1,1.8-2,2.9-2.9,1.3-1.1,2.7-1.8,4.2-2h1.7c2.7.2,4.8,1.4,6.2,3.7.5.9.8,1.7.9,2.4.2,1.1,0,2.3-.5,3.6-.7,2-1.9,4-3.5,5.7-.7.8-1.4,1.4-2.2,2.1-.6.5-1.2.9-1.8,1.2,0,0-.2,0-.4.3-.2,0-.4.2-.4.3-.5.5-1.1.8-1.7.9-.8.2-1.4.3-1.9.4h-1.6c-.4,0-.9,0-1.4-.3-.6-.2-.9-.3-1.1-.4-.5,1.4-.9,3.3-1,5.7v.8c0,.8.5,1.5,1.2,2.1.6.6,1.4.8,2.1.7.4,0,.7-.2.9-.3.2,0,.3-.2.4-.2,1,0,2-.3,2.8-.8s1.8-1.2,3.1-2.1c1.7-1.5,3.6-3.4,5.5-5.6,1.3-1.4,2.2-2.5,2.7-3.2.3-.3.7-.9,1.1-1.5.5-.6.8-1.2,1.2-1.8.3-.6.5-1.2.7-1.7l.5-.7h.5v-.2c0,0-.4-.3-.4-.3ZM86.7,32.3h0c0,0,0,0,0,0t0,0h0ZM84.1,42.4c-.6,1.1-1.1,2.5-1.7,4.2h.3c2.3-.5,4.1-1.4,5.4-2.5l2.3-2.2c1.2-1.1,1.9-2,2.2-2.9,0-.2,0-.3.3-.6.5-.5.9-1.4,1-2.4v-1.2c0-.9-.6-1.6-1.4-2.1h-.5c-.4,0-.9.3-1.5.7-1.3,1-2.3,2.2-3,3.3l-1.3,2.1c-1,1.6-1.8,2.8-2.2,3.7h0ZM86.6,33.4h0v.2h.5l-.5-.2h0ZM85.6,33.7h-.2c0,0,.3,0,.3,0h-.1ZM85.5,34.5c.3,0,.6.2.8.4l-.4-.8s-.4.4-.4.4ZM84.3,34.6h0v-.2h0v.2ZM85.9,35.8h-.3.3ZM83.2,36.8h0c0,0,.4-.2.4-.2,0,0,0-.2,0-.2l-.4.4h0ZM84.6,36.5h0,0ZM84.9,36.8v.4-.2c0,0,0-.2,0-.2ZM82.4,37.3c-.4.2-.4.4,0,.6,0,.4.2.4.5.3l-.5-.3v-.6ZM82.9,37.6h.5s.2,0,.3.2c0,0,.2,0,.2-.2h-.9c0,0,0,.1,0,.1h0ZM81.6,38.4s0,0,.2,0h-.3.1ZM82.5,38.8s-.2,0-.4,0v.2c0,0,.4-.4.4-.4h0ZM82.4,39.7s0,.2,0,.4l.5-.5h-.2c0,0-.5,0-.5,0h0ZM81.5,40.1h-.2.2ZM80.5,41.1s0,.2,0,.3c0,.2,0,.3.3.4l.7-.5-.9-.2ZM82.4,40.9h0c0,0-.2,0-.2,0h.2ZM81.6,42.6h.2l-.2-.6h-.2l.2.6ZM79.1,43v-.2h0v.2ZM80,43.1h0v-.2h.2l-.2.2ZM81,42.8h.2-.2ZM79.6,44.6c.4,0,.5-.2.6-.4,0,0,0-.3,0-.5l-.4.9h0ZM78.1,45.1l.7.7.3-.9-1,.2ZM80.4,45.9h0l-.4.2.3.2c0-.2,0-.3,0-.4ZM77.8,46.6c.4.3.7.5.7.5h.4c-.2-.3-.4-.5-.5-.6h-.6ZM79.6,46.8l.3.3h0c0-.2-.2-.3-.3-.4h0ZM77.6,47.8h0ZM79.1,48.7c.3,0,.4-.4.4-.7-.4.2-.6.5-.4.7ZM78.9,48.8c-.2,0-.3.3,0,.6l.3-.7h-.2ZM77.8,49.3h0v.2h0v-.2ZM78.4,50.8c0,0-.2-.2-.3-.3v.2c0,0,.3.3.3.3v-.2ZM77.3,51.3h0v.2h0v-.2ZM78.6,51.5h.3l-.3-.2v.2ZM78.9,52.3c.2,0,.4,0,.5,0l-.4-.6v.7h0ZM76.1,53l.3-.3h-.2c0,0-.2.2-.2.2h0ZM79,53.1c0-.2,0-.3.2-.4l-.2-.4c0,0-.2.2-.2.3,0,.2,0,.3,0,.4,0,0,0,0,0,.2h0ZM78,52.9c-.2-.2-.3-.3-.5-.2-.2,0-.3.2-.4.6,0,0,.9-.4.9-.4ZM77.9,53.7h.3-.3ZM77.9,54.4l-.2.4h.2l.2-.3h-.2ZM77.8,55.6l-.2-.4c-.2,0-.4.2-.5.4v.5l.6-.4h0ZM78.7,55.3v.2q.2,0,.3,0h-.3ZM79.3,56.3h-.2.2ZM78.3,56.6v.2h0v-.2h0ZM79.4,56.8h.2c0,0,0,0,0,0h-.2ZM80.3,57.4q-.2,0-.3,0h.3v-.2h0ZM83.5,58.9h0ZM81.2,59.5h-.2v.3h0v-.3h.2ZM84,60.1h0Z"/>
        <path class="cls-3" d="M137.8,34.9c.7-.2,1.2-.2,1.5,0s.6.6,1,1.4l-1.9,3.4c-.5.9-1.3,2.3-2.4,4-.2.3-.8,1.2-2,2.7l-1.4,2c-.2.3-.5.6-.8,1.1s-.7,1-1.2,1.2c0,0-.3.3-.5.5-.8,1.2-1.9,2.4-3.4,3.7-.3.3-.5.5-.6.6-.4.5-.8.8-1.3.9l-2,1-3-.6c-.6-.6-1-1-1.2-1.2-1.7-1.4-2.6-3-2.8-4.7v-1.9c0-1.4.5-3.2,1.2-5.2,0-.7.4-1.3.5-1.9.2-.6.3-1.1.4-1.5v-.2s0-.2,0-.3l-2.3,3.4s-.8,1.3-2.2,3.4l-1,1.5c-.3.7-.6,1.2-.8,1.4-.4.8-1.1,1.8-1.8,3-.9,1.6-1.7,2.9-2.5,3.9-.2.3-.3.6-.6,1.1-.2.4-.4.7-.4,1,0,0,0,.2-.3.5-.2.3-.4.4-.7.6-1-.2-1.9-.5-2.3-.8-1.7-.8-2.8-2.1-3.4-3.9v-.5c0-.4,0-.9,0-1.5,0-.6.2-1.1.3-1.5l.8-2.9.8-3.2,1.3-4.5c.3-.9.5-1.8.9-2.8l.6-1.9c.8-2.5,1.6-4.7,2.5-6.5.2-.3.3-.7.4-1.1,0-.3,0-.6.3-1,0,0,.4-.7,1.1-1.9h.3c.4,0,.7,0,1.1.1.3.2.6.2.7.3.2,0,.3.2.6.3.2.1.4.3.7.4.6.3,1.1.7,1.5,1.1.3.4.5.9.6,1.6,0,0,0,.3-.2.6,0,.2-.2.6-.3.9l-2.6,9.3-.3.7c-.3.9-.7,2-1,3.2l-.7,2.3v.7h0c.5-.5.9-1,1.3-1.7s.6-1.2.8-1.4c.2-.4.6-1,1.1-1.9.6-.9,1.1-1.6,1.6-2.2.5-.6,1.1-1.4,1.5-2.4.6-1,1-1.5,1-1.6.5-.5.9-1.2,1.4-2,.4-.8.8-1.3,1-1.6,0,0,.9-1.4,2.4-3.7l3.3-5.1c1.5.3,2.7.7,3.6,1.1.8.4,1.5,1.3,1.9,2.4,0,.2-.2.5-.3.9-.2.4-.3.7-.5,1.1l-1.6,4.6v.2c-.5.7-.9,1.7-1.3,3.1-.3.9-.5,1.6-.7,2.3-.4,1-.9,2.2-1.2,3.7l-.5,1.7-.9,3.8c0,.6-.2,1.1,0,1.4v.3c0,.2,0,.5.2.6.2,0,.4,0,.5,0,0,0,.4-.2.9-.4s.9-.5,1.3-.8.6-.6.9-1c.5-.6.9-1.1,1.4-1.4.8-.6,1.4-1.4,2.2-2.5.2-.4.4-.8.6-1,.2-.3.4-.5.6-.8l1.3-1.6c.9-1,1.7-2.1,2.4-3.2,0,0,.6-1,1.6-2.6l.6-.9.3-.3.2.6ZM125.8,27v-.3h0v.3h0ZM111.2,29.6v-.2h-.6v.2h.6ZM111.8,29.3c-.2.3-.3.6-.3,1l.2.9c.4-.3.4-.5.3-.7,0-.1-.2-.2-.2-.3,0-.2,0-.5,0-.8h0ZM126.1,27.8h-.2c0-.1,0,0,0,0h.3-.1ZM125.4,28.7h0l-.2-.7-.4.2.5.5ZM109.2,30.8h0ZM110.2,30.9h-.2.2ZM110.8,30.8h0ZM126.7,28.6h-.2.2ZM108.8,31.3h0ZM124.4,29.2s0,0,0,0v-.2h0v.2ZM108.8,31.8h-.3.3ZM123.3,29.9h0ZM123.6,30.5s0,0,.4-.2h0c0-.1-.8.1-.8.1l.5.2h0ZM109.1,32.4h-.2v.2h0v-.2h.2ZM125.9,30.8v-.2l-.6.2h.6ZM126.6,30.6l.2.2v-.3h-.2ZM109.5,33h0v.2h0l-.2-.2h0ZM111.5,33.4v-.2c0,0-.2,0-.2,0,0,0,0,0,0,0l.3.2h0ZM125.8,31.3s0,0,0,0h-.2.2ZM108.2,34.2c.2,0,.3,0,.4,0v-.5l-.3.6h0ZM122.6,31.8h.2-.2ZM123.3,31.8v-.2q-.2,0-.3.1h.3ZM126.4,31.3s0,.1,0,.3h0v-.3h-.2,0ZM109.6,33.9h0ZM124,32h0c0,0,.3,0,.3,0h-.4,0ZM122.1,32.7v-.2h-.4v.2h.4ZM110.4,34.3h0ZM123.1,32.5h-.2.2ZM123.6,32.6h-.2.2ZM126.6,32.2h0ZM121.6,33.6c.2,0,.3-.2.2-.3,0,0-.2-.2-.4-.3v.6h.2ZM110.3,34.7h0ZM107.8,35.3h0ZM109.9,35h-1.7c.4,0,.7,0,1,.2.2,0,.5,0,.8-.2h-.1ZM124.3,33.5v-.3h-.2v.3h.2ZM123.2,33.7h0c0,0,0,0,0,0h.2-.2ZM125.7,33.3h-1c0,.4.2.5.4.5s.4,0,.6-.2v-.3ZM123.5,33.6h0c0,0,0,0,0,0h-.2.2ZM120.4,34.3h0ZM109.1,36.4c-.2,0-.5-.2-.7,0,0,0-.4,0-.7.3l.3.4,1.2-.5h-.1ZM110,36.2h0v.4h0v-.4ZM122.7,34.9c0-.2,0-.4-.2-.4l-.4.2.7.2h0ZM124.9,34.5c-.4,0-.5,0-.6.2s0,.2,0,.5l.3-.3h0s.3-.4.3-.4ZM109.5,37.8c0-.3,0-.6.2-.9l-.8.2s.6.7.6.7ZM108.6,37.3c-.2,0-.5,0-1.1.2.5.2.9,0,1.1-.2ZM121.4,35.6h0v.2h-.2v-.2h.2ZM123.8,35.5h0ZM110.3,37.8h.2c0-.1,0-.2,0-.3s0,0,0-.2h-.2l-.2.4h0ZM123.4,35.7h0v.2h-.2v-.2h.2ZM121.4,36.3h-.2s-.2,0-.4,0l.6,1.2h.2c.3,0,.6,0,.8.4h0c.2,0,.4-.3.5-.4s0-.3,0-.5l-.5.3-1-1h0ZM108.7,38h0ZM125,36.3s.3.2.6.4l-.3-.9s-.3.5-.3.5ZM106.5,38.9c.2,0,.3,0,.5.2,0,0,.2,0,.3.2v-.2c-.4-.3-.6-.5-.6-.5l-.3.3h0ZM109.8,39.2c0-.4,0-.6-.2-.8,0,0,0,.2-.5.6l.7.2ZM108.2,38.7v.3c0,0,.5.3.5.3v-.8c0,0-.5,0-.5,0h0ZM107.3,39.6h.4-.4ZM108.1,40.1c.3.2.4.3.6,0,0-.2,0-.2.2-.3l-.4-.3-.3.5h0ZM110,40.1h-.2c-.2.2-.3.2-.3.2,0,0,.2,0,.2,0l.3-.3ZM122,39.1h.2v-.7h0v.7h0ZM106.5,40.6h0ZM123.7,38.2c.4.5.6.5.8,0h-.8ZM108.3,40.9s-.2,0-.5,0c-.2,0-.3.2-.4.6l.9-.5h0ZM108.2,41.3l-.4.7h.5l-.2-.7h0ZM123.3,39.7s0-.2,0-.4h-.2v.4h.3ZM107.5,42.4c0-.4-.4-.5-.9-.5l.8,1v-.5h0ZM121.4,40.5h0c0,0,0,0,0,0h0ZM108.8,42.5h0ZM107,44.2c-.3-.2-.7-.3-.9-.3,0-.4-.2-.7-.3-.8h-.5v1c0,0,1.3.4,1.3.4l.3-.2h.1ZM108.1,43h-.7l.3.6.4-.5h0ZM122,41.8c.5,0,.8-.4.8-.9l-1.2.2c.2.4.3.7.4.7ZM106.5,43.2v.2s.2,0,.4,0h-.4ZM121.3,41.9h0ZM108.1,43.9h-.5c.2.2.3.4.3.4l.2-.3h0ZM123.7,41.7h0ZM122.5,42.1h-.5v.2h.5v-.2ZM107.5,44.6l.3-.3h-.4v.3h0ZM105.7,44.6h0q0,0,0,0h0ZM121.6,42.6h0ZM105.1,45.3v-.2h-.5v.2h.5ZM107.6,44.8h0ZM106.4,45.4c-.2,0-.4.3-.6.5,0,.2-.3.4-.4.7h.4v.7c.8-.3,1.2-.5,1.2-.5v-.2h-1.2s.2-.3.4-.4.3-.3,0-.6h0v-.2ZM107.4,45.3v.2c0,0,.2.3.2.3v-.2c0,0-.2-.2-.2-.2h0ZM105.2,46.9s0-.3,0-.5c0,0-.2,0-.4,0l-.7-.5c0,.5.3.7.3.8l-.4.3.9.7.2-.2c0-.2-.2-.4-.2-.5l.4-.3h0ZM119.7,43.9c.2.2.4.3.5.3s.3-.2.4-.4h-.9ZM122.4,44.1h.3c0,0-.3,0-.3,0h0ZM119.2,44.6h0v.5h0v-.5ZM122.5,44.7h-.8c0,.5.3.7.3.7,0,0,.2-.3.6-.8h0ZM120.3,45.7c0,.3.3.3.5,0h-.5l.3-.5h-.8c0,.2.3.4.5.5ZM103.9,47.8h0ZM106.2,47.8h.4c0,0-.4,0-.4,0h0ZM104.9,48.2h-.2.2ZM121.3,46.5v-.2c0,0-.2,0-.3,0h0l.3.3ZM104.2,49s0,0,.2,0c0,0,.2,0,.2,0l-.2-.2-.3.2v.2c0,0,0,0,0,0h.1ZM107,49.3c.5,0,.6-.3.4-.8l-.3.4v.5h0ZM104.8,49.3h0v-.2.2h0ZM105.8,49.2v.6c.2-.2.4-.3.6-.4,0,0-.6-.2-.6-.2ZM120.5,47.4s-.2,0-.2,0l-.2.5h.2l.3-.4h-.1ZM109,49.2h-.2c0,0,0,0,0,0h.2ZM105.4,49.6h0ZM107.9,49.4v.2h.4v-.2h-.4ZM118.7,48.3v.2h.3l-.2-.2h-.1ZM119.1,48.4h0ZM105.5,51.1v-.3s0-.2,0,0h-.4v.2l.5.3h-.1ZM106.8,50.3v.2c.3,0,.6.2.7.2v-.3c0,0-.6,0-.6,0h0ZM121.2,48.4h0v.4h0v-.4ZM104.2,50.9s0,0,0,0v-.2h0v.2ZM106.3,50.6s0,.2,0,.7h.8c0,0-.6-.7-.6-.7h-.1ZM121.7,48.9h0ZM119.7,49.5h-.2.2ZM104.5,52.3v-.2h-.4v.2h.4ZM108.2,51.7h0ZM107.1,52.2l-.4.7,1.1-.2-.8-.5h.1ZM105.1,53.1h.6c.1,0,0-.2,0-.4l-.6.5h0ZM122.5,50.8c0,.2,0,.5,0,.5h0v-.5h-.2,0ZM120.9,51.2h-.2c0,0,0,0,0,0h.2ZM121.6,51.2v.5h.2v-.5h-.2ZM104.8,53.9s0-.2,0-.4h-.2v.4h.3ZM105.5,55.1c.3-.3.3-.7,0-1.2l-.3,1.2h.3ZM103.7,54.5h0ZM107,54h0ZM123.6,52h-.5s0,.2,0,.5c0,0,0-.2.4-.5h0ZM125.1,52.4h0c0,0-.3.2-.3.2l.2.3.3-.4h-.2ZM122.2,52.8h0v-.2h0v.2ZM123.3,53.2h.4v-.5h0c-.4,0-.5,0-.4.5ZM104.7,55.3h0ZM125,53.3c-.2,0-.5-.2-.8,0h-.5c0,.4,0,.6-.2.7l1.4-.7h0Z"/>
        <path class="cls-3" d="M173.7,29.9c.7.3,1.2.8,1.6,1.7-1,1.9-1.7,3.3-2.3,4.2-1.3,2.1-2.2,3.7-2.9,4.8-.3.4-.5.8-.8,1s-.5.6-.7.9c0,0,0,0-.2.2,0,0-.1.2-.2.3l-1.3,1.8c-.8,1.1-1.4,2-1.8,2.5-1.1,1.3-2.2,2.5-3.2,3.3s-2,1.6-3.2,2.2c-.4.3-.7.3-1,.3-2-.4-3.4-1.2-4.3-2.3-.2-.3-.5-.6-.8-1-.4-.3-.6-.6-.7-.8-.3-.6-.5-1.2-.6-1.8-.1-.4-.2-1.1-.4-2l-1.1,2.1-1.2,1.9c-.2.3-.4.8-.8,1.2-.3.4-.6.9-1,1.5s-.5.6-.9,1.2c-.5.6-.9,1-1.4,1.4,0,0-.2.2-.4.3s-.3.3-.6.4c-1,0-1.8-.3-2.5-.4-1.8-.5-3.2-1.8-4.2-3.9-.2-.4-.4-.9-.7-1.6-.2-.6-.3-1-.4-1.4-.1-.2-.1-.5-.2-.9,0-3,.5-5.8,1.6-8.5l1.7-4.3c0-.2.1-.4.3-.7l.9-1.8c1.3-2.3,2-3.5,2.2-3.6,0-.2.4-.8,1.2-1.6.3-.3.8-.7,1.1-1.3.3-.4,1-1.1,2-2.1.8-.6,1.3-1.1,1.5-1.4.2-.2.6-.4,1.1-.5.7-.3,1.5-.5,2.2-.6,2.1-.3,3.9.5,5.7,2.3l.4.3,1.2-3.4,1-2.3c.6-1.6,1.6-3.9,2.8-7.1.5-1.2.9-1.9,1-2.1.7-1.3,1-2.2,1.2-2.9,0-.2.2-.6.4-.8.6-1.1,1-2.1,1.2-3.2l.7-.3c.3.1.7.3,1.2.5s1.1.5,1.7.8c1.2.6,1.9,1.5,2.1,2.6l-3.1,7.2-2.2,5.7-.7,2-1.2,3.2-1.3,4c-.1.3-.3.7-.5,1.1s-.4,1-.6,1.5l-2.2,7c-.1.3-.3.8-.6,1.6-.3.7-.4,1.5-.6,2.1-.2.9-.4,1.8-.6,2.7-.2,1-.3,1.8-.3,2.6v1c.2,0,.4,0,.7,0,.4,0,.7-.2,1-.4,1.2-.8,2.4-1.8,3.4-3,2.6-3.1,4.7-5.7,6.4-8,.2-.3.3-.5.4-.8,0-.2.2-.4.4-.7.6-1,1.4-2,2.1-3,0,0,.2-.2.4-.3.2-.1.3-.1.4-.1l.4-.4h.1ZM168.1,4.8v-.2c-.3,0-.6,0-.8.2v.5l.8-.6h0ZM169,5.4h-.3.3ZM168.2,5.9v.4h.2v-.4h-.2ZM167.4,7c0,.5.1,1,.3,1.4v.2h0v-.2h0l.6-1.3h-.9ZM165.7,8.5h0ZM166.8,8.2c-.2.3-.3.3-.3.3h.2c0,.1.2-.3.2-.3h-.2.1ZM167.5,9.6l.2-.3-.3-.2-.2.2.3.3ZM166.5,9.5h0v.2h0v-.2ZM166.2,10.2v-.2h-.6v.2h.6ZM165,11.1v-.4h-.2v.4h.2ZM167.2,11v.3h.1v-.3h-.1ZM164.1,11.6s0,0,0,0h0s0,0,0,0h-.2.2ZM165.8,11.4h0c0,.1,0,0,0,0h0ZM166.8,12h0ZM165.3,12.3h0v.2h0v-.2ZM164.3,12.8v-.3h-.1v.3h.1ZM166.3,12.7v.2h0v-.2ZM163.5,14.4h0ZM165.9,14.5s-.2,0-.3-.1c0,0-.2,0-.3-.1l-.2.8c.1,0,.4-.3.9-.6h0ZM164.1,14.8v.2s0,.2-.1.4l.7-.5h-.6,0ZM164.3,16.2v-.6l-.3.3.4.3h0ZM162.2,16.7s.2-.1.4-.1h0c0-.1-.4-.1-.4-.1v.4-.2ZM164.7,17.5l-.3.2.5.2s-.2-.4-.2-.4ZM161.5,18.5h0ZM162.7,18.9l.2.5v-.5h-.2ZM161.7,19.5h0ZM163.3,20.5c.4-.1.5-.5.2-.8l-.2.8ZM160.7,20.7c.4.3.6.3.7-.2l-.7.2ZM151.1,23s0-.2.1-.3l-.6-.4-.4.8h.9ZM151.8,22.7h0ZM148.9,23.4h0c0,.1.3-.1.3-.1h-.2c0-.1-.2.2-.2.2h0ZM161.7,21.7h0c0,.1,0,.2,0,.1v-.2h0ZM150.4,23.6h0ZM148.4,24s0,.3-.2.6l.6-.3-.4-.3h0ZM150,24.8l.3-.4-1-.2.7.7h0ZM159.9,23l.3-.3h-.5c0,.1.2.1.2.1v.2ZM162.6,22.7h.2s-.1-.2-.1-.4h-.2v.4ZM157.2,24.4c-.6-.6-1.4-.9-2-.8-.4,0-.8.2-1.1.5-.5.4-.8.7-1.1.8-.8.6-1.5,1.3-2.1,2.1-1.4,2-2.4,3.7-3.2,5.5-1.7,3.8-3,7.2-3.7,10.2-.2,1-.4,2.6-.5,4.8l.9.7c.6-.5.9-.7,1-.8l2.2-3c.7-1.2,1-1.8,1.1-1.9.1-.2.2-.5.4-.8s.4-.7.6-1.1l.9-1.7c0-.2.4-.7.8-1.4.4-.8.8-1.5,1.1-2.3.1-.2.3-.6.6-1,.2-.4.4-.7.5-.9.2-.4.4-.8.7-1.4.2-.5.6-1.1.9-1.7l2.2-5.5-.2-.3ZM161.8,22.8c-.4-.2-.7,0-.7.3.2.1.4.2.6,0,0,0,.1-.2.2-.4h-.1ZM159.7,23.7s-.2.2-.3.3c0,0-.2.1-.3.2l1,.9.2-.3-.6-1.1h0ZM147.1,25.6v.2c-.1,0,.6.5.6.5,0,0,0-.2.1-.2l-.7-.5ZM161.3,24.6c.2-.1.4-.1.8-.2l-.3-.7-.5.6v.3ZM148.8,26.5s.2-.2.3-.2l-.5-.5h-.1l.3.7ZM146.2,26.9c.3.4.4.7.5.8l-.8.3q0,.2.1.3h.9v-1.7c-.3.1-.5.2-.7.2h0ZM148.4,26.8c-.1.2-.3.4-.5.6l-.5-.2.2.9.3-.7.7-.3c-.1-.2-.2-.3-.3-.4h.1ZM159.7,25.8v.2q.3,0,.4-.1h-.4ZM161.9,25.6v.3c.1,0,0-.3,0-.3h0ZM160.7,26h.2v-.2h-.2v.2ZM158.9,26.9s0-.2.1-.2l-.3-.3h-.1l.4.4h0ZM160.7,27.6c.4-.3.5-.5.4-.7s-.1-.4-.1-.4l-.2,1.2h0ZM147.3,29.2v-.2l-.3.2h.3ZM159,27.9s0,.2-.1.3l.5.2v-.2l-.4-.3ZM144.3,30.1h0ZM144.7,29.9h0c0,.1,0,0,0,0ZM160.5,27.8h-.2.2ZM158,28.8v-.2c.1,0-.3-.3-.3-.3t0,0l.4.3v.2ZM143.7,30.5c0,.1.1.4.2.6h.2v-.6h-.4ZM145,30.8l.3-.2v-.2s0,0,0,0l-.4.3h.2-.1ZM146.6,30.2h-.4.4ZM142.9,30.9c0,.1.1.3.1.5h.2c0-.2,0-.5-.1-.5h-.2ZM160.8,28.7h.2-.2ZM145.2,31.2h0v.2h0v-.2ZM159.1,29.3c-.5.3-.9.5-1.2.8h.6c.4,0,.6-.3.6-.8h0ZM143.1,32.7h0ZM141.7,33.3c.4.3.9.5,1.4.7h.3c0,0-.5-.8-.5-.8h-.9c0,0-.4.2-.4.2h0ZM144.2,33.4v-.3h-.1v.3h.1ZM156.9,31.6h0v.2h0v-.2ZM158.6,31.3v.2h.2-.2v-.2ZM144.4,33.8h.3c0,0-.3,0-.3,0h0ZM158.3,32.2h0v-.2h0v.2h0ZM142.8,34.6h.4v-.2h-.4v.2ZM159.9,32.2h.3-.3ZM159.3,32.5c-.2,0-.4.3-.5.7.5,0,.7-.3.6-.7h-.2,0ZM144.4,35.3c0-.2-.1-.4-.4-.4s-.4,0-.5-.2l-.2.4,1,.2h0ZM159.9,32.6h0ZM156.6,33.6l-.4-.2v.2c-.1,0,.4.2.4.2v-.2ZM140.6,35.6c.2,0,.4.2.6.3.2,0,.3.2.4.3l-.2-.6h-.8c0,0,0,0,0,0ZM158.9,34s.3.2.7.4l.3-1-1,.6ZM142.9,36.1c0,0-.1-.2-.2-.2v.2c-.1,0,.2,0,.2,0ZM157.5,34h0ZM156.5,34.3h0ZM141.2,36.5l-.2.3h.2c0,0,.3,0,.3,0l-.3-.2ZM155.2,35.1c.3.4.5.7.7.9v-.4c0-.3-.3-.5-.8-.5h.1ZM142.5,37h0ZM140.7,37.5h0c0,0,.2,0,.2,0h-.3.1ZM158.7,35.4v-.2c.1,0-.2-.3-.2-.3,0,0-.1,0-.1.2.3.2.3.3.3.3ZM142,37.4h0s.2,0,.2,0h-.2ZM154.5,35.7h-.4v.2h.3v-.2h0ZM142.7,37.4h0v.3h0v-.3ZM140,38h-.2.3-.1ZM157.7,35.9h.2v-.4h-.1v.4h0ZM156.5,35.8h.3c0,0-.3,0-.3,0h0ZM155.2,36.5h.6l-.7-.4v.4h0ZM141.6,38.6l.3-.3-.2-.2-.3.3v.2h.2ZM142.9,38.2v-.2h0v.2ZM157.2,36.6c-.2,0-.4,0-.6,0s-.3,0-.4.3h1v-.2ZM140.8,39.2c-.2-.2-.3-.3-.5-.2-.2,0-.3.2-.5.5.2,0,.4.2.7.2l.3-.4h0ZM142.4,39.3v-.5l-.7.2v.4h.7ZM154.8,37.3h-.2.2ZM158.4,37.7l-.4-.3-.2.3.4.3.2-.3ZM154.4,38.4s.1,0,.1-.2l-.3-.2h-.1l.3.4ZM155.9,37.8h-.3v.2h.3v-.2ZM140.8,40.5h.2c0,0,.3-.3.3-.3h-.2c0,0-.3.3-.3.3ZM142.6,40.4h.2c0,0,.2-.5.2-.5h-.2l-.3.5h.1ZM152.9,38.8c.1.3.3.5.4.6.2-.5.4-.7.4-.7h-.8,0ZM154.3,38.7l-.5.5h.5v-.5ZM155.4,39.8h.1c-.1-.3-.2-.5-.3-.7,0,0-.1-.3-.2-.4l-.4.4.8.7h0ZM140.3,42c-.5-.6-.7-.8-.8-.9,0,.5.3.8.8.9ZM156.3,38.9h-.3.3ZM142,41.3h-.7c-.2.8-.3,1.2-.3,1.2l1.1-.5-.5-.3.4-.4ZM154.9,39.8h-.4c0,0,.4,0,.4,0h0ZM152.3,40.4v.2h0v-.2ZM156.7,39.8h-.2c0,.2,0,.3.1.4h.2v-.4ZM140.4,42.2s-.1,0-.3,0h-.4c-.2,0-.3.2-.3.4h1.3l-.3-.5ZM138.5,42.6h0ZM155.6,40.8h0v-.2h0c0,0,0,0,0,0v.2ZM141.8,42.8h0v.2h0v-.2ZM157.4,40.9c-.1,0-.4,0-.6.2v.3l.6-.3v-.2ZM139.7,43.4h0ZM154.8,41.3h0ZM152.9,41.7v.2c-.1,0,.3.3.3.3l.2-.3-.4-.3h0ZM138.6,43.8c.1.2.2.6.2,1l.5-.6-.7-.4ZM141.9,43.6h0ZM156.9,42.1h.2l.2-.3h-.2c0,0-.2.3-.2.3ZM155.9,42.1s-.2,0-.4,0v.2h.4v-.2h0ZM152.6,42.7h0v-.2h0v.2h.1-.1ZM142.1,44.4c-.4-.2-.7-.3-.8-.3,0,0-.2,0-.4.3h1.2ZM154.4,42.7l-.6.7v.2c.1,0,.8-.7.8-.7l-.2-.2ZM140.8,45.4c-.1-.4-.2-.5-.4-.6-.2,0-.4,0-.6.2l1,.3h0ZM156,43.2h0ZM155,43.5h.1-.1ZM141.7,45.8h-.2v.2h.1v-.2ZM155.5,43.9s0,0,0,0h-.2.2ZM156.1,44h0v-.2h0v.2ZM141.3,46.1s0,0,0,0h0ZM141.3,46.5h0v.2h0v-.2ZM155.2,44.7h0c0,.1,0,.2,0,.2h0v-.2ZM156.6,44.5h-.2l-.2.3.3.2v-.5h0ZM157.4,44.5h0c0,0-.3,0-.3,0h0c0,0,.3,0,.3,0ZM140.7,47h0v-.2.2ZM139.9,46.9c-.1,0-.2.2-.3.3,0,0,.1.2.4.3v-.7h0ZM155.1,46c.2-.3.3-.3.3-.3h-.2c0,0-.3.3-.3.3,0,0,.2,0,.2,0ZM141.3,47.6s-.2,0-.4,0h0c0,0,.3,0,.3,0v-.2h0ZM156,45.7h0ZM156.9,45.6l.2.9.2-1h-.4ZM142.1,47.8h.2-.2ZM155.8,46.5h0ZM155.1,46.7h0ZM141.2,48.7h0v.2h0v-.2ZM141.7,48.6v.2c-.1,0,0,0,0,0v-.3h0ZM158.8,46.5s-.1,0-.1.2h0c0,0,.3-.2.3-.2h-.4v-.2l.2.2ZM142.4,49.3s.2-.3.4-.4h-.4s0,0-.1.2c0,0,0,.2-.1.2h.2c0,0,0,0,0,0h0ZM156.4,46.9h-.2s0,0,0,0h0v.2h0v-.2h.2ZM144.2,48.8h0ZM156.6,48s.1-.2.2-.6h-.2l-.2.4h.2v.2ZM159.4,47.6s.1-.2,0-.3c0,0,0,0-.1-.2-.5.5-.8.9-1,1.1h.3c.2,0,.5-.2.7-.6h.1ZM145.6,49.1c-.2,0-.4,0-.5,0,0,0-.3,0-.5.3v.3c.1,0,1-.5,1-.5h0ZM157.3,47.5v.2-.2h0ZM144,49.3h0c0,0,.1,0,.1,0h-.2,0ZM142.1,49.6c-.2,0-.3,0-.4,0h0c0,0,.3,0,.3,0v-.2h0ZM160.1,48c0-.2.2-.3.3-.4h-.2c0,0-.3.3-.3.3h.2ZM143.6,50.3h-.2.2ZM159.4,48.5s-.2,0-.2,0v.3c-.1,0,0,0,0,0l.2-.3ZM158.5,48.4s0,0,0,0c0,0,0,0-.1,0l.3.4h.1l-.2-.5h-.1ZM145.1,50.5h0ZM159.8,48.6h0Z"/>
        <path class="cls-3" d="M185.2,14.8c-1-.3-1.9-.5-2.6-1-.8-.4-1.3-1.1-1.6-1.9.4-4.4,1.7-8.4,3.8-11.8h.4c.7-.2,1.3,0,2.1.4,1.4.7,2.3,1.6,2.7,2.9,0,0,.1.4.2.6v.7l-1,2.8-1.3,2.8-1.8,3.3-.8,1.2h0ZM186.5,3h0c0,0,.4,0,.4,0h-.2c0,0-.3.2-.3.2h.1ZM185.9,4s.3,0,.7-.2l-.8-.4v.6h.1ZM185.8,4.6v.2h0v-.2ZM186.9,4.8s0,0,0,0h0ZM184.7,5.2v.5c.1,0,.6-.3.6-.3l-.6-.2ZM187.4,5h.3-.3ZM184.6,6.7h0ZM185.1,6.5h0v.2h0s0,0,0,0h0v-.2ZM186.2,6.5h0v.2h0v-.2h.1-.1ZM185.6,7.5l-.9-.6v.8c.1,0,.9,0,.9,0h0ZM187.3,6.6l-.6.2v.3c.1,0,.7-.4.7-.4h0ZM183.9,7.8v.9h.2v-.8c.1,0,0,0,0,0h-.1ZM187.1,7.4h0ZM184.8,8.4h0v-.2h.2l-.2.2ZM184.8,10.4v-.3h-.2v.3h.2ZM183.8,11.2l.5.4v-.5h-.5ZM193.1,27.3c.7.4,1.2.8,1.4,1.5-.1.2-.6,1.1-1.3,2.6-.7,1.5-1.6,2.8-2.5,4.1l-5.1,7c-1.1,1.5-2.6,3.2-4.5,5.2-.5.6-1,1-1.3,1.3l-2.4,1.4c-.4,0-.8-.2-1.2-.4-.4,0-.9-.2-1.4-.4,0,0-.4-.3-1-.7,0,0-.3-.2-.4-.3,0,0-.2-.2-.3-.3-1.1-.7-2-2-2.7-3.7,0,0-.1-.4-.2-.8,0-.5-.1-.9,0-1.2,0-1.4.3-2.8.7-4.3.4-1.4,1-3.1,1.7-5,.4-1.1.6-1.6.6-1.9s.2-.6.3-.9.2-.7.3-1l.9-2.3c.8-1.9,1.6-3.9,2.5-6.2l1.7-4.6.5-.4,2,.7c.9.3,1.8,1,2.7,2,.1.2.3.6.6,1.2-1,2.1-1.7,3.8-2,5.2-.1.3-.2.7-.4,1s-.3.7-.4,1l-.5,1.8s0,.2-.1.4c0,.2-.1.3-.2.6-.2.3-.4.9-.6,1.6-.3,1-.5,1.8-.7,2.6-.3.7-.4,1.4-.6,1.9-.1.4-.3,1.1-.6,2.1-.3,1.1-.6,1.9-.7,2.9-.1.9-.2,1.7-.1,2.5,0,0,0,.2.1.2l.3.2c.2,0,.3,0,.4,0,1.9-1.1,3.2-2.3,4-3.4l.8-.8c1.2-1.2,2.8-3.1,4.8-5.9.8-1.3,1.7-2.5,2.4-3.7l1.2-1.9.3-.4h1v-.4ZM180.2,20.1c.2,0,.6.1,1.2.2l.4-.7-1.4.2-.2.4h0ZM179.2,21.8h0ZM179.8,21.7s0,0,0,0v.2h0v-.2ZM179.5,22.4h.2-.2ZM180.4,22.8v-.3h-.2l.2.2h0ZM180.6,23.6v-.5.5ZM180,23.8v-.2l-.3-.3v.2c-.1,0,.3.2.3.2h0ZM178.8,24.1v-.4h-.4v.4h.4ZM178.7,24.9l-.5-.4-.2,1,.8-.6h-.1ZM178.8,25.6v.7h.2v-.6h-.2ZM177.5,26h.2-.2ZM178.5,26.1c-.5,0-.7.2-.6.5.3-.2.5-.4.6-.5ZM178.2,27.1l-.4-.3-.3.4h.7ZM176.7,27.1h0v.2h0v-.2h.1-.1ZM177.4,28.7s-.2-.1-.3-.3c-.2-.1-.3-.2-.4-.3,0,0-.2,0-.4.1.2.2.4.4.5.5h.6,0ZM178.9,27.9h-.3.3ZM178.5,28.6c0,.3-.2.6-.2.7h.2l.2-.7h-.2ZM176.8,29.1h0c0,.1,0,0,0,0h0ZM178.9,29.4h0ZM176.8,31h.5v-.2h-.6v.2h.1ZM176.6,31.6c-.3-.3-.5-.5-.6-.6v1.4s.6-.8.6-.8ZM177.9,31.9c-.3-.4-.5-.4-.7-.1h.7ZM175.4,32.9c.4.3.6.5.6.5l-.3-.8-.3.4h0ZM177.3,32.5v-.2h-.3c0,0,.3.3.3.3h0ZM176.7,33.4h.2v-.6h-.2c0,0,.1.6.1.6h-.1ZM175.6,33.7l-.2-.2v.2c-.1,0,.2,0,.2,0ZM177.6,33.4h0s0,0,0-.2h0s0,0,0,0h0v.2ZM175.1,34.2h0ZM174.6,34.4l-.3.3h.5c0,0-.3-.3-.3-.3h.1ZM177.6,34h-.2.2c0,0,.1-.1.1-.1h-.1ZM176.3,34.5h-.2.2ZM177.8,34.5h0ZM175.8,35.3v-.3h-.3c0,0,.3.3.3.3ZM176.3,35.6c0-.2-.2-.3-.5-.2v.6c-.1,0,0,0,0,0l.5-.5v.4h.3l-.3-.4h0ZM173.9,37.4c.2,0,.4,0,.5,0l.3-.3s0,0-.2,0l-.6.5h0ZM176.1,37h0ZM176.6,38s.2,0,.2,0,0,0,.1,0l-.3-.2s0,0-.1,0,0,0,0,.2q0,.2.1.2h0ZM173.8,38.2h.2q0,0,0,0h-.2ZM176,39.7c-.1-.4-.2-.7-.5-.8-.2,0-.3,0-.4-.2h-.8c0,0,1.7,1,1.7,1ZM173.1,40h.3v-.3h-.4v.3h0ZM175.1,41.6l-.2-1.1-.8.3,1,.8ZM173.3,40.9l.2.6s.1,0,.4-.2l-.5-.5h-.1,0ZM176.2,40.6h-.2.2ZM173.4,42.3l-.4.7.8-.3-.4-.4h0ZM174.1,44c.7-.3,1.2-.9,1.5-1.7l-1.2.6s-.1.4-.2,1.2h-.1ZM174.2,44.3l-.4.3.2.2.4-.3-.2-.2ZM175.2,44.9c.4,0,.8,0,1.3,0h.3c0,0-.7-.6-.7-.6q0,.2-.2.3s-.2,0-.4,0c-.2,0-.3,0-.3.4h0ZM177.5,45h0ZM175.3,45.4v.5s0,0,0,0h0q0,.1,0,0h0l.5-.6h-.5ZM177,46.3l.3.4.2-.6s-.5.2-.5.2ZM178.4,46.2c-.1,0-.4,0-.6.2v.2h.6v-.4ZM176.3,47c.2,0,.4-.2.4-.2v-.2c-.3,0-.5.2-.5.2,0,0,0,.2.1.2Z"/>
        <path class="cls-3" d="M226.6,23c.7-.2,1.2-.2,1.5,0s.6.6,1,1.4l-1.9,3.4c-.5.9-1.3,2.3-2.4,4-.2.3-.8,1.2-2,2.7l-1.4,2c-.2.3-.5.6-.8,1.1s-.7,1-1.2,1.2c0,0-.3.3-.5.5-.8,1.2-1.9,2.4-3.4,3.7-.3.3-.5.5-.6.6-.4.5-.8.8-1.3.9l-2,1-3-.6c-.6-.6-1-1-1.2-1.2-1.7-1.4-2.6-3-2.8-4.7v-1.9c.1-1.4.5-3.2,1.2-5.2.1-.7.4-1.3.5-1.9.2-.6.3-1.1.4-1.5v-.2s-.1-.2,0-.3l-2.3,3.4s-.8,1.3-2.2,3.4l-1,1.5c-.3.7-.6,1.2-.8,1.4-.4.8-1.1,1.8-1.8,3-.9,1.6-1.7,2.9-2.5,3.9-.2.3-.3.6-.6,1.1-.2.4-.4.7-.4,1,0,0-.1.2-.3.5s-.4.4-.7.6c-1-.2-1.9-.5-2.3-.8-1.7-.8-2.8-2.1-3.4-3.9v-.5c0-.4,0-.9.1-1.5,0-.6.2-1.1.3-1.5l.8-2.9.8-3.2,1.3-4.5c.3-.9.5-1.8.9-2.8l.6-1.9c.8-2.5,1.6-4.7,2.5-6.5.2-.3.3-.7.4-1.1,0-.3.1-.6.3-1,0,0,.4-.7,1.1-1.9h.3c.4,0,.7,0,1.1.1.3.2.6.2.7.3.2,0,.3.2.6.3.2.1.4.3.7.4.6.3,1.1.7,1.5,1.1.3.4.5.9.6,1.6,0,0-.1.3-.2.6,0,.2-.2.6-.3.9l-2.6,9.3-.3.7c-.3.9-.7,2-1,3.2l-.7,2.3v.7h-.1c.5-.5.9-1,1.3-1.7.4-.7.6-1.2.8-1.4.2-.4.6-1,1.1-1.9.6-.9,1.1-1.6,1.6-2.2s1.1-1.4,1.5-2.4c.6-1,1-1.5,1-1.6.5-.5.9-1.2,1.4-2,.4-.8.8-1.3,1-1.6,0,0,.9-1.4,2.4-3.7l3.3-5.1c1.5.3,2.7.7,3.6,1.1.8.4,1.5,1.3,1.9,2.4,0,.2-.2.5-.3.9-.2.4-.3.7-.5,1.1l-1.6,4.6v.2c-.5.7-.9,1.7-1.3,3.1-.3.9-.5,1.6-.7,2.3-.4,1-.9,2.2-1.2,3.7l-.5,1.7-.9,3.8c-.1.6-.2,1.1-.1,1.4v.3c0,.2.1.5.2.6.2,0,.4,0,.5,0,0,0,.4-.2.9-.4s.9-.5,1.3-.8c.3-.3.6-.6.9-1,.5-.6.9-1.1,1.4-1.4.8-.6,1.4-1.4,2.2-2.5.2-.4.4-.8.6-1,.2-.3.4-.5.6-.8l1.3-1.6c.9-1,1.7-2.1,2.4-3.2,0,0,.6-1,1.6-2.6l.6-.9.3-.3.2.6ZM214.6,15.1v-.3h-.1v.3h.1ZM199.9,17.7v-.2h-.6v.2h.6ZM200.6,17.4c-.2.3-.3.6-.3,1l.2.9c.3-.3.4-.5.3-.7,0-.1-.2-.2-.2-.3-.1-.2,0-.5,0-.8h0ZM214.9,15.9h-.2c0-.1,0,0,0,0h.3-.1ZM214.2,16.8h.1l-.2-.7-.4.2.5.5h0ZM198,18.9h0ZM199,19h-.2.2ZM199.6,18.9h0ZM215.5,16.7h-.2.2ZM197.6,19.4h0ZM213.2,17.3h0v-.2h0v.2ZM197.6,19.9h-.3.3ZM212.1,18h0ZM212.4,18.5s.1,0,.4-.2h0c0-.1-.8.1-.8.1l.5.2h0ZM197.9,20.5h-.2v.2h0v-.2h.2ZM214.7,18.9v-.2l-.6.2h.6ZM215.4,18.7l.2.2v-.3h-.2ZM198.2,21.1h0v.2h.1l-.2-.2h0ZM200.3,21.5v-.2c.1,0-.2,0-.2,0,0-.1,0,0,0,0l.3.2h-.1ZM214.6,19.3s0,0,0,0h-.2.2ZM197,22.2c.2,0,.3,0,.4-.1v-.5l-.3.6h0ZM211.3,19.9h.2-.2ZM212,19.9v-.2q-.2,0-.3.1h.3ZM215.2,19.4s0,.1.1.3h0v-.3h-.2,0ZM198.4,22h0ZM212.8,20.1h0c0,.1.3.1.3.1h-.4,0ZM210.9,20.8v-.2h-.4v.2h.4ZM199.2,22.3h0ZM211.9,20.6h-.2.2ZM212.4,20.7s0,0,0,0h-.2.2ZM215.4,20.3h0ZM210.4,21.7c.2-.1.3-.2.2-.3,0,0-.2-.2-.4-.3v.6s.2,0,.2,0ZM199.1,22.8h0ZM196.6,23.4h0ZM198.7,23.1h-1.7c.4.1.7.1,1,.2.2,0,.5,0,.8-.2h-.1ZM213.1,21.6v-.3h-.2v.3h.2ZM212,21.8h0c0-.1,0,0,0,0h.2-.2ZM214.5,21.4h-1c.1.4.2.5.4.5s.4-.1.6-.2v-.3ZM212.3,21.7h0c0,.1,0,0,0,0h-.2.2ZM209.2,22.4h0ZM197.8,24.5c-.2-.1-.5-.2-.7-.1,0,0-.4.1-.7.3l.3.4,1.2-.5h-.1ZM198.8,24.2h0v.4h0v-.4ZM211.5,23c-.1-.2-.1-.4-.2-.4l-.4.2.7.2h-.1ZM213.7,22.6c-.4,0-.5,0-.6.2v.5l.4-.3h0l.3-.4h0ZM198.3,25.9c0-.3.1-.6.2-.9l-.8.2s.6.7.6.7ZM197.3,25.4c-.2.1-.5.1-1.1.2.5.2.9.1,1.1-.2ZM210.2,23.6h0v.2h-.2v-.2h.2ZM212.6,23.6h0ZM199,25.9h.2c0-.1,0-.2.1-.3,0,0,0,0,.1-.2h-.2l-.2.4h0ZM212.2,23.8h0v.2h0q0,0,0,0h-.2v-.2h.2ZM210.2,24.4h-.2s-.2,0-.4-.1l.6,1.2h.2c.3,0,.6,0,.8.4h0c.2-.1.4-.3.5-.4v-.5l-.5.3-1-1h0ZM197.4,26.1h0ZM213.7,24.4s.3.2.6.4l-.3-.9-.3.5ZM195.2,27c.2,0,.3.1.5.2,0,0,.2.1.3.2v-.2c-.4-.3-.6-.5-.6-.5l-.3.3h.1ZM198.5,27.3c0-.4,0-.6-.2-.8,0,0-.1.2-.5.6l.6.2h0ZM197,26.8v.3c-.1,0,.5.3.5.3v-.8c-.1,0-.5.1-.5.1h0ZM196.1,27.7h.4-.4ZM196.9,28.2c.3.2.4.3.6,0,0-.2.1-.2.2-.3l-.4-.3-.3.5h-.1ZM198.7,28.2h-.2c-.2.2-.3.2-.3.2,0,0,.2,0,.2.1l.3-.3ZM210.8,27.1h.2v-.7h-.1v.7h0ZM195.3,28.7h0ZM212.4,26.3c.4.5.6.5.8-.1h-.8ZM197.1,29s-.2-.1-.5,0c-.2,0-.3.2-.4.6l.9-.5h0ZM196.9,29.4l-.4.7h.5l-.2-.7h0ZM212.1,27.7s-.1-.2-.1-.4h-.2v.4h.3ZM196.3,30.5c0-.4-.4-.5-.9-.5l.8,1v-.5h0ZM210.2,28.6h0c0,.1,0,0,0,0h0ZM197.6,30.5h0ZM195.8,32.3c-.3-.2-.7-.3-.9-.3-.1-.4-.2-.7-.3-.8h-.5v1c.1,0,1.3.4,1.3.4l.3-.2h0ZM196.9,31.1h-.7l.3.6.4-.5h0ZM210.8,29.8c.5-.1.8-.4.8-.9l-1.2.2c.2.4.3.7.4.7ZM195.3,31.3v.2s.2-.1.4-.1h-.4ZM210.1,30h0ZM196.8,32h-.5c.2.2.3.4.3.4l.2-.3h0ZM212.4,29.8h0ZM211.2,30.2h-.5v.2h.5v-.2ZM196.3,32.6l.3-.3h-.4v.3h0ZM194.4,32.7h0q0,0,0,0h0ZM210.4,30.7h0s0,0,0,0ZM193.8,33.4v-.2h-.5v.2h.5ZM196.3,32.9h0ZM195.2,33.5c-.2,0-.4.3-.6.5-.1.2-.3.4-.4.7h.4v.7c.8-.3,1.2-.5,1.2-.5v-.2h-1.2s.2-.3.4-.4c.2,0,.3-.3.1-.6h0v-.2ZM196.2,33.4v.2c-.1,0,.2.3.2.3v-.2c.1,0-.2-.2-.2-.2h0ZM194,35s-.1-.3-.1-.5c0,0-.2,0-.4,0l-.7-.5c.1.5.3.7.3.8l-.4.3.9.7.2-.2c-.1-.2-.2-.4-.2-.5l.4-.3h0ZM208.5,32c.2.2.4.3.5.3.2,0,.3-.2.4-.4h-.9ZM211.2,32.2h.3c0,0-.3,0-.3,0h0ZM208,32.7h0v.5h0v-.5ZM211.3,32.8h-.8c.1.5.3.7.3.7,0,0,.2-.3.6-.8h-.1ZM209.1,33.8c.1.3.3.3.5,0h-.5l.3-.5h-.8c.1.2.3.4.5.5ZM192.6,35.9h0ZM194.9,35.9h.4c0,0-.4,0-.4,0h0ZM193.7,36.3h-.2.2ZM210.1,34.6v-.2c0,0-.2,0-.3,0h0l.3.3h0ZM193,37.1h.2c0,0,.2,0,.2-.2l-.2-.2-.3.2v.2c.1,0,0,0,0,0h.1ZM195.8,37.4c.5,0,.6-.3.4-.8l-.3.4v.5h0ZM193.6,37.4h0v-.2.2h0ZM194.6,37.3v.6c.2-.2.4-.3.6-.4,0,0-.6-.2-.6-.2ZM209.2,35.5s-.2,0-.2,0l-.2.5h.2l.3-.4h-.1ZM197.8,37.3h-.2c0,0,0,0,0,0h.2ZM194.2,37.7h0ZM196.7,37.5v.2h.4v-.2h-.4ZM207.5,36.3v.2h.3l-.2-.2h-.1ZM207.9,36.5h0ZM194.3,39.2v-.3s0-.2,0,0h-.4v.2l.5.3h-.1ZM195.6,38.4v.2c.3,0,.6.2.7.2v-.3c.1,0-.6,0-.6,0h0ZM210,36.5h0v.4h0v-.4ZM193,39h0v-.2h0v.2ZM195.1,38.7s0,.2-.1.7h.8c0,0-.6-.7-.6-.7h0ZM210.5,36.9h0ZM208.5,37.6h-.2.2ZM193.3,40.3v-.2h-.4v.2h.4ZM197,39.8h0ZM195.9,40.3l-.4.7,1.1-.2-.8-.5h0ZM193.9,41.2h.6v-.4l-.6.5h0ZM211.3,38.9c0,.2,0,.5.1.5h0v-.5h-.2,0ZM209.7,39.3h-.2c0,0,0,0,0,0h.2ZM210.4,39.3v.5h.2v-.5h-.2ZM193.6,42s-.1-.2-.1-.4h-.2v.4h.3ZM194.3,43.2c.3-.3.3-.7,0-1.2l-.3,1.2h.3ZM192.5,42.5h0ZM195.8,42.1h0ZM212.3,40.1h-.5s-.1.2,0,.5c0,0,.1-.2.4-.5h.1ZM213.9,40.4h0c0,0-.4.2-.4.2l.2.3.3-.4h-.1ZM211,40.9h0v-.2h0v.2ZM212,41.3h.4v-.5h0c-.4,0-.5,0-.4.5ZM193.5,43.4h0ZM213.8,41.4c-.2,0-.5-.2-.8,0h-.5c-.1.4-.1.6-.2.7l1.4-.7h.1Z"/>
        <path class="cls-3" d="M260.9,18.6c.8-.2,1.5-.1,1.9,0,.3.2.6.7.8,1.5l-3.9,6.3c-.2.3-.9,1.3-2.2,2.9l-1.4,1.8c-.5.7-1.4,1.7-2.6,2.8,0,0-.5.5-1.3,1.4-.3.4-1.3,1.3-2.8,2.6-.8.7-1.9,1.7-3.5,3.1l-.8.6-4.1,2.8c-.8,1.9-1.5,3.5-2.2,5-.2.4-.5,1.1-.9,1.8-.4.8-.7,1.4-.8,2-.3.4-.8,1.2-1.3,2.2-.6,1.1-1.1,1.9-1.5,2.5-.3.3-.5.6-.7,1-.2.3-.5.7-.7,1-.9,1.2-1.8,2.2-2.6,2.8-.5.5-1.1.8-1.7,1.3-.6.5-1.1.8-1.3,1-.9.5-1.8.9-2.9,1.2-1.2.4-2.2.6-2.9.7h-1.7c-2.8-.4-5-1.7-6.3-4-.4-.8-.7-1.6-.8-2.5v-2.6c0-.3.2-.6.4-.8.7-.8,1.3-1.3,1.7-1.6l2.1-1.2c1.6-1,2.9-1.7,3.9-2.2,1-.4,2.3-1,4-1.9.4,0,.7-.3,1.2-.6s.9-.5,1.2-.7c.3,0,.9-.4,1.7-.9.8-.4,1.5-.8,2.2-1.3,0,0,.3-.2.5-.3s.4,0,.5-.2l1.4-.8,2.2-5.3c.2-.3.3-.9.4-1.6-.4,0-.8.6-1.1,1.2-.5.8-1.2,1.6-2,2.3-.5.5-1,.7-1.5.7s-.9,0-1.3,0c-1.6-.5-2.9-1.2-3.8-2.4-1.2-1.5-1.9-3.2-2.2-5.4-.2-1.1,0-2.6.3-4.4.7-3.7,2-7.4,4-10.9.3-.4.6-1,1-1.8.5-1.2,1.5-2.6,2.9-4.3.2-.2.3-.4.4-.5.4-.8,1.2-1.6,2.3-2.6.2-.1.4-.2.5-.4,1.1-1,2.4-1.6,3.9-1.8h2c1.2.2,2.5.8,3.9,2l.3.4h.2l.9-3,.5-.4h.3c.4.2.7.3,1,.5s.5.3.7.4c1.5.4,2.5,1.4,3.2,2.8-.2.3-.2.6-.3.9l-1.8,5.4c-1.3,4.2-2.3,7.4-3,9.4-.1.3-.3.8-.5,1.6-.2.7-.4,1.4-.7,2-.1.2-.2.4-.3.7,0,.3,0,.6-.1.7-.4.8-.7,1.6-.9,2.1l-1.8,4.9v.6h-.1c1.2-.6,2.6-1.7,4.1-3.3l1.2-1.1c1.6-1.5,2.9-3,4.2-4.4l3.4-4.3.6-.9,1.3-2.1c1.1-1.5,1.8-2.7,2.2-3.6,0-.2.1-.3.3-.4,0,0,.1-.2.2-.3h.4ZM239.2,11.3h0v.2h-.2v-.2h.2ZM238.3,12.4c-.4.3-.7.6-.9.7l.5.6.4-1.3ZM249.7,11.6v-.7h-.2v.7h.2ZM239.2,12.6q-.2,0-.3.1h.2c0-.1.1-.1.1-.1ZM235.4,33.5c.2-.3.5-.7.7-1.1.3-.4.5-.8.8-1.4l.7-1.4,1.1-1.8c.3-.5.7-1.2,1.1-1.9.4-.7.7-1.3.9-1.7,1-2,1.7-3.5,2.1-4.5,1.2-2.5,2-4.2,2.3-5.3,0-.2.4-.9,1-2.1-.5-.5-1.2-.8-2-.7-.5,0-.9.2-1.3.5-.4.3-.7.5-1.1.8-.4.3-.5.5-.8.6-.5.4-.9.7-1.3,1.3-.3.4-.6.9-1,1.4-.3.5-.5.8-.6,1.1-.5.8-1.3,2.4-2.4,4.7-.6,1.1-1.1,2.3-1.6,3.6-.3.9-.7,1.9-1.1,3l-.4,1.9c0,.2-.1.7-.3,1.4-.1.7-.3,1.3-.3,1.9v1.6l.2.4h.9c.1,0,.3-.2.4-.3,0,0,.2-.2.4-.3l1.2-1.8.3-.4v.5ZM237.4,12.9v.4h.3l-.2-.4h-.1ZM236.7,13.4h0ZM250.4,11.9h0v-.4h0v.4ZM237,13.8h.2c0-.1-.2,0-.2,0ZM248.5,12.3c-.3.2-.3.5,0,1,.2-.3.3-.4.3-.4,0,0,.1-.2,0-.5h-.3ZM235.4,14.7v-.2h-.3v.2h.3ZM237.2,14.7v-.2c.1,0-.3,0-.3,0h0l.3.3h0ZM236.3,15v-.3h-.2v.3h.2ZM234.3,15.6c-.2.2-.3.3-.3.4v.5c0,.1.2.2.3.2h.2l.5.3.5-.5v.4h.3l-.3-.4v-.5c-.1,0-1.1.7-1.1.7,0-.2-.1-.2-.3-.2h-.3l.2-.9h.3ZM235.5,15.7h0c0-.1,0,0,0,0h0ZM236.6,15.7l-.7-.2v.8c.1,0,.7-.5.7-.5h0ZM250.4,13.7h0ZM248.2,14.6s-.1,0-.3.1h.2v-.2h.1ZM249,15.5c.2,0,.3-.1.4-.2v-.5l-.3.7h0ZM250.2,15.3h0ZM236.5,17.3h-.4.4ZM249,15.6l-.2.3h.2c0,0,0-.3,0-.3ZM234.9,18.6c.2-.4,0-.7-.2-.9l-.8,1h1ZM235.8,17.7h0ZM249.3,16.2v-.2c.1,0,0,0,0,0v.2h0ZM235.3,18.3h0v-.3h0v.3ZM247.4,16.5c0,.5.1.5.6.2l-.6-.2ZM232.5,18.6c-.1,0-.2.2-.3.3h.2c0,.1,0-.4,0-.4h.1ZM246.5,17.2h0ZM234.2,19.2h0ZM248,17.3h-.2.2ZM234.7,19.2h0ZM231.5,19.9h0ZM234.7,19.9h-.2.2ZM248,18s.2.1.3.3c0,0,0,.1.2.2l.3-.5h-.8ZM232.3,20.7h0v-.2h0v.2h0ZM233.1,20.6c.1.2.2.4.4.4,0,0,.3,0,.5-.1l-.9-.3ZM231.4,21.3h-.2.2ZM246.6,19.2h-.5c0,.1.5.1.5.1h0ZM232.1,21.9s0-.2.1-.2l-.4-.3v.2l.3.3h0ZM246.7,20c-.5,0-.8-.2-1-.3,0,0,.3.4.5.8l.5-.5ZM245.6,20.8s.1,0,.2-.2l-.3-.3-.2.3.3.2ZM232.6,22.2h0ZM232.8,23l.5-.4h-.6c0-.1.1.4.1.4ZM247.7,20.8v.2h.4-.4v-.2ZM245,22.4c0-.2,0-.3.1-.4,0,0,0,0,.1-.2l-.3-.2-.5.5.5.2h0ZM230.4,23.9h.5v-.3h-.6v.3ZM229.6,24.8c.2-.1.2-.3,0-.5v.5ZM246.7,22.6c.1,0,.3-.3.4-.4.1,0,.3-.3.4-.4h-.3c-.3,0-.5.3-.5.7h0ZM232.7,24.2h-.2.2ZM230.8,24.5h0ZM231.5,24.6c0,.2,0,.3.1.4h0v-.4h-.2,0ZM230.8,25.5v-.6h-.2v.6h.2ZM245.5,23.2h-.2q0,0,0,0h.2ZM229.2,25.7h0ZM246.1,23.3c0,.1.1.3.1.5h0v-.5h-.2,0ZM229.9,25.8c.3.2.3.3.3.3v-.2c.1,0-.3-.3-.3-.3v.2h0ZM244.4,24.7c.2-.3.3-.4.3-.4v-.3c-.2,0-.3,0-.4.1l-.2.6h.3ZM230.7,26l.3.3v-.2c.1,0-.2-.2-.2-.2h-.1ZM245.2,24.3s.2.2.3.4c.1.2.4.3.6.4l-.6-1.1s-.3.3-.3.3ZM232.1,26.4s0-.2.1-.2l-.4-.2v.2c-.1,0,.3.3.3.3h0ZM228.9,26.5h0ZM243.6,24.6h0v.2h0v-.2ZM231,26.4c-.3.4-.5.6-.5.6h.5v-.6ZM246.8,24.9s.1,0,.3-.1h-.2v.2h-.1ZM244.8,25.3h0c0-.1-.3-.1-.3-.1v.3h.4v-.2ZM231.4,27.9s.2.1.5.3l-.3-.7v-.3s-.1-.2-.3-.3v1h.1ZM229.8,27.2s0,0,0,0h.2-.2ZM245.4,25.5h0ZM229.1,28.1v.9c.4-.3.7-.6.9-.7-.3-.1-.7-.2-1-.3h.1ZM242.6,26.3h.2-.2ZM246.7,25.7h0ZM231,28.1h0v-.2h0v.2h0ZM243.9,26.4v.6l.6-.2-.6-.4ZM245.4,26.6s0-.2-.1-.2h-.7v.5c.1,0,.8-.2.8-.2h0ZM243.6,28.2c.2-.3.3-.4.3-.5,0,0-.1-.2-.4-.4v.9h0ZM246,27l-.2.3h0c0,.1.3-.1.3-.1l-.3-.2h.2ZM229.5,29.7c-.1-.2-.3-.2-.5.1.1,0,.3-.1.5-.1ZM227.9,29.8h0ZM242.2,27.8h0s0,0,0,0h0v.2-.2ZM230.7,30s.1,0,.4-.1h-.3v.2h0ZM245.9,28.2s0-.2-.1-.4l-.6.4v.4h0l.5.2.2-.7h0ZM243,28.5h0ZM244.6,28.3c-.2.1-.4.3-.5.5,0,.2,0,.5-.1.7.3-.3.5-.5.5-.6,0-.2.1-.4,0-.6h.1ZM229.7,30.5c.3.2.3.3.4.3,0,0,.1,0,.3-.4h-.8.1ZM241.5,29.1c.2,0,.4.1.6.2.2.1.4.1.6,0-.3-.2-.4-.3-.6-.3l-.7.2h0ZM243.3,28.7h-.2v.2h.3v-.2h-.1ZM228.7,31.3c-.4.1-.7.3-.9.4.2,0,.6,0,1,.3.3.3.7.4.9.3l-1-1h0ZM230.4,31.3c0,.1.2.2.3.3l.2-.3-.4-.2v.2h-.1ZM243.8,29.4h-.2c0,.1.2,0,.2,0ZM241.2,30c.2.4.4.3.6,0h-.6ZM242.4,29.9c0,.2-.2.3-.3.4h.2c0,.1.3-.3.3-.3h-.2ZM228,31.9h0v.2h.1s0,0,0-.2h-.1ZM240.6,30.4s0,0,0,0h0ZM239.7,30.6h0ZM243.4,30.4q0-.2-.1-.3v.3h.1ZM242.8,32.1c0-.2-.1-.4-.4-.6-.3-.2-.4-.3-.5-.4v.5c0,.2.1.6.4.9.2,0,.4,0,.5,0v-.2h0ZM228.8,33.7c-.1-.3-.1-.5-.3-.6h-.5v.7l.8-.2h0ZM230,33.3s.1-.2.3-.4h-1c0,0,.7.4.7.4ZM240.3,32.3h.3c0,0,.2-.3.2-.3h-.2l-.3.3ZM244.7,31.6c-.4,0-.6.2-.7.3-.1.2-.3.3-.3.6s-.1.4-.2.5l.3.2.9-1.6ZM230,34h0v.2h0v-.2ZM240.2,32.7h0ZM238.8,33.2h0ZM228.2,35.7c.2,0,.4-.3.6-.5.2-.2.3-.4.4-.8-.5.3-.9.5-1.1.8,0,0,.1.2.2.5h0ZM242,33v-.2h0v.2ZM229.7,34.8s0,0,.1.4h.2v-.5s-.1,0-.2,0h-.1ZM241.1,33.6v-.3h-.1v.3h.1ZM239.9,33.7h0s0,0,0-.2h0s0,0,0,.2h.1-.1ZM240.5,33.9h0ZM243,33.7v.2c-.1,0,0,0,0,0h.2l-.3-.3h0ZM239.1,34.3h0v.2h0v-.2ZM230.7,36.2s.1-.2.3-.4c0,0-.2,0-.2,0l-.3.4h.2ZM230.7,37s-.2,0-.3-.2h-.3s-.2,0-.3-.2c0,0-.2-.2-.3-.4v.9c.1,0,1.2,0,1.2,0h0ZM241.6,35.6v-.7c.1,0-.6,0-.6,0l.4.6h.2ZM229.1,36.9h.3-.3ZM242.7,35.9c0-.2.1-.3.2-.4,0,0,0,0,.1-.2h-.5s.2.6.2.6ZM231.1,36.8v.5h.2v-.5h-.2ZM233.1,37.1s0-.2.1-.2l-.3-.2h0v.2l.2.3h0ZM232.1,37.1l-.3.3h.2c0,0,.3-.2.3-.2h-.2ZM238.1,36.6v.3l.2-.2h-.2ZM241.4,36.5h-.2c0,0,0,0,0,0h.2ZM241.6,37.3c.3,0,.4-.4.5-.6v-.4l-.6.3v.7h.1ZM241.2,36.6c-.4,0-.5,0-.3.5l.3-.5ZM230.9,38.2h0s0,0,0,0h0ZM231.7,38.4h0c0,0,.2,0,.2,0h-.3.1ZM240.5,37.7v.4-.2c.1,0,.1-.2.1-.2h-.1ZM240.9,37.7h0s0,0,0,.2v-.2h0ZM233.3,38.9v.2h0v-.2ZM232.8,39.1h0ZM241.5,38.6h0v-.2h0v.2h.1-.1ZM241.1,38.7h0v.2h0c0,0,0,0,0,0h0v-.2ZM239.1,40h.2-.2ZM240,40.1v.2c-.1,0,.2.4.2.4,0,0-.2-.6-.2-.6ZM240.6,40s0,0,.1.2l.2-.3h-.3ZM240.1,41.3h0ZM239.9,42s.2,0,.3,0c.2,0,.3,0,.4-.5h-.8v.4h.1ZM239.3,43.2h-.2q0,0,0,0h.2ZM239.7,43.1h-.1v.2-.2h.1ZM240.3,43.3s0-.2.1-.2h-.2v.3h0ZM239,43.9l-.3.4h.2l.2-.4h-.2.1ZM238,44.6l-.2.4h.2l.2-.3h-.2ZM238.2,47.9c0-.2,0-.4-.1-.4h-.1l.3.4h0ZM229.7,54.9c.5-.8,1.4-2,2.5-3.8.7-.8,1.1-1.7,1.2-2.6l-.6.2-5.5,3.4c-1.1.7-2.4,1.4-3.6,2.2-1.2.8-2.2,1.5-3.1,2.4-1,.8-1.4,1.7-1.3,2.8,0,.3,0,.5.2.7l1.3.9h.5c.2,0,.5,0,.7-.2.2,0,.5,0,.6-.2.1,0,.3,0,.4-.2,1.4-.5,2.6-1.2,3.7-2.2,1-1,2.1-2.1,3.2-3.6h-.1v.2ZM236.8,48.4h-.2c0,0-.3,0-.3,0v.2h.4c0,0,.1-.2.1-.2ZM236.2,49.4h-.1.2,0ZM235.7,50.8h0v-.2h0v.2ZM235.2,51.5h0ZM236.3,51.6h-.4s0,.2.1.4l.3-.4h0ZM234.2,52.6v.6l.4-.3-.3-.3h0ZM235.2,53.3h0v-.2h0s0,0,0,0h.2l-.2.2ZM234.6,54h-.2c0,0,0,0,0,0h.2ZM234.1,55.5h.2c-.1-.4-.4-.7-.7-.8v.3c0,.2.2.3.5.5ZM217.6,57.5h.4-.4ZM232.7,56l-.6-.2s0,.2-.1.3-.1.2-.2.3h1.1l-.2-.5h0ZM232.1,57.1h0ZM232.9,57h.3-.3ZM231.1,57.5h0v.2h0v-.2h0ZM231.3,58.3h0v-.2h0c0,0,0,.1,0,.1h0ZM232.6,58.1h0c0,0,0,0,0,0h0ZM231.3,59h.2-.2ZM230.5,59.8s0-.2-.1-.2l-.3.3h.4ZM231.9,59.4l-.3.3h.2c0,0,.2-.2.2-.2h-.2.1ZM230.1,59.8l-.5.5h.9c0,0-.4-.5-.4-.5ZM229.1,61h0Z"/>
        <path class="cls-3" d="M187.2,58.8c.5.9.8,1.8.9,2.8.2,1.8-.1,3.7-1.2,5.6-1.2,2.3-2.9,3.9-5.3,5-.4,0-.9.4-1.7.5-.2,0-.8.3-1.7.5-.9.3-1.7.5-2.4.6-3,.4-5.5.6-7.4.5-2.3,0-4.6-.2-6.8-.5-.6,0-1-.2-1.6-.2s-1,0-1.6-.2c-.1.4-.3,1-.6,1.7l-1.6,4.2-.6,1.6-1.5,4.1c-.4,1-1,2.5-1.6,4.6-.2.4-.5,1.1-.9,2.2s-.7,2-.9,2.8c-.1.7-.5,1.8-.9,3.1-.4,1.1-.7,2.2-1,3.2s-.5,1.7-.7,2.2c0,.2-.2.6-.3,1-.2.4-.3.8-.4,1.3l-.6,2.7c-.2,1.2-.6,2.6-1,4.2-.3,1-.6,2.6-.8,4.8,0,.7-.2,1.5-.3,2.4-.2,2.3-.2,4.2,0,5.7-.1,0-.3.3-.4.4-.1,0-.3.3-.4.4-2.3-.4-4-1.6-5.3-3.3-.7-1-1.1-2-1.5-3v-.5c-.2-.4-.2-.7-.2-1v-3.5c0-.3,0-.7.2-1.1.6-3.3,1.5-7.3,2.8-11.9l1-3.3,1.7-4.6,2.1-6.3c.7-1.7,1.2-3,1.6-3.9l.8-2,.9-2.6c.5-1.2.8-2,.9-2.1l2-4.6-.8-.3-8.1-1.5c-.4,0-1-.2-1.8-.4-.8,0-1.5-.2-2-.2h-3.3c-1,0-1.8,0-2.5.2-1,0-1.7.4-2.3.7-.7.3-1.9,1.2-3.6,2.4-1,.8-1.8,1.6-2.5,2.7s-1.3,2.3-2,3.8c-.6,1.6-1,3-1,4.1s0,1-.2,1.7c-.2,1.2-.2,2,0,2.6.3,1.3.6,2.2.9,2.9.2.7.6,1.3,1.3,1.9,1.1,1,2.4,1.4,3.8,1,1.7-.5,3-1.4,3.8-2.8,1.7-2.7,2.6-5.2,2.7-7.5,0-1.2,0-2.2-.3-3.1,0-.4-.3-.7-.8-1.1-.3-.2-.5-.3-.9-.5s-.7-.3-.8-.4c0-.6.2-1.1.8-1.4s1.6-.7,2.5-.8c1.1-.2,2.1,0,3,.4.8.4,1.5,1,2,1.8.7,1.1,1,2,1.2,2.9,0,.7,0,1.5-.2,2.3l-.6,2.2c-1.2,4-3.5,6.8-7,8.5l-1.2.7c-.2,0-.7.2-1.3.5-.6.2-1.1.4-1.6.5l-1.4.3c-1.2.2-2.7.2-4.4,0-1.7-.2-3.1-.8-4.5-2.1-1.2-1.1-2-2.3-2.7-3.7,0,0-.2-.6-.5-1.7-.2-.7-.4-1.5-.7-2.6,0-.7-.2-1.1,0-1.5.2-2.9,1-5.6,2.3-7.9.2-.3.6-1,1.2-2.1.6-1,1.2-1.9,1.9-2.6,1.9-1.8,3.6-3,5.4-3.8s3.1-1.3,4.1-1.6c1.9-.5,3.1-.8,3.5-.9h2.4c1.4-.2,3.4-.2,5.9-.2s4.5.2,8.1.5c.2,0,.6,0,1.1.2l3.4.5,1.8-3.2c.4.2,1.1.3,1.9.7.9.3,1.6.6,2.3,1.2.6.5,1,1.2,1.4,2h4.4c1.3,0,2.6,0,3.9-.2l2.4-.3,2.4-.4c.8-.2,1.9-.5,3.3-1,1-.4,2.2-1.1,3.5-2.5,1.2-1.2,1.8-2.5,2-3.9v-2.7c2,0,3.5,1,4.4,2.5l.3-.3h.1ZM156,67.6h.2c0,0,0-.2,0-.2.1,0,0,0,0,0l-.2.3h0ZM157.3,67.5h0ZM185.1,65.1c-.1-.4-.2-.7-.3-.7l-.8-.4,1.1,1.1h0ZM158.3,67.9h-.2v.3h.3c0,0-.2-.3-.2-.3h0ZM182.6,65v.7l1.2-.4c-.7-.2-1.1-.3-1.2-.3ZM155.7,69s.2,0,.4,0v-.2l-.3-.2v.2h0ZM157,69h.6s0-.2.1-.4l-.7.3h0ZM180.9,66.4c.2,0,.4.2.5.2,0,0,.1,0,.2-.3-.2,0-.5,0-.7.2h0ZM157.5,69.6h0v-.2h0c0,0,0,0,0,0v.2ZM158,69.4h0ZM182.5,66.4l-.3-.3s-.2,0-.1,0l.3.4.2-.3v.2ZM183.8,66h-.2.2ZM159.1,69.9c0-.2.1-.2.3-.3h-.2c0,0-.3.2-.3.2l.2.2h0ZM180.3,66.8s.2,0,.2.2l.3-.4-.4.2h-.1ZM183.2,66.4h.2c0,0-.2,0-.2,0h0ZM156.6,70h-.2v.7l.8.3-.7-1h0ZM155.5,70.6q.2,0,.3,0h0c0,0-.2.2-.2.2h-.1ZM183.5,67.6c.4,0,.6-.2.6-.5s.2-.5.2-.6h-.3c-.3,0-.4.2-.6.4,0,.2-.1.4,0,.8h.1ZM160.6,70.1s.1,0,.4-.2l-.2-.2-.3.3h.1ZM181.2,68.2c.2,0,.4-.2.5-.5v-.8s-.3.3-1.1,1.2h-.5s-.2,0-.4-.3c-.1-.2-.3-.2-.5,0,0,0,.3.7.8,1.6l.5-.5h1.3c0,0-.6-.6-.6-.6h0ZM180.1,67.5v-.4h-.1v.4h.1ZM178.4,68s.2,0,.2.2h0c0-.2-.2-.2-.2-.2l-.4-.5-.2.5h.6ZM155.4,70.6q-.2,0-.3,0h0c0,0,.2,0,.2,0h.1ZM163.1,69.7v.4-.2c.1,0,.1-.2.1-.2h-.1ZM156.5,70.7h0ZM164.6,69.7v.2l.3.2v-.2l-.3-.2ZM155.5,71.1c-.2,0-.5,0-.8.2l.2,1.2.4-.3c0,.2,0,.3.1.4h.1l-.3-.4.2-1h.1ZM183.2,67.4v.2h.1v-.2h-.1ZM161.9,70.5h0v.2h0c0,0,0,0,0,0v-.2h0ZM166.7,69.9h-.3.3ZM177.2,68.4c0,.2.1.2.3.2s.4,0,.7-.3h-1ZM161.6,71.2c0-.4,0-.5-.2-.6h-.5l.6.5h0ZM168.6,70l-.4-.3v.3c-.1,0,.3.2.3.2v-.2h0ZM169,70.1h.5v-.5l-.5.5ZM120.9,76.3s.2,0,.2,0h-.4s0,0,0,0h.2ZM172,70.2c.2-.3.3-.5.3-.7,0,0-.2-.2-.5-.2,0,0,.1.4.2.9ZM163.9,70.6h0v-.2h0v.2ZM164.5,70.7s0,0-.1-.3h-.2c0,0,.2.4.2.4h.1ZM167.1,70h0c0,0,0,0,0,0h0ZM173.3,69.2c.4.4.8.6.9.6,0,0,.1-.2.5-.5-.6,0-1.1,0-1.3,0h0ZM173.1,70.3c0-.3.1-.6.2-1-.3.2-.4.4-.5.5,0,.2,0,.3.2.5h.1ZM177.7,68.6c-.1,0-.3.2-.4.3-.1,0-.2,0-.4.3,0,0-.1.2,0,.5h.6v-1h.2,0ZM179.3,69c-.3-.3-.6-.5-.8-.5v.6l-.4.2.3.6h-.2v.2h.3v-.2h-.2v-.8h1ZM120.3,76.3h0v.2h0v-.2ZM156.5,72v-.2c.1,0-.3-.3-.3-.3,0,0,0,.2-.1.2l.3.3h0ZM167,70h0v.2h.1v-.2h-.1ZM171,70.2s.1,0,.3,0l-.3-.6h-.1l.2.7h0ZM154.1,72.7c.3,0,.6-.2,1-.2,0-.3,0-.5-.2-.8-.4.4-.7.7-.8,1ZM167.9,70.1s-.1,0-.2,0v.5h.4l-.2-.6ZM170.4,70.3v-.2h-.4v.2h.4ZM174.3,70.4c0-.2.1-.3.1-.4l-.4-.5v.7l.3.2h0ZM175.6,69.3s-.1,0-.2,0l.3.4v-.5h-.1ZM166.8,70.6h0ZM176.5,69.5h.4-.4ZM170.5,71.2s-.3-.2-.4-.3c-.2,0-.3-.2-.5-.3,0,.5.3.7.8.7h.1,0ZM169.4,70.7h-.2.2c0,0,.1,0,.1,0h-.1ZM175.4,69.9h-.2.2ZM175.9,69.7c.1.2.3.6.6.9l.4-.8h-1ZM120,77.9s.3,0,.5-.2.3-.2.3-.4h-.4q-.2,0-.4.3s0,.2-.2.5h0l.2-.2ZM172.8,70.3h0v.2h0v-.2h0ZM155.1,73.3l-.2-.5-.4.2c-.1,0-.3.2-.4.3v.2h1c0,0,0-.2,0-.2ZM155.7,73.5h.4s0-.2-.1-.2h-.3v.2h0ZM156.4,73.4h.2c0,0-.2,0-.2,0h0ZM155.1,74.1v.2h.3c0,0,0,0,0,0h-.3ZM120.2,79.4c0-.2,0-.4,0-.5h-.2l-.2.4h.4ZM153.6,74.8h-.2.2ZM154.5,74.8h-.2c0,.2,0,0,0,0h.2ZM119.9,80.1h0v.2l.3.2v-.2h-.2c0,0-.1-.2-.1-.2ZM154.1,75.5h0c0,0,0,0,0,0h0ZM153.9,76.2h0v-.2.2ZM118.5,81.1v.5h.2v-.6h-.2ZM155.7,76.3s0,0-.1-.2h0v.3h.1ZM138.4,78.7c-.5.2-.6.5-.1.8l.5-.3-.4-.5ZM119.6,82.8c0-.2.3-.3.4-.4l.3-.3c-.3-.2-.4-.4-.5-.5h-.3c0,0,0,1.2,0,1.2ZM118.8,82.2h0v-.2h0v.2ZM154.1,77.4l-.8.7.6.2.4-.8h-.2ZM153,77.9v-.2h-.4v.2h.4ZM138.6,80.3v-.5c-.1,0-.5.6-.5.6h.5ZM138.3,81.4l-.5.6h.3c.2,0,.3-.2.3-.5h.2s.2,0,.4,0v-1l-.3-.3v.7c-.3-.2-.5-.3-.6-.4l-.6.4.8.3h0ZM153.5,78.6v.2h.4v-.2h-.4c0,0,0,0,0,0ZM152.2,79h0c0,0-.1,0-.1,0v.4l.4-.3h-.3ZM119,84v-.6l-.8.2v.2h.7c0,0,.1.2.1.2ZM153.7,79.2h.3-.3ZM119.6,84.7h-.2.2ZM152,80.4h-.1l.2.3h.1l-.2-.4h0ZM152.8,81.6s.1-.2.4-.3c.1,0,.2-.3.3-.4v-.5c-.4.4-.6.9-.6,1.2h0ZM137.7,83.2h0ZM150.8,82.5h-.2.2ZM151.7,82.8h.2v-.4.4h-.2ZM138.1,84.4h0q0,0,0,0h-.2.2ZM153.4,82.2h-.2.3-.1ZM137.7,84.3c0,.3,0,.6-.2.9h1.1c0,0-.9-.9-.9-.9h0ZM119.6,87.1h0ZM151.7,82.9h-.2c0,0,.1,0,.1,0h0ZM120.1,88.1v-.6l-.4.2.4.4ZM152.9,83.8v-.6h-.6c.3.3.5.5.5.6h.1ZM150.7,84.2h.6v-.2h-.6c0,0,0,0,0,0h0ZM150,85.3c0,.3,0,.5.2.7h.2v-.8c.1,0-.3,0-.3,0h-.1ZM151.9,85.5c-.2,0-.5.3-.8.6,0,0-.2.2-.4.2h0c0,0,.2,0,.4,0,0,0,.2,0,.3,0,0,0,.2,0,.4,0v-.9h.1ZM149.6,86.8h.2-.2ZM151.3,87h0v.2h0v-.2ZM148.9,87.5l-.3.8s.3.4.8,1.1l.2-.6-.8-1.3h.1ZM150.3,88.7h-.2.2ZM148.3,89.5h.2-.2ZM148.8,90h0c0-.1,0-.2,0,0h.2c0,0-.2,0-.2,0ZM150.1,90.1v.2c.1.2.2.5.4.8l.3-.5-.7-.5ZM147.7,90.6s.1.3.2.6c0,0,.2,0,.2,0v-.5h-.5.1ZM148.9,90.9h.2-.2ZM148.6,92.2c0,.2.2.3.5.3l-.6-.7v.4h.1ZM148.3,92.2c-.2.2-.4.3-.5.5-.1,0-.3.2-.3.3h.4c.2,0,.4-.3.4-.7h0ZM150,92.5s0-.2-.1-.2h-.5v.4h.5v-.2ZM149.3,94.6c.1,0,.2-.3.1-.6v-.7c-.4-.2-.7-.2-1-.2h-.2c0,0-.2.3-.3.4.2,0,.5.2.8.4v.7c0,.2.1.3.4.3v-.2h.2ZM147.2,94.8c-.5-.6-.7-.9-.7-.8v.8c-.1,0,.7,0,.7,0ZM147.4,94.1v.4c0,.2.1.3.2.4,0,0,.2.3.3.4v-.5c0-.3-.2-.6-.5-.8h0ZM146.3,95.8c.3,0,.4-.3.4-.4,0,0-.1-.3-.4-.6v.9h0ZM147.2,95.8s.1,0,.2,0l-.3-.4s-.2,0-.1,0l.2.4h0ZM148.9,95h0v-.2h0v.2h.1-.1ZM148,95.9l.3.3.2-.3-.5-.2v.2ZM146.7,96.1h-.2.2ZM147.3,97s-.1,0-.3,0h-.3c-.2,0-.3.2-.3.4l1.1.4v-.9h-.2ZM148.1,97.6h0ZM146,98.8h0v.4h.3l-.3-.4ZM147,99.1h-.2c0,0,0,0,0,0h.2ZM145.2,99.5v-.2h-.2c0,0,.2,0,.2,0h0ZM147.2,99.4h.1-.2,0ZM146.2,99.6c-.3.2-.5.3-.7.4h.6c0,0,0-.4,0-.4h0ZM146.9,99.8h0v.2h0v-.2ZM144.9,101.4s.2,0,.4,0v-.2c-.2,0-.3,0-.4,0v.2ZM147,102.2c.2,0,.4-.3.4-.7h-.6v-.4c-.4.3-.3.5,0,.4v.8h-.3c-.2.2-.4.4-.4.6h.2c.4,0,.6-.3.5-.7h.2ZM146.1,102.1h0q0,0,0,0h0ZM145.5,102.5v-.2h-.5v.2h.5ZM144.5,103.2h0ZM145.3,103.3h-.3c0,0,0,0,0,0h.3ZM146,103.2h0ZM146,104.5h.5v-.7l-.4.7h-.1ZM144.5,104.6c.3.2.6.3.7.4q.2,0,.3-.3s-.2-.2-.2-.4c-.4-.2-.7,0-.8.3ZM143.6,105.4c.3.2.3.3.3.3.2-.3.3-.4.3-.4v-.2l-.7.3h0ZM144.8,105.6h0c0,0,0,0,0,0h-.2.2ZM145.7,105.9c.3,0,.4-.2.5-.2,0,0,0,0-.1-.2l-.4.3v.2h0ZM145.6,106.2h.2-.3.1ZM142.7,107h0v.2-.2ZM144.6,108.1c.2-.3.2-.5.2-.8s-.1-.4-.3-.6c-.3.3-.4.6-.4.7,0,0,.2.4.5.7ZM144.9,106.8v.2h.4v-.2h-.4ZM143.7,108.4h0v-.2h0v.2ZM144.7,109.1l-.3.3h.2c0,0,.3-.2.3-.2h-.2ZM145.2,109v.5h.1v-.4h-.1ZM142.8,109.9c-.3.3-.3.5,0,.8.1,0,.2-.3.2-.4,0,0,0-.2-.1-.4h0ZM144.5,110.1h-.2.2ZM143.4,112.1s.1-.2.2-.2c.5,0,.6-.5.3-1l-.4.8s0,.2-.1.2h0v.2ZM142.2,111.6h.2-.2ZM144.4,112.9h-.2c0,0-.3.3-.3.3h.2l.3-.3ZM143.4,114.3c0-.2.1-.4.2-.6v-.5h-.2c0,0-.6.6-.6.6l.5.5h.1ZM142.4,113.7h0v-.2h0v.2h0ZM143,114.6h-.2v.4l.2-.3h0ZM144.2,114.9c-.1,0-.2,0-.4,0,0,0-.2,0-.1,0v.6l.4-.7h.1ZM143.1,116.6l.7-.4v-.2l-.9-.2s.2.8.2.8ZM144.3,118.3c-.2,0-.3,0-.6,0-.2,0-.5.2-.9.6h1.3v-.6h.2Z"/>
        <path class="cls-3" d="M172.4,80.6c-1-.3-1.9-.5-2.6-1-.8-.4-1.3-1.1-1.6-1.9.4-4.4,1.7-8.4,3.8-11.8h.4c.7-.2,1.3,0,2.1.4,1.4.7,2.3,1.6,2.7,2.9,0,0,.1.4.2.6v.7l-1,2.8-1.3,2.8-1.8,3.3-.8,1.2h0ZM173.7,68.8h0c0,0,.4,0,.4,0h-.2c0,0-.3.2-.3.2h.1ZM173.1,69.8s.3,0,.7-.2l-.8-.4v.6h.1ZM173,70.4v.2h0v-.2ZM174.1,70.6s0,0,0,0h0ZM171.9,71v.5c.1,0,.6-.3.6-.3l-.6-.2ZM174.5,70.8h.3-.3ZM171.7,72.5h0ZM172.3,72.3h0v.2h0v-.2ZM173.4,72.2h0v.2h0s0,0,0-.2h.1-.1ZM172.8,73.3l-.9-.6v.8c.1,0,.9,0,.9,0h0ZM174.5,72.3l-.6.2v.3c.1,0,.7-.4.7-.4h0ZM171.1,73.6v.9h.2v-.8c.1,0,0,0,0,0h-.1ZM174.3,73.2h0ZM172,74.2h0v-.2h.2l-.2.2ZM172,76.2v-.3h-.2v.3h.2ZM171,77c.3.3.5.4.5.4v-.5h-.5ZM180.2,93c.7.4,1.2.8,1.4,1.5-.1.2-.6,1.1-1.3,2.6s-1.6,2.8-2.5,4.1l-5.1,7c-1.1,1.5-2.6,3.2-4.5,5.2-.5.6-1,1-1.3,1.3l-2.4,1.4c-.4,0-.8-.2-1.2-.4-.4,0-.9-.2-1.4-.4,0,0-.4-.3-1-.7,0,0-.3-.2-.4-.3l-.3-.3c-1.1-.7-2-2-2.7-3.7,0,0-.1-.4-.2-.8,0-.5-.1-.9,0-1.2,0-1.4.3-2.8.7-4.3.4-1.4,1-3.1,1.7-5,.4-1.1.6-1.6.6-1.9s.2-.6.3-.9.2-.7.3-1l.9-2.3c.8-1.9,1.6-3.9,2.5-6.2l1.7-4.6.5-.4,2,.7c.9.3,1.8,1,2.7,2,.1.2.3.6.6,1.2-1,2.1-1.7,3.8-2,5.2-.1.3-.2.7-.4,1s-.3.7-.4,1l-.4,1.8s0,.2-.1.4c0,.2-.1.3-.2.6-.2.3-.4.9-.6,1.6-.3,1-.5,1.8-.7,2.6-.3.7-.4,1.4-.6,1.9-.1.4-.3,1.1-.6,2.1-.3,1.1-.6,1.9-.7,2.9-.1.9-.2,1.7-.1,2.5,0,0,0,.2.1.2l.3.2c.2,0,.3,0,.4,0,1.9-1.1,3.2-2.3,4-3.4l.8-.8c1.2-1.2,2.8-3.1,4.8-5.9.8-1.3,1.7-2.5,2.4-3.7l1.2-1.9.3-.4h1v-.4h-.1ZM167.3,85.9c.2,0,.6,0,1.2.2l.4-.7-1.4.2-.2.4h0ZM166.4,87.5h0ZM166.9,87.5h0v.2h0v-.2ZM166.7,88.2s0,0,0,0h.2-.2ZM167.6,88.6v-.3h-.2l.2.2h0ZM167.8,89.4v-.5.5ZM167.1,89.6v-.2l-.3-.3v.2c-.1,0,.3.2.3.2h0ZM165.9,89.9v-.4h-.4v.4h.4ZM165.9,90.7l-.5-.4-.2,1,.8-.6h-.1ZM166,91.4v.7h.2v-.6h-.2ZM164.6,91.8s0,0,0,0h.2-.2ZM165.7,91.9c-.5,0-.7.2-.6.5.3-.2.5-.4.6-.5ZM165.4,92.9l-.4-.3-.3.4h.7ZM163.9,92.8h0v.2h0v-.2h.1-.1ZM164.5,94.5s-.2,0-.3-.3c-.2,0-.3-.2-.4-.3,0,0-.2,0-.4,0,.2.2.4.4.5.5h.6,0ZM166.1,93.6h-.3.3ZM165.7,94.4c0,.3-.2.6-.2.7h.2l.2-.7h-.2ZM164,94.9h0c0,0,0,0,0,0h0ZM166.1,95.2h0ZM164,96.8h.5v-.2h-.6v.2h.1ZM163.8,97.4c-.3-.3-.5-.5-.6-.6v1.4l.6-.8ZM165.1,97.7c-.3-.4-.5-.4-.7,0h.7ZM162.6,98.7c.4.3.6.5.6.5l-.3-.8-.3.4h0ZM164.5,98.3v-.2h-.3c0,0,.3.3.3.3h0ZM163.9,99.2h.2v-.6h-.2c0,0,.1.6.1.6h-.1ZM162.7,99.5l-.2-.2v.2c-.1,0,.2,0,.2,0ZM164.8,99.2h0v-.2h0v.2ZM162.3,99.9h0ZM161.7,100.2l-.3.3h.5c0,0-.3-.3-.3-.3h.1ZM164.8,99.8h-.2s0,0,0,0h.2c0,0,.1,0,.1,0h-.1ZM163.5,100.3h-.2.2ZM165,100.3h0ZM162.9,101.1v-.3h-.3c0,0,.3.3.3.3ZM163.5,101.4c0-.2-.2-.3-.5-.2v.6c-.1,0,0,0,0,0l.5-.5v.4h.3l-.3-.3ZM161.1,103.1c.2,0,.4,0,.5,0l.3-.3s0,0-.2,0l-.6.5h0ZM163.2,102.8h0ZM163.8,103.8s.2,0,.2,0h.1l-.3-.2h-.1c0,0,0,0,0,.2q0,.2.1.2h0ZM160.9,104h.2q0,0,0,0h-.2ZM163.1,105.5c-.1-.4-.2-.7-.5-.8-.2,0-.3,0-.4-.2h-.8c0,0,1.7,1,1.7,1ZM160.2,105.8h.3v-.3h-.4v.3h0ZM162.3,107.4l-.2-1.1-.8.3s1,.8,1,.8ZM160.4,106.7l.2.6s.1,0,.4-.2l-.5-.5h-.1,0ZM163.4,106.4h-.2.2ZM160.5,108.1l-.4.7.8-.3-.4-.4h0ZM161.3,109.8c.7-.3,1.2-.9,1.5-1.7l-1.2.6s-.1.4-.2,1.2h-.1ZM161.4,110.1l-.4.3.2.2.4-.3-.2-.2ZM162.4,110.6c.4,0,.8,0,1.3,0h.3c0,0-.7-.6-.7-.6q0,.2-.2.3s-.2,0-.4,0c-.2,0-.3,0-.3.4h0ZM164.7,110.8h0ZM162.4,111.2v.5s0,0,0,0h0q0,.1,0,0h0l.5-.6h-.5ZM164.2,112.1l.3.4.2-.6-.5.2ZM165.6,112c-.1,0-.4,0-.6.2v.2h.6v-.4ZM163.5,112.7l.4-.2v-.2c-.3,0-.5.2-.5.2,0,0,0,.2.1.2Z"/>
        <path class="cls-3" d="M200.6,91.6c0,.5.1.8.2,1l-3.6,6.3c-.4.8-1.3,2-2.4,3.4l-1,1.5c-.5.7-1.2,1.7-2.2,3-.2.3-1,1.1-2.4,2.6-.2.3-.5.6-1.1,1.3-.5.6-1.1,1.2-1.7,1.5-1,.8-1.9,1.3-2.9,1.6-1.2.2-2.2,0-3.1-.7-1.4-1.1-2.4-2.2-2.9-3.3-.5-.8-.8-1.7-.9-2.6-.1-.8-.1-1.9.1-3.1,0-.2.1-.9.4-2.2.2-1.2.6-2.4,1-3.5l.6-2.2.5-1.7.8-2.5c.3-.9.7-2.2,1.4-3.8.1-.2.2-.6.4-1s.4-.8.5-1.3l.6-1.8-2.8.4c-1.2-.7-1.8-1.6-2-2.8,0-.5,0-1.2.2-1.8,2.1,0,3.7,0,4.7,0,.8,0,1.4-.3,1.8-.4l5.3-12.3c.2,0,.4-.2.5-.2.2,0,.5,0,.7,0,1.4.5,2.2.9,2.6,1.2.9.6,1.5,1.3,1.6,2,0,.5,0,1.2-.4,1.8-.2.4-.4.8-.7,1.4s-.5,1.2-.8,1.9l-1.3,3.3h1.2c.8,0,1.5,0,1.9.3.6.9.9,1.7,1,2.3v.9l-5.5.5c-.2.6-.4,1-.5,1.2-1.1,3-2,5.4-2.5,6.9-1.1,3-2.2,6.7-3.3,11l-.7,3.6v1.2c0,.5.1.8.2,1h.5c.3,0,.6-.2.9-.4.2-.2.4-.3.5-.4.7-.5,1.4-1.2,2.1-2,.7-.8,1.2-1.3,1.5-1.6,2.1-2.2,3.8-4.4,5-6.4l1-1.5,2.7-3.9h1c.3,0,.6.3,1,.5v-.2h.3ZM191.9,69.7h0ZM192.1,71.2h.4v-.8c-.1,0-.5,0-.5,0v.9h.1ZM191,71s0,0,.2.2v-.2c.1,0-.2,0-.2,0ZM190.9,71.4c-.3.4-.4.7-.4.7,0,0,.2.2.5.2v-1h-.1ZM192.1,72.8h.3v-.7l-.4.5.2.2h-.1ZM191.3,72.8c-.1.3-.2.7-.3,1l.8-.3-.6-.7h.1ZM189.9,73.8h0ZM190.4,75.2c0-.4-.3-.6-.9-.7l.8,1.1v-.4h0ZM188.7,76.1c.2,0,.6.2.9.2l-.2-1-.7.8ZM188.2,76.7q.2,0,.3,0h-.3ZM190.4,76.3s0,0,0,0h0v.2h0v-.2ZM189.9,76.9c0,.3.3.4.7.4-.1-.2-.1-.4-.3-.4,0,0-.2,0-.5-.2v.2h.1ZM189.3,77.4c-.4.6-.3.9,0,.9v-.4q0-.2.2-.3l-.3-.2h.1ZM190,78h.2-.2ZM188.8,78.8h0v.2h.2l-.2-.2ZM189.2,79.6h0q-.2,0-.3,0h.4,0ZM188.5,81.4l.4-.8h-.8v.7h.4ZM189.3,80.7h0v.4h.2v-.4h-.2ZM187.9,81.3s-.1,0-.3,0h.3c0,0,0,0,0,0ZM186.8,82.5v.5c.3,0,.4,0,.5,0v-.2l-.6-.2h-.2c0,0,0,0,0,0h.3ZM188.2,82.8s0,0,.2,0v-.4l-.2.3ZM186.3,83.6h.2-.2ZM186.7,84.3c-.3.4-.6,1.1-.6,2.1h.2c.2,0,.2,0,.3-.4,0-.2.1-.2.2-.3l.7-.8c0-.4-.3-.6-.7-.6h0ZM185.8,84.8h0v-.2h-.1c0,0,.2,0,.2,0h0ZM184.9,85.7h0ZM184.5,86.3h0ZM187.6,86.9h0ZM184.9,87.4s0,0,0,0h0c0,0,0,0,0,0h-.2c0,0,.2,0,.2,0ZM184,88.1h-.2.2ZM184.8,88h0ZM186.4,88.1v-.2h-.6v.2h.6ZM187.1,88.2h0ZM186.2,88.8s0,0,0,0h0v.2h0v-.2ZM186.9,88.7h0ZM186.1,89.5c-.3-.3-.5-.4-.5-.4v.3c0,.2.1.4.3.7.5-.2.8-.3,1-.4v-.4c-.4,0-.7.2-.7.3h-.1ZM184,89.7h0s0,0,0,0h0v.2h0v-.2ZM183.4,90.8h0v-.3h-.2v.3h.2ZM184.4,90.5s0,0,0,0h0s0,0,0,0h0ZM183,93.1c.4-.2.7-.6.9-1.1l-.4-.2c-.2,0-.3,0-.4,0l-.2,1.4h0ZM185.4,91.6h0v-.2.2ZM185,92.4h0v-.2h0v.2ZM184.4,92.6c0,.2,0,.4.1.4h0v-.5h-.2,0ZM183.6,93.2c.1.3.1.4.2.6h.5l-.7-.5h0ZM183.3,93.6h-.3.3ZM185.1,93.2h.3-.3ZM182.1,95.3h.2l.5-1.1-.4-.3-.2,1.3h-.1ZM183,94.2h-.2v.2-.2h.2ZM183.4,94.6v.2h.7v-.5l-.7.4h0ZM181.4,95.9v-.2h0v.2ZM182.1,96v-.4h-.1v.4h.1ZM182.8,95.8s.2,0,.4,0v-.2h-.4v.2h0ZM184.6,95.4h-.2v.6h0l.2-.6ZM184,95.8h0c0,0-.4.2-.4.2h.4v-.2ZM182.5,96.9s-.2,0-.5,0c-.2,0-.3.2-.5.6.2,0,.4-.2.5-.3.1,0,.3,0,.4-.2h.1ZM183.6,96.5h-.4v.2c.2,0,.3,0,.4,0h0ZM181,98.2c.9.3,1.5.4,1.6.5l-.5-.9h-.7c0,0-.4.5-.4.5h0ZM184.1,97.6h0ZM183.1,98h0c0,0,0,0,0,0h0q0,0,0,0h0ZM181.9,99.1l.3-.4h-.2l-.3.3h.2ZM183.7,98.4v.3l.2-.2h-.2ZM180.5,99.1v.2c-.1,0,.3.2.3.2v-.2l-.3-.2h0ZM183.4,99.1s.1-.2.2-.2h-.3v.2h.1ZM183,100v.2h0v-.2ZM182.1,100.2c.1.3.2.4.3.5,0,0,.3,0,.5,0l-.8-.3h0ZM180.5,100.8l-.3.3.3.2.2-.5h-.2ZM181.4,101.7c.3-.3.4-.4.4-.4,0,0-.2,0-.5-.3v.8h.1ZM182.7,101s-.1,0-.2,0l.3.2v-.3h-.1ZM179.7,101.8h0ZM183.4,101.5h0ZM182.4,101.8v.4h.2v-.4h-.2ZM181.3,102.1h-.2.2ZM181.1,102.2s-.1.2-.3.4h1.3c0,0,0,0,0,0l-1-.5h0ZM180.3,102.7h0ZM182.7,102.8h0v.2h0v-.2ZM180.6,103.5v-.2q.1,0,0,0v.3h0ZM179.7,104.4l.2-.3h-.3c0,0-.1,0-.1,0h.2c0,0,0,.2,0,.2ZM182.8,103.6h0ZM181.6,105.5l-.2-.5h-.4l-.3.8.9-.3ZM179.3,105.7h0ZM179.8,106.6h0ZM181.3,106.7c-.1-.2-.2-.4-.3-.3l-.5.5h.8v-.2ZM182.8,106.9q-.2,0-.4,0s-.2,0-.2,0v.2l.5.3v-.2h.2-.1ZM181.4,107.6s.2,0,.5.4c0,0,.1-.2.3-.5h-.8ZM182.7,108h0ZM182.2,108.5v.2h.6v-.2h-.6ZM183.6,108.3s0,0,0,0h0v.2h0v-.2ZM181,109.2v-.2c.1,0,0,0,0,0h-.2l.3.3h0ZM184.2,108.7v.2h0v-.2ZM185,109h-.2c0,0,.2,0,.2,0ZM185.5,109.2h0v-.2.2ZM183.2,109.4h0ZM184.2,110v.4h.2v-.4h-.2ZM183,110.3h0Z"/>
        <path class="cls-3" d="M205.2,95.7c0,.6-.2,1.3-.4,2.1-.2.8-.3,1.4-.4,1.8-.2,1.1-.4,2.7-.5,4.7h.6c1.3-.5,2.2-1.1,2.7-1.7.3-.4.7-.9,1.3-1.5l1.3-1.3,1.1-1.2,1.2-1.4.5-.5,1.7-2.6,1.6-2.3,2.3-3.3,1.1-.2,1.1.6c0,.5.1.8,0,.9-.4,1-.7,1.7-1,2.1-1.6,2.8-2.8,4.6-3.4,5.3l-1.8,2.6c-1.6,2.3-3.1,4.2-4.3,5.6-.1.2-1.2,1.3-3.3,3.5-.6.7-1.6,1.3-2.9,1.9-.2,0-.5,0-1,0-1.3-.2-2.5-.8-3.5-1.5-.6-.6-1.3-1.3-1.8-2.1-.5-.8-.8-1.2-.9-1.4,0,0-.1-.4-.2-.6,0-.2,0-.4-.1-.5l-.3-1.5h-.2c0,0,.6-2.7.6-2.7l.8-3.5c.1-.7.6-2.2,1.1-4.3l2.1-5.9c.4-1.1,1-2.6,1.8-4.8.7-2,1.6-4.3,2.7-7,.2-.4.3-.9.5-1.5.2-.5.4-1.1.6-1.6l.4-.8c.6-1.1.9-1.7.9-1.8.2-.8.5-1.8,1.1-2.9s1-2,1.1-2.6c0-.2.2-.5.4-.8s.3-.6.4-.8l.7-1.8c.2-.6.4-1.1.6-1.5.2-.3.5-.3,1-.2,1.6.5,3,1.2,4.1,2.2.2,0,.4.3.6.7.1.4.2.6.3.7-.1.2-.3.4-.4.8l-.4.8c-.9,2.3-1.5,4-1.9,5.1l-.8,2c-.4.9-.9,2.2-1.6,4.1l-1,2.5c-.7,1.5-1.2,3-1.7,4.3-.2.6-.4,1.2-.7,2-.3.7-.5,1.3-.7,1.7l-.2.5-1.5,4.9c-.2.6-.3,1.1-.6,1.6-.5,1.2-.9,2.3-1,3.2v-.2h.2ZM214.1,62.1c0,.4.2.6.5.6l.3-.4-.8-.5v.3ZM212.8,62.6h.2-.2ZM213.4,62.9c-.2.2-.3.3-.2.6.1.2.1.4.1.4.2,0,.4-.3.3-.4,0,0-.2-.3-.3-.5h0ZM212.4,64.5h0ZM212.3,65.2h-.2.2ZM212.8,65.7h-.3v.2h.3v-.2ZM213.7,65.5h0ZM211.9,66.6h-.3.3ZM212.3,67.6h0ZM211.7,68c0,.2,0,.5-.1.7.3-.2.4-.4.5-.5,0,0-.1-.2-.3-.3h0ZM211.9,68.7h0v.2h0v-.2ZM210.8,69.6h0v-.2h0v.2h0ZM212.7,69.5c-.2,0-.4,0-.5,0-.1,0-.3,0-.4,0,0,0,.1.3.1.5.2-.3.5-.5.7-.7h0ZM210.2,69.9h0ZM211.7,70.1c-.2.2-.4.4-.5.5s-.2.4,0,.7c.3,0,.5-.3.6-.5,0-.2.1-.4,0-.7h-.1ZM210.6,70.5c-.4.3-.4.7,0,1.1.2-.3.3-.5.2-.7s-.1-.3-.1-.4h0ZM209.4,71.4v-.2h-.6v.2h.6ZM211.6,71.4h0v.5h0v-.4h0ZM208.8,72.2h0ZM209.6,72.2h0ZM208.7,72.7h0ZM210.2,72.9c-.2-.2-.3-.3-.5-.3s-.3,0-.4.3v.5l.9-.5ZM210.1,73.8h.5l-.2-.8-.4.7h0ZM208.9,73.5c.3.8.5,1.1.4,1l.2-1h-.6ZM210.7,73.8c.1.3.3.3.5,0h-.5ZM209.6,74.8h0ZM207.5,75.7c0-.2,0-.3-.1-.4h-.2v.5h.3ZM208.3,75.8h0ZM209.3,77h0l.2-1.2-.8.6.6.6ZM206.9,76.8s0,0,0,0v.2h0v-.2ZM208.2,76.9v-.4h-.2v.4h.2ZM207.8,77.6h-.4.2c0,0,.2,0,.2,0ZM209,77.4h.2-.2ZM208.9,78.2s-.1,0-.2.2l.3.3.2-.3-.3-.2ZM207,78.9c-.2,0-.2,0-.3,0v.3c-.1,0,0,0,.3-.2l.3.2.2-.5-.5.3h0ZM208.4,79.2c0-.2-.2-.4-.5-.5,0,.2-.1.4,0,.6,0,.2.2.2.4.3v-.3h.1ZM206.8,79.9l-.5-.5-.2.6h.7ZM205.2,80.6h.5c.2.4.4.3.5,0h-.9c0,0,0,0,0,0h-.1ZM206.6,80.4s0-.2,0,0l-.3.3h.4v-.2ZM207.9,80.9v-.6h-.4s.4.6.4.6ZM207.2,81.3q-.2,0-.3,0h.3v-.2h0ZM205.6,81.8h-.2.2ZM208.5,81.4h0ZM206.6,81.8c-.3.4-.3.7,0,1.1l.4-.8s-.4-.3-.4-.3ZM205.3,83.4h0ZM204.9,84.4l.3-.3-.3-.2-.2.5h.2ZM206.2,84.4v-.2h-.4v.3h.4ZM207,85h0ZM203.5,86h0ZM204.5,85.9v.2c.4.2.7.3,1,.4l.2-.4-1.1-.2h0ZM204.1,86.4s.2,0,.1,0v-.3h-.3v.3h.2ZM204.6,86.8h-.3.2s0,0,0,0h.1ZM203.3,87.3h0ZM203.8,87.2h0ZM205.8,87h0ZM202.6,88.3h0ZM206.2,87.9v-.2h-.1v.2h.1ZM204.3,89v-.2h-.7v.2h.7ZM203.5,89.9h.2s.2,0,.3.2c0,0,.1-.2.3-.5l-.9-.2c0,0-.1-.2-.3-.2,0,0-.2,0-.3.3l-.2.2h.2v.8c.2,0,.5,0,.6-.2v-.4h0ZM202.1,90.4h.2c0,0,.2-.2.2-.2h-.2s-.2.2-.2.2ZM205.5,90.5h0ZM202.5,91.9c.2,0,.2,0,.3-.3,0-.2.1-.3.2-.4-.2,0-.5,0-.5.2,0,0-.1.3,0,.6h.2-.2ZM204.9,91.5l-.2.2h.3v-.2h-.1ZM204.5,92.2v-.4.3c-.1,0,0,0,0,0h0ZM201.1,93.4v-.5h-.1v.5h.1ZM203,92.9h0ZM203.8,93.4v-.2c.1,0,0,0,0,0,0,0,0,.2,0,.2h0ZM202.4,93.8v-.2c-.2,0-.4,0-.6,0v.9c.1,0,.6-.8.6-.8ZM203.3,94.8c0-.4,0-.7-.2-.8l-.4-.2.6.9h0ZM201.3,94.2h0v.2h-.2v-.2h.2ZM202.6,94.9h-.5v.2h.5v-.2ZM200.4,95.9h0ZM202.6,96s-.1,0-.4.2c.2,0,.3,0,.4,0s.2,0,.4-.3c0,0-.4,0-.4,0ZM202.3,96.5c-.3-.2-.3-.3-.5-.3,0,0-.1.2-.2.4h.7ZM201.3,97v.9l.6-.3-.3-.6h-.3ZM203.6,96.7v.2-.2h0ZM203.3,98.2s.2-.3.3-.5l-.8.2v.5c.1,0,.3,0,.4,0h.1ZM200.7,98.3h0ZM202.1,98.1c-.3.3-.3.7,0,1.1l.3-1h-.3ZM200.5,99c-.2-.2-.3-.3-.6-.3s-.3,0-.5,0c.4.3.8.4,1.1.2ZM200.7,98.6h0q0,0,0,0h-.2.2ZM203.4,98.5h0ZM201.4,99.2h0q0,0,0,0h0ZM200.3,100.3v-.6l-.5.6h.5ZM200.9,100.1s0,0,.1.3h0v-.3h-.2,0ZM199.7,101v.5c0,.2,0,.3.1.5s.1.4.2.4h.4l.2-.2v-.2c0-.2-.2-.4-.4-.6-.2,0-.4-.3-.5-.3h0ZM202.3,101.5c-.2,0-.4,0-.6.3-.1.2-.3.3-.3.6s-.2.4-.3.7c.4-.3.7-.5.9-.6,0,0,.3-.4.5-.9h-.2,0ZM202.3,103.2c-.3.3-.4.5-.4.7s.2.5.6.8c0,0-.1-.3-.2-.4,0,0-.1-.2-.1-.3v-.8h0ZM200.7,103.8v.2c-.1,0,0,0,0,0h.2l-.3-.3h0ZM202.7,103.5h0ZM201.7,105.4c-.5,0-.7.3-.6.9h.2c0,0,0-.2,0-.2.5,0,.7,0,.8,0v-.8h-.4ZM202.8,105.4h0ZM203.6,105.8c0-.2,0-.3-.1-.4h0v.4h.2,0ZM202.4,106.4s0,0,0,0v.2h0v-.2ZM205.1,106.2v.4h.1v-.4h-.1ZM201.9,106.8s0,0,0,0v.2h0v-.2ZM202.9,106.8v.2s.2,0,.4,0h-.4ZM203.2,107.6h0Z"/>
        <path class="cls-3" d="M245.6,84.6c1.2,0,1.9.5,2,1.3,0,.4,0,.9-.3,1.4l-1.3,2.1-.9,1.4c-1.3,2.1-1.8,3-1.8,2.9-.5.8-1.2,1.8-2,2.8-.2.2-.5.6-1,1.4-.2.3-.5.7-.7,1-.5.6-1.2,1.4-2.2,2.5-1,1-1.8,1.7-2.5,2.3-2.3,1.9-4.6,3.3-6.9,4.2-.2,0-.5,0-1,.2-.6,0-1.1,0-1.4,0-1.5,0-3-.5-4.7-1.5-1.5-1-2.7-1.9-3.3-2.8-.6-.8-.9-1.4-1-2.1,0-.5-.2-1.1-.3-2-.1-.8-.1-1.6,0-2.2,0-.6.2-1.3.4-2,.3-1.4.5-2.2.7-2.6.1-.3.3-1.1.7-2.3.4-1.1.9-2.1,1.5-3.1.1-.2.3-.3.3-.5s.1-.3.2-.4c.7-1.9,1.7-3.6,3-5.4l.9-1.3c.1-.2.3-.3.5-.6.1-.2.3-.4.5-.7.9-1,1.8-2,2.9-2.9,1.3-1.1,2.7-1.8,4.2-2h1.7c2.7.2,4.8,1.4,6.2,3.7.5.9.8,1.7.9,2.4.2,1.1,0,2.3-.5,3.6-.7,2-1.9,4-3.5,5.7-.7.8-1.4,1.4-2.2,2.1-.6.5-1.2.9-1.8,1.2,0,0-.2,0-.4.3-.2,0-.4.2-.4.3-.5.5-1,.8-1.7.9-.8.2-1.4.3-1.9.4h-1.6c-.4,0-.9,0-1.4-.3-.6-.2-.9-.3-1.1-.4-.5,1.4-.9,3.3-1,5.7v.8c.1.8.5,1.5,1.2,2.1.6.6,1.4.8,2.1.7.4,0,.7-.2.9-.3.2,0,.3-.2.4-.2,1,0,2-.3,2.8-.8s1.8-1.2,3.1-2.1c1.7-1.5,3.6-3.3,5.5-5.6,1.3-1.4,2.2-2.5,2.7-3.2.3-.3.7-.9,1.1-1.5.5-.6.8-1.2,1.2-1.8.3-.6.5-1.2.7-1.7l.5-.7h.5v-.2c.1,0-.5-.3-.5-.3ZM229.1,77.3h0c0,0,0,0,0,0t0,0h0ZM226.5,87.4c-.6,1.1-1.1,2.5-1.7,4.2h.3c2.3-.5,4.1-1.4,5.4-2.5l2.3-2.2c1.2-1.1,1.9-2,2.2-2.9,0-.2.1-.3.3-.6.5-.5.9-1.4,1-2.4v-1.2c-.1-.9-.6-1.6-1.4-2.1h-.5c-.4,0-.9.3-1.5.7-1.3,1-2.3,2.2-3,3.3l-1.3,2.1c-1,1.6-1.8,2.8-2.2,3.7h0ZM229,78.4h0v.2h.5l-.5-.2h0ZM228,78.6h-.2c0,0,.3,0,.3,0h-.1ZM227.9,79.4c.3,0,.6.2.8.4l-.4-.8-.4.4h0ZM226.7,79.5h0v-.2h0v.2ZM228.3,80.7h-.3.3ZM225.6,81.8h0c0,0,.4-.2.4-.2,0,0,0-.2-.1-.2l-.4.4h.1ZM227,81.4h.1-.1ZM227.3,81.8v.4-.2c.1,0,0-.2,0-.2ZM224.9,82.3c-.4.2-.4.4,0,.6,0,.4.2.4.5.3l-.5-.3v-.6ZM225.3,82.6h.5s.2,0,.3.2c0,0,.2,0,.2-.2h-.9c0,0,0,0,0,0h-.1ZM224,83.3s.1,0,.2,0h-.3.1ZM224.9,83.7s-.2,0-.4,0v.2c.1,0,.4-.4.4-.4h0ZM224.8,84.7s.1.2.1.4l.5-.5h-.2c0,0-.5,0-.5,0h0ZM223.9,85.1h-.2.2ZM222.9,86.1s0,.2-.1.3c0,.2,0,.3.3.4l.7-.5s-.9-.2-.9-.2ZM224.8,85.8h0c0,0-.2,0-.2,0h.2ZM224,87.6h.2l-.2-.6h-.2l.2.6ZM221.5,88v-.2h0v.2ZM222.4,88.1h0s0,0,0-.2h.2l-.2.2ZM223.4,87.8h.2-.2ZM222,89.5c.4,0,.5-.2.6-.4,0,0,0-.3-.1-.5l-.4.9h-.1ZM220.5,90l.7.7.3-.9s-1,.2-1,.2ZM222.8,90.8h0l-.3.2.3.2c0-.2.1-.3.1-.4h-.1ZM220.2,91.6c.4.3.7.5.7.5h.4c-.2-.3-.4-.5-.5-.6h-.6ZM222,91.7l.3.3h0c0-.2-.2-.3-.3-.4h0ZM220,92.8h0ZM221.5,93.6c.3,0,.4-.4.4-.7-.4.2-.6.5-.4.7ZM221.3,93.7c-.2,0-.3.3-.1.6l.3-.7h-.2ZM220.2,94.3h0v.2h0v-.2ZM220.8,95.7c0,0-.2-.2-.3-.3v.2c-.1,0,.3.3.3.3v-.2h0ZM219.8,96.3h0v.2h0v-.2ZM221,96.4h.3l-.3-.2v.2ZM221.4,97.2c.2,0,.4,0,.5,0l-.4-.6v.7h-.1ZM218.5,97.9l.3-.3h-.2c0,0-.2.2-.2.2h0ZM221.4,98.1c0-.2.1-.3.2-.4-.1-.2-.2-.4-.2-.4-.1,0-.2.2-.2.3,0,.2,0,.3.1.4,0,0,0,0,.1.2h0ZM220.4,97.9c-.2-.2-.3-.3-.5-.2-.2,0-.3.2-.4.6l.9-.4ZM220.3,98.7h.3-.3ZM220.3,99.4l-.2.4h.2l.2-.3h-.2ZM220.3,100.5c-.1-.2-.2-.4-.2-.4-.2,0-.4.2-.5.4v.5l.6-.4h0ZM221.1,100.3v.2q.2,0,.3,0h-.3ZM221.7,101.3h-.2.2ZM220.7,101.6v.2h.1v-.2h-.1ZM221.8,101.7h.2c0,0,0,0,0,0h-.2ZM222.7,102.4q-.2,0-.3,0h.3v-.2h0ZM225.9,103.8h0ZM223.6,104.4h-.2v.3h0v-.3h.2ZM226.4,105.1h0Z"/>
        <path class="cls-3" d="M271,81.2c1,0,1.7.2,2,1-.1.9-.6,1.9-1.4,3.1l-1,2.1c-.6,1.2-1,2-1.1,2.2l-1,2c-.3.4-.7,1.1-1.2,2-.1.2-.5.7-.9,1.6-.5.9-1.1,1.7-1.7,2.3-.2.3-.5.5-.7,1-.3.4-.5.7-.7.9s-.6.5-1.3,1.3c-.7.6-1.3,1.2-1.9,1.7s-1.5.9-2.8,1.3c-.4,0-1.1.2-2.1.4-1.5.2-3,.2-4.4,0-1.3-.2-2.6-.7-3.9-1.6-.3-.2-1.1-.8-2.4-1.8-.4-.4-.5-.6-.5-.6-.2-.5-.5-1-.8-1.6-.7-1.3-1.2-2.4-1.4-3.2-.1-.2-.1-.5-.2-.9-.1-.8,0-1.6.5-2.3.4-.7,1-1.1,1.9-1.2h1c.1.4.3.8.5,1.3s.4,1,.5,1.4c.2,1.1,1,2.5,2.3,4,.3.4.6.8,1.1,1.1.4.3.8.6,1.2.8.9.3,1.6.5,2.2.4.4,0,.6,0,.8-.2.2,0,.5-.2.9-.2h.6c.5-.5.9-1.1,1.1-1.8.1-.6.2-1.3.2-2.2v-1.8c0-.2-.2-.6-.3-1v-1.6c0-.4-.2-.8-.4-1.3s-.4-.9-.5-1.2l-.7-2.7-.4-1.3c-.4-1.6-.8-2.8-1-3.6l-.3-1.2-.9,1.6c0,.2-.2.4-.4.7-.2.3-.3.5-.4.7-.3,1-1.1,2.3-2.2,4-.1.2-.3.4-.7.7-.3.4-.7.6-1.2.6s-.8,0-1.2-.3c0-.4-.1-.8-.2-1.1l.8-1.6c.6-1.1,1.2-2.1,1.6-3.2.4-.7.8-1.8,1.5-3.4l.7-1.4,1.1-2.2c.2-.3.4-.7.5-1.3.2-.6.3-1,.4-1.3.8-2,2.4-3.3,4.6-3.6.8,0,1.5,0,2.1.3,0,0,1.1.8,3.3,2.3,0,0,.2.3.5.6l-.2.6c-.9.5-1.6,1-2.1,1.5s-.8,1.3-.9,2.3l1.2,5.6c.2.7.3,1.2.4,1.6l.4,1.6c.3.8.7,2.1,1,3.7,0,.5.2,1.2.4,2.2.1.4.2.9.2,1.4s0,1,.1,1.4c0,.5.1.8.2,1l.4-.8c1.3-2.1,2.9-5,4.6-8.5,0-.2.6-1.2,1.6-3.2l.6-.9h.5v-.5c.1,0-.1.3-.1.3ZM256.8,71.1h0ZM255.8,72c0-.2-.2-.3-.5-.5l.6.9v-.4h-.1ZM256.4,71.9s-.1,0-.2.3h.2v-.3ZM254.1,72.5h0ZM257.9,73.4l-.2-1.4-.5.5.7.9ZM255.4,72.6h-.2.2ZM255.3,72.7c-.4,0-.5.4-.4.8l.6-.3v-.2l-.3-.4h0ZM254.2,73.4h0ZM256.3,74.1v-.2c.1,0-.3-.2-.3-.2v.2c-.1,0,.3.2.3.2ZM253.5,74.1h0ZM256.7,73.6v.4h.2v-.4h-.2ZM254.5,74.7s.3.2.5.3l-.2-.8-.3.5ZM256.7,74.8c-.3-.3-.7-.4-.9-.3v.3c0,.4.3.6.8.7l-.2-.6h.3ZM254.8,76.1h0ZM256.3,75.9c-.5.3-.5.6-.3,1,.3,0,.4-.4.3-.6s-.1-.3-.1-.4h.1ZM257.4,77v-.5h-.2v.6h.2ZM255.9,77.5h-.3v.5s.1,0,.4-.2v-.2h-.1,0ZM254.4,77.8h0ZM255.1,79.2h.1l-.5-.8-.3.4.7.5h0ZM257.5,78.1h0ZM257.6,79.3c-.3-.8-.6-1.1-1.1-.8v.4h.3c0,0,.3.5.3.5h.5ZM257,80c-.2,0-.4-.4-.8-.7v1.1s.4-.2.8-.4ZM255.4,79.9h0ZM255.6,80.8h0c0,0,0,0,0,0h0ZM257.4,80.3c-.2,0-.3.2-.3.3,0,0,.1.2.2.4,0,0,.1.2.2.3v-1h-.1ZM254.7,80.8h0ZM256.8,81.5c.2,0,.3-.3.3-.4,0,0-.1-.3-.3-.5v.9h-.5l.2-.5-.8.3s0,0,.2.3c0,0,.1.2.1.4v.5h.5l.3-.9h0ZM258.5,83.1l.2-.3h-.2v.3ZM256.9,84s.1-.2.4-.3c.2,0,.3-.2.4-.3v-.4c-.4.3-.6.5-.6.9h-.2ZM255.7,83.9h0ZM257.9,84.7v-.2h-.4v.2h.4ZM258.1,85.3c-.1.2-.2.4-.2.6s0,.3.3.4v-.8c-.1,0,0,0,0,0v-.2ZM258.5,86h0c0,0,.1,0,.1,0h-.2.1ZM258.5,86.1h-.2v.2-.2h.2ZM259.3,86.9h0ZM260.7,88.8c-.3-.5-.6-.9-1.1-1-.4-.2-.7-.2-.9,0,0,.2,0,.4.1.5l.6-.2,1.2.6h0ZM257.7,87.8h-.3c0,0,.3,0,.3,0h0ZM258.1,89.9h.2-.2ZM258,90.4c.6.3.9.6,1.1.7l-.3-.9-.8.2h0ZM260.2,90.5h-.2v.5h.2v-.5ZM259.5,91.3h0s0,0,0-.2h0v.2h0ZM258.9,91.6h-.3.3ZM259.6,92.3h0ZM260.2,92.6h.3v-.2h-.4v.2h.1ZM259.4,93l-.4.2s0,0,.1.2l.4-.3h-.1ZM260.2,92.9h.2-.2ZM260,93.6l-1,.5v.4h.7l.4-.8h-.1ZM258.1,94.1h0ZM260.4,95.6s0-.2.2-.4c.1-.2.1-.4,0-.6-.3.3-.4.4-.5.6,0,0,0,.3.3.5h0ZM258.5,95.5v-.2q.1,0-.1,0v.3h.1ZM259.4,95.9c-.2,0-.5.3-.8.6v.8c.1,0,.7-.4.7-.4v-1h0ZM261.2,95.8h-.2c0,0,.3,0,.3,0h0c0,0,0,0,0,0ZM259.9,96.9c.2,0,.2-.3,0-.5v.5ZM261,96.6h.3-.3ZM258.1,97.6h-.3.3ZM259.2,97.7s0,0,0,0h0v.2h0v-.2ZM260.3,97.7h0c0,0,0,0,0,0h-.2.2ZM261.2,97.5h0ZM259.1,99.5v-.4h-.9c.2.2.5.4.8.4h.1ZM257.4,100.1h.5s-.1-.2-.2-.3h-.2s-.1,0-.4.2h0c0,0,0,0,0,0h.3Z"/>
      </g>
    </g>
  </g>
</svg>