<svg width="64" height="64" viewBox="0 0 64 64" fill="none" xmlns="http://www.w3.org/2000/svg">
<g clip-path="url(#clip0_72_7)">
<path d="M61.636 49.6101C59.8326 45.9447 56.999 40.7689 55.472 38.0107C55.3831 37.8504 55.2635 37.709 55.12 37.5949C54.9765 37.4807 54.8119 37.396 54.6356 37.3454C54.4593 37.2949 54.2748 37.2795 54.0926 37.3003C53.9104 37.321 53.7341 37.3775 53.5737 37.4664C53.4133 37.5553 53.272 37.6749 53.1578 37.8184C53.0437 37.9619 52.9589 38.1265 52.9083 38.3028C52.8578 38.4791 52.8424 38.6636 52.8632 38.8458C52.884 39.028 52.9404 39.2043 53.0293 39.3647C54.5452 42.1005 57.3536 47.2316 59.1319 50.844C59.3184 51.2157 59.4159 51.6258 59.4166 52.0417C59.4166 53.5827 58.1632 54.8361 56.6222 54.8361H36.2625L39.4646 51.6341C39.7189 51.3708 39.8595 51.0182 39.8564 50.6523C39.8532 50.2863 39.7064 49.9362 39.4476 49.6774C39.1888 49.4186 38.8387 49.2718 38.4727 49.2686C38.1067 49.2654 37.7541 49.4061 37.4909 49.6604L31.9075 55.2437C31.6459 55.5055 31.4989 55.8604 31.4989 56.2306C31.4989 56.6007 31.6459 56.9557 31.9075 57.2174L37.4909 62.8008C37.7549 63.0592 38.1097 63.204 38.4791 63.204C38.8486 63.204 39.2034 63.0592 39.4674 62.8008C39.7291 62.539 39.8761 62.184 39.8761 61.8139C39.8761 61.4438 39.7291 61.0888 39.4674 60.827L36.2681 57.6278H56.625C59.7042 57.6278 62.2083 55.1237 62.2083 52.0417C62.2083 51.2014 62.0185 50.3834 61.636 49.6101ZM27.3125 54.8333L6.37496 54.8361C4.83675 54.8361 3.58329 53.5827 3.58329 52.0417C3.58329 51.6313 3.681 51.2265 3.87083 50.8412C6.80767 44.8671 10.7467 37.8432 15.688 29.2812L16.76 33.5887C16.8495 33.9482 17.0783 34.2574 17.3958 34.4482C17.7133 34.639 18.0936 34.6959 18.4531 34.6063C18.8126 34.5167 19.1217 34.288 19.3126 33.9705C19.5034 33.653 19.5603 33.2726 19.4707 32.9132L17.5612 25.2556C17.4695 24.8976 17.2407 24.5901 16.9241 24.3995C16.6076 24.2088 16.2287 24.1503 15.8694 24.2367L8.20629 26.1434C7.8646 26.2486 7.57618 26.4807 7.40027 26.7919C7.22437 27.1032 7.17434 27.47 7.26046 27.817C7.34658 28.164 7.56232 28.4648 7.86335 28.6577C8.16438 28.8506 8.52785 28.9208 8.87909 28.8541L13.3513 27.7402C8.34029 36.4167 4.351 43.5355 1.36113 49.6101C0.986393 50.3659 0.791483 51.1981 0.791626 52.0417C0.791626 55.1237 3.29575 57.6278 6.37496 57.6278L27.3125 57.625C27.6827 57.625 28.0377 57.4779 28.2995 57.2162C28.5612 56.9544 28.7083 56.5994 28.7083 56.2292C28.7083 55.859 28.5612 55.5039 28.2995 55.2422C28.0377 54.9804 27.6827 54.8333 27.3125 54.8333ZM33.9873 6.14107C36.1369 10.0299 38.8644 14.7143 41.8515 19.8454C44.0075 23.5413 46.1487 27.2459 48.2751 30.959L43.7861 29.8423C43.6081 29.7982 43.4232 29.7895 43.2418 29.8168C43.0605 29.8441 42.8863 29.9068 42.7292 30.0014C42.4119 30.1925 42.1836 30.5018 42.0943 30.8613C42.0051 31.2207 42.0624 31.6009 42.2534 31.9182C42.4445 32.2355 42.7538 32.4638 43.1133 32.553L50.7764 34.4597C50.9543 34.5053 51.1395 34.5149 51.3212 34.4881C51.5028 34.4612 51.6773 34.3985 51.8345 34.3034C52.152 34.1122 52.3808 33.8031 52.471 33.4436L54.3777 25.7805C54.4444 25.4292 54.3742 25.0658 54.1813 24.7647C53.9884 24.4637 53.6876 24.2479 53.3406 24.1618C52.9936 24.0757 52.6268 24.1257 52.3155 24.3016C52.0043 24.4775 51.7722 24.766 51.667 25.1077L50.5978 29.4012C48.4994 25.7422 46.3879 22.0907 44.2635 18.4467C41.2875 13.3352 38.5713 8.67032 36.43 4.79549C35.3915 2.91111 33.5463 1.79166 31.5 1.79166C29.4509 1.79166 27.6084 2.91391 26.5699 4.78991C24.4426 8.63962 21.5393 13.6311 18.2814 19.2368C17.8934 19.9012 18.1809 20.6522 18.8481 21.0402C19.5153 21.4282 20.4282 21.096 20.819 20.4288C23.5956 15.6919 26.3278 10.9291 29.0154 6.14107C29.2613 5.69722 29.6215 5.32728 30.0586 5.06969C30.4958 4.8121 30.994 4.67625 31.5014 4.67625C32.0088 4.67625 32.5069 4.8121 32.9441 5.06969C33.3812 5.32728 33.7415 5.69722 33.9873 6.14107V6.14107Z" fill="#2FA477"/>
</g>
<defs>
<clipPath id="clip0_72_7">
<rect width="64" height="64" fill="white"/>
</clipPath>
</defs>
</svg>
